<mxfile host="app.diagrams.net" modified="2021-05-23T12:47:48.105Z" agent="5.0 (Windows NT 10.0; WOW64) AppleWebKit/537.36 (KHTML, like Gecko) Chrome/86.0.4240.198 Safari/537.36" etag="VjRCS05uKCIfeudav79M" version="14.7.0" type="github">
  <diagram id="VU1PGUDHjoJo6Gr4KmU9" name="Page-1">
    <mxGraphModel dx="3559" dy="625" grid="0" gridSize="10" guides="1" tooltips="1" connect="1" arrows="1" fold="1" page="1" pageScale="1" pageWidth="1169" pageHeight="827" background="none" math="0" shadow="0">
      <root>
        <mxCell id="0" />
        <mxCell id="1" parent="0" />
        <mxCell id="wW4yl2Ik6cUgS3KZOihZ-2" value="" style="rounded=1;whiteSpace=wrap;html=1;strokeColor=#d79b00;fillColor=#FFF5E6;arcSize=9;" vertex="1" parent="1">
          <mxGeometry x="-2154" y="331.84000000000003" width="362" height="163.67" as="geometry" />
        </mxCell>
        <mxCell id="wW4yl2Ik6cUgS3KZOihZ-3" value="" style="html=1;shadow=0;dashed=0;align=center;verticalAlign=middle;shape=mxgraph.arrows2.arrow;dy=0.53;dx=22.12;notch=0;rounded=1;rotation=-90;fillColor=#FFD966;strokeColor=#FFD966;" vertex="1" parent="1">
          <mxGeometry x="-2116.15" y="295.99" width="89.66" height="15" as="geometry" />
        </mxCell>
        <mxCell id="wW4yl2Ik6cUgS3KZOihZ-4" value="" style="html=1;shadow=0;dashed=0;align=center;verticalAlign=middle;shape=mxgraph.arrows2.arrow;dy=0.53;dx=22.12;notch=0;rounded=1;rotation=-90;fillColor=#FFD966;strokeColor=#FFD966;" vertex="1" parent="1">
          <mxGeometry x="-1921.07" y="289.66999999999996" width="85.14" height="15" as="geometry" />
        </mxCell>
        <mxCell id="wW4yl2Ik6cUgS3KZOihZ-5" value="" style="rounded=1;whiteSpace=wrap;html=1;strokeColor=#10739e;fillColor=#DFECF0;arcSize=8;" vertex="1" parent="1">
          <mxGeometry x="-1742" y="332.16999999999996" width="357" height="167" as="geometry" />
        </mxCell>
        <mxCell id="wW4yl2Ik6cUgS3KZOihZ-6" value="" style="endArrow=classic;html=1;fontSize=17;fontColor=#8C8C8C;exitX=0.5;exitY=1;exitDx=0;exitDy=0;curved=1;strokeWidth=2;dashed=1;strokeColor=#A8B0B5;" edge="1" parent="1" source="wW4yl2Ik6cUgS3KZOihZ-265" target="wW4yl2Ik6cUgS3KZOihZ-125">
          <mxGeometry width="50" height="50" relative="1" as="geometry">
            <mxPoint x="-1593" y="325" as="sourcePoint" />
            <mxPoint x="-1543" y="275" as="targetPoint" />
            <Array as="points">
              <mxPoint x="-1767" y="213" />
              <mxPoint x="-1774" y="243" />
              <mxPoint x="-1774" y="284" />
              <mxPoint x="-1745" y="345" />
            </Array>
          </mxGeometry>
        </mxCell>
        <mxCell id="wW4yl2Ik6cUgS3KZOihZ-7" value="" style="html=1;shadow=0;dashed=0;align=center;verticalAlign=middle;shape=mxgraph.arrows2.arrow;dy=0.57;dx=16.35;notch=0;rounded=1;rotation=-50;fillColor=#DAD8ED;strokeColor=#DAD8ED;" vertex="1" parent="1">
          <mxGeometry x="-1673.48" y="194.30999999999995" width="83.26" height="20" as="geometry" />
        </mxCell>
        <mxCell id="wW4yl2Ik6cUgS3KZOihZ-8" value="" style="html=1;shadow=0;dashed=0;align=center;verticalAlign=middle;shape=mxgraph.arrows2.arrow;dy=0.57;dx=16.35;notch=0;rounded=1;rotation=-130;fillColor=#DAD8ED;strokeColor=#DAD8ED;" vertex="1" parent="1">
          <mxGeometry x="-1590.33" y="176.0000000000001" width="32.24" height="20" as="geometry" />
        </mxCell>
        <mxCell id="wW4yl2Ik6cUgS3KZOihZ-9" value="" style="html=1;shadow=0;dashed=0;align=center;verticalAlign=middle;shape=mxgraph.arrows2.arrow;dy=0.57;dx=16.35;notch=0;rounded=1;rotation=-115;fillColor=#DAD8ED;strokeColor=#DAD8ED;" vertex="1" parent="1">
          <mxGeometry x="-1565.25" y="219" width="31.79" height="20" as="geometry" />
        </mxCell>
        <mxCell id="wW4yl2Ik6cUgS3KZOihZ-10" value="" style="shape=image;verticalLabelPosition=bottom;labelBackgroundColor=#ffffff;verticalAlign=top;aspect=fixed;imageAspect=0;image=data:image/png,iVBORw0KGgoAAAANSUhEUgAAAHkAAAAyCAYAAAB4ZXTmAAAORUlEQVR4Ae2aCVAUd/bHu+fgEgQ0kSDGoCiGELzQqKViPP7mIEa8si7qGo9EookaN8aDxY1H4sV6Rtxko8HgFU+8YkrEBKPxwNJoPMvb8i4RSuE/zH9m9rPVMz1DzzjM4f4jSGEVNd3tr3/93vu+4/tet0D1vyppgX+bjOjP7+d/D61DqJIaVitls8D/3ThdDbLNGlX4oDqSqzC4VtWqQbZaogr/VoNchcG1qlYNstUSVfi3GuQqDK5VtWqQrZaowr/VIFdhcK2qPVUgG4sukb9nOxtWryAzay3Zuflcum+w6uLlbxHHV6WSkr4PvZd3PtHl+nwWj0lj7e8PHvuxlR/k4kvkfj2R/u0bEuIfTN3oZrRLSKBNXH2CNSKibx2aJU0g67dCTB6awXgjh6mJzek4ahUnH3p4UwUue3DsK5JbvMzbM3K5ZfRekMoLsqmAI99+TLfIADQhcfSbsoJfrpbYaVhyeSefvxWJjyggBkQzMPMMpXYrHj0pOfFP+jSqR7c5h3n82Hh03z/6iunmdj5qXouGvTP4rdi7p1VKkE139jKnVxT+oorgFil8f05Xvla648xKCEYlCIh+sYzNLSx3rf7sv+hVL4DolB3c8zTsy93tyf+H8eIyksK1RPT8mrNe1JhKB7L+4hqGvOiPKKgIih/P7rvu0dDt/4QYjYAgiPg2TyPfmQGKfmZ8swA0Dd5jR/l+8OSR8+qJJm6s7Ee42p+4j3PxVI1KBbLxyhoGRvkiCiKaev3IuuJhATIcI62ZFkEQENQRDN3mWGgL+XFkNFoxkC4LL+Lhrl6Z/4ktNp4lPaEGorYRw7fd9YiHVB6Qiw8xvb2cdjWRDN1yzyMFLMbVsXnQM+aULQhq6r3/o11t1u2fQJyPiCq0DysLnhgcf9CDTNz9rhchKhFtzDj2elCfKwnID8kbF2smUIKgIqzfSm66z9IKI+r5eXQUGimSBQFth3QuWcPVdIWM14LN6T+k90qeeowlrQtW0idUhSAG0XWR+8xUKUAuOZBKCz/RDJDo15ppx73tfUvZNaIeaivITVM5Im9hODyJl7UiguhHl0XXPMoOxWey+WJ4Iq80eZ6w2rUJb9CUTr1GkLYoi/Urv+CdNsPYZE/0FQ7nyWEpV3YvYGRiPFHhdYiIS2L2/iL0Z7bx5fx5zJsn/c1nyY5zzkuL6SoLXrWUNW3Mpxxw01JUPMjG8yzoHIRoBkhF7d5Z3PEqiiWjPuC7pBryHgLaVtM4aY7kUvZ82MACviaG8QecMTIlKCbu7Z5A6xCVhcQ17kv61oMcO7idpaM7ES45iyCgeWkCB91tpdxWeVx6nu9HtSJULSL6RZO8eBe/rB1J64TPWDY62paNBNGHdrPKARk9v45/0bJWHcnIXBfdB1T8lyEluaOIMjNjiTTVZ8SPHhQZpdGkY0M+k+Nk4iWI+Ccus6Rl/V7GNNJYMkRgEivc0dHiXEZFaWRn8aHL4huKyC/ldEYiYSoR39e/4q6jDJ6c606QkVQfrSggiAG0mXoUMzzG88zqGEn9CLVZVjOB1Dblb9Z05GTvwsy3qSHtI6hpMGqPHQdxXF7BkVzAmj9ZCZOAptEY8tykHkcFpHPTzaV097dEmSBoiBl/wDyqNJ6aTiutpU5rGo9lr5voK81Job7asl7aJ3rcL/bGM55ldvsa1E/Jsb/uTCjHa6abbBoWLfMOSddR7LY1AcV8lyS1jdZny7ZwIa9+71gay8Ghbfl3TriocBULcsFKeptTo8UjXxi523vjAfdX9yVUJRtI9RxDtloK5oNVfahp9naJjM3lopWMOQIgn5es7EWAvF6KJjHoFdL2FSlWGznzeQc6z3VPdhQ3SW7Itay+hFsdSAwgIV2ZigtZluhbFsWCmrrDtuOq7BsvzqWD7MBiQA+W37d/ovKsQkEu2fouYTZwavHn9TbXVsro5riQ7/uXZQNV2CA2meeVBk5Oi0drjg4R37eWo4TL2ab6vDE0spYO+T5N3R5knCpLL4ZzOew+5yJsnG1csJnB9cpSsSokiczbCuJhOMFn8dZyIyCoavHOWjfSFi3nLV85e7lJ7RUIsoETn7WUQRAQtB1It/U9zizl/Jrp1rf0VGSDBh/kyBGgIF2CSGDfNS4jw7y7/jBpzSXWWpY2zVO06GFsuqEAxbko5Vw1cGJ6a/xsGUJFnQEb7B3u/nf0qmktNwJiYCLfuGOfuvX8OUS+Rx3B8B/KHNFRkAoEWcfWIWHyAENA9exfyHZNEh1lB4ycm9sBf9mAYkA7ZlpoNaBjx7BweX+RkP7r3IMMPNw3iZYBZQY3kyBBRUinWRzzWj6gZBcpL5RFsaCqw4CN9q9GircOIdya0aTR7KvzueLOp3RbGFxH6gKkyA8leUP5wlUgyCWs7WdtnQQ0TT5hvwui4QRheJjDyCgLexZEDQ3f/0Exzy0lJ6W+3DuLBPZZ7RHIoOf0kjcJUzsALfrTIvWAhQ07Fcb5xQebB5WVJKnOh/RhlR3Lf8i2oRG2Hl8QtLSafsp5f6x8hG4bQ5+zglybgZsqJcg6tr5bxxbJmtiJHPKq1Bk4k55AkBzF6ohk1inrHHoOfhoj952e1WSbDU0F7JkQb9vbEs0Cqlp9WeXVyEzKJkoARXw7L+SaIkpNd1fR9xkZLCkqNS8xwZMmXLeJgbXk+9SRjMqtlOnayLlZ7Ww1WR3xHjvLl9Nmf+uB8eI/ebO2RUlR+wIDvr+u6GmlVSZuLemGr+wEPgnzyk+BptscPXzRntkbr7A6OdLS01prtLoeI3Z5IaThGFOaKwiVoKbhRz8pnmPg98/b2MqN5EzqyJG4wMuqPjxcQU9r26htyxdny28dKjBdg+HYFJrLUyRB25aZ58oXtEw7oPQE6Z1DLVlADCR+Yp49kZEXl+4ZRaTctricUj1cRb8Xh7PDsWd5kMcnTRVETFWLARvLT4t2Mkonuo0MsEab2VF8SJh32eaMpnvbmNI5yuaI5rn94Gw8GQeZLv+DjnILpXpmEJsdZVcIU6EgY7zI4m41LWxW9KH19JO4zdimm2wZ8ZLF+8VAmn6wmWvl+UbRKvrIDFRVK5mN5RjCeHIarXzr8u4We0Ik2eleVu+yHlzbgim/OUhouM/ls1cpciZDyWr6BCpruy+vf3VPNv99floyj0lJZe2f9MKhZ6ZUDx7w65dzyHbxlqas3RPx6/ol1xUlQIGv+bBiQZac/WAa8TKbVYf3JcuVtPpLrE9pZq6VojaC//n7bm65UA7TTb5+QyZ3LlKabusQ87gyuOsizjuAZchPJc4cMSK+8VOxe3dSepTZnWqjFrWEv7aQ3x2JY+keRjVQMGtBS1zqEQwYuLx1IZn7s3lf0T8L2lZMP/mQcysG0PadTFy9Ti9Y9pZlcCPNuGeedUnUKhxkKOVkxttEmNO2ipA2H7P5gmNK1HF937/4sH0YWlFDrWb9mZ17w6ViFm82cWtZD4KluiyG0G/No5FqnkYt7IyPuRUJpvW47VyzBWsJRz5rYzamWKM5n/5kP6AwHE2jmZwyBW0cqfm2G+VgKmLDgDJyKdVcVXAMXRJ78uGqC5QqplZmcif6UCfyeerEjWS7HYl0jE09eWMamUml6NeBuW7KXCUAWVKglIvZqSQ2DkIliqj8w2nxWn+GpqQwLLknr8Y+i4+mJg07/YUpKw5y2yHaHE1gd160lSHmwb+GqNE/O/n8VnoX3YjQxh3o1jGWMD81QVGd6DfsPQZ1f5FgtZrgJknM2H3LVktt+xflMDrGz1JutG2ckp/SI9NpG2RN2SKqoBgGLTtlacWKshlctyzSRVUNGr6Rxg/X3ShoPMvMthKhUxHac7nbd++VBGTZbMYCTv34DeO71kVbozFvfjCZqbMWsmxDHqfueMFqbShIBwaOz7BEozZ2Eocdgw0DR7OWkitPmAz3TpGTtYCpEz8ldfp8vt15ivsuSkJp/mSaakV8Wkzh2CN7S883cf/4eualTWLK3Ex+uqzMUiYKj69jzuQJTJm9lHW/Xlcwbzsl7E5MVxbRJUBE1Mbw11/KIRqKOyoZyLfIndqd6Lj+LD50/9HIUQju1eGDXEZHaxE1Tfjrvsd1FudP1OWNJdq3AcO2ePa9lfNdvLlq5Hx6Av6imnoD1+Myq8vbVhqQTff2k570Mi0GZJBf6CJ0yrOH/hIHDl0tt04X5o4l1lfNs71W8NhjaIdnG65uYkSzSLrNOvjkvuEuyWNsEw2a55NZ66EilQLkoiMZ9G/yDNF9Z5C1KZttO/dw8Mxtz0eIutMsf/9d5rscLhdzZHZnamtfYPCm2/9lljByaeM43kjoxd82X/BcTgcn8f5Uz4mZ7Qmq0ZSxOQUe61DBIBdzMnMoTWsqxnrW6ZKowj8sls5/+ogZ32wj/+pDJ0oVcylnHoM7duWTnR4AZ7rDrvGtCI14m6+8+TrdCRq62ze457QGO1n8/3SpcO8k4mtFM3DlBffzBMUzKw5k42U2fvQKz4XWJbJBfZ4L9kUtjyCts2K7X1FLzbrRtGzfme6vv0bXjvFEhwUSEpvMl4ftJv4K9ZwcmgrYP7cH0bHJfHtaSYKcrK00l0zc3TuNrk3a8XH2Fa8AllSoOJBNBZzYf5y7tmgw8OD67+RtXsacicPp1ellIgKt31sp3+8KiCp/wlsmMXbJHq4+Fo8ycmffAgZ368HkHY4z70qDrEUQ0x1+npNM996pTuYHnslacSB7Ip++gAuHd7EhM4P5c+fwj4VLydy4m6NOU7cnGzqsMdzi2G/lkzWH1RVzarzOsUOXPXxN6lzEyg2yc5mrr3ppgWqQvTTY07i8GuSnETUvZa4G2UuDPY3Lq0F+GlHzUuZqkL002NO4vBrkpxE1L2WuBtlLgz2Ny/8DhUEnrCcNGc8AAAAASUVORK5CYII=;" vertex="1" parent="1">
          <mxGeometry x="-1730.96" y="247.5" width="60.75" height="25.1" as="geometry" />
        </mxCell>
        <mxCell id="wW4yl2Ik6cUgS3KZOihZ-11" value="" style="shape=image;verticalLabelPosition=bottom;labelBackgroundColor=#ffffff;verticalAlign=top;aspect=fixed;imageAspect=0;image=data:image/png,iVBORw0KGgoAAAANSUhEUgAAAHsAAAAmCAYAAADk1+RWAAAOjUlEQVR4Ae2aCVAUV/7Hu+cAQZDDRIIYg6IYQjzRqKViPNYcxohXlqCu8UgkmhjjxnhFNx7Bi/U+NtlgMHjFE1GjJWLEaERwJRov/opXeRcIUSiYmpn6/Kvn7BmGYQDRql2omuJ193u/93u/7+/uFqj9+6+UwJ9//slvGZms2p7Dsq2XDT/hv/KktYcySCDn/y5z4Ej2kwFbV3iVrMN72b5pPYlJW0hOy+LqQ20VRV3ImY0ziI0/hqaKFP63lmnIWvkZM7f8waNyDq7VasnM+g9Je89V0bKLrpL23VSiuzTF18OHhqGt6RwZSceWjfFRiYjuDWgdNYWk3wvQl8OE/W3d7VRm921Dt/EbOffY/mntdbkSeJTNtzFtefXdeaTd1TmcVlhYyImMTBJ2X8B1N67P59QPn9M72BOVb0uGzFrPrzeKbTYovrafb94Jxk0UED1DGZZ4kVKbGWUvis/+i0HNGtF7UWa5Glp2Ve0diwT0d9j7aRv8mw5kze9FltvyQV5engFwl8DW3z/KogEheIgKfNrG8lNOiZyW7bjkDAsifVAIAmKdcCamFdg+l11pLv2bAY08CY3dR56rbkC2vnZokoAul4SoQNRB/fnukuMgmJ+fX7Fla3I3M/JlD0RBgXfEZA49qBiVkuNfEKYSEAQR9zYzyXK0f+ERJrf2RNXkQ/aVrw+1eLooAf3tDQwJVOLR8nPKsy+nlq27vplhIe6Igoiq0RCSrjuOC2X40WYzs7UaQRAQlEGM2mMfiAs4MC4UtehFz+W5uEi1zDa1N+QS0HEpPpK6oppmY/bgyCbLB7voJHO7mNyxKphRu/NcTrighF3DnzO4ckFQ0uijAzaxu+T4FFq6iSj8BrEhX85w7bg6EtA/+JEBvgpEdRiTjpaN3+WA/Zj0SeGGREsQFAQM2cCdir23jE8NRyaEoJIsWxBQd43nqtl89ddZ84aPISz4DtxALdYysVV7mM+GQX4oBBHvXivINcvcRNch2MUnZtC2jmgASqzTgTlnKls7l3JwbCOUZrBbzeCUiYQ2cxqvqkUEsQ49V9x0zVsUXSQ5bgx9X2vBiwH1qR/YhFbdBzB25gqStm0g7r2OjN5pWxlUW26VJlDK9UPLGNc3gpDABgS1jGLh8UI0F/ewaukSliyRfktZvS+nBsOWnhvLXsddqobUYXx5wrYWKgu27jLLengjGoBSUH9gEvcrZdWSlB7xY1RdEw0Bdfs5nDNoWSmHP2liVAJVGJNPOMrcbKWszzvElA6+xuzevTmD41PIyM5g79oJdA9UG/dQvcKUjIpp2VJ+glell/lpfHv8lCJinVBiVh7k1y3j6BD5NQkTQi0eThDd6LygJsEGzW+TedmQHCsJHpeGvG4qA3Zx2nhCDJOl5KoxYw+U9f0VikmbxfSWpgRNEPHom2B015qjfNZMZfQYXlGsrzALLyJtfAgq0RgO3Hqu5LZM8UovrKFvgALR/U2+fVAhVzUzoeQsa6Iao5Z4FD3pOPu0UcC6yyzoFkzjIKUxUZWMR92Kr8wurma4gYJE3q1r9MrKJuM5LDNuO7Dz2fxXc2IloGr2Gemyya7yp7+zlj4exg0FQUXY5BOGFqju/Fzaq43AqZpP5GhFxliaSmxjq7BUoZP41YYfHZcWdqFu41hSbe67ymk15+nvsHN0qCm3keQ1nkOWwqOIH6OkktV4Xil3McizojNXkyU0R5nY3GhQgrod/zhrDcG2YOdvYKCvwqSJSl4ad8gmi3aVj4ebBuOnMB1S8QIjU4zx9NHGQdQzWam66+IyCUQZ+sUbGOBpVhrJcrx5beYxCmUTdRe/oWsPF2jJ1jyZoZ6bSYMJVJrOKXoSGS930QUk9HW3WrWgpOHovdR4ZqHLZXFXk1cVPem37qHluDZgF6d8QIAFJH/e32ZRU8uCigcF/BRt9Q6KgOHsNHTqtZybE4HaoOki7u+sswHNIV1NusXtG2p2qSunaki/NeetSqjNIfVQDlb9dUjpyd/M38WIRlavo/CNIvGeLMZoz/J1hDmUCQgKf97bIlfTJ8+SkWIh696ReiOSEqpp9dUpy0YysLWc/bqdCQwpvnQl3lIvWeZXONDf/YH+Mu/Q5ONUkzbLkjNBxGvwZhe0XEPmzDaG7NIMtvRfdA9l9M7brmXyFXJclQlazs7tQB2Tl5LK0wZDt9sq78MfGVDP6pVEr758X/lMtwrMlbDtfV8T2EqCxvxsoSEDu4SUkQGmRoiA4vm/kSxP5SxLnA105CzuiodJCKJnZ+Yb03CkRsu+0YEm+iK+0VtdABt4fIxp7TxtYp8EuMK3OwuyK82gM+Zdf1Z8kNiXrFYtKBowdIfti8ailJEEmr2k1DZ+fSnXZYbv+maVnVnC7hENTHJW4Bez3UJABnYxW4aYSy4BVYsvOF7ZZOJxKuNCTMmBqKLpRz9jTbhLSY1tbKq9RbwGbXINbEBzYTVvByjtABfxaDuDE88A70e7hlvDneRpfAex0XpQSUPZMyrI0meQ3Gn7uedrsL624Gkwqj2jXrCAXX/YTstDGdglpHxg1ggBVfhUTlYqEGq5GB+Jt8mqlUExbJXHMDRkfBlmqjldjNkWNvXkH55ChLfVLRrcusKfwRufdg9O8lByIEXceyznpsxq9Q82Mvg5c6IrIDzVPkAJO4f5m8BWEjw+zSJFGdg6chZ0tsRsZdCH7K9EOaPL/Rdv1zceUFS/xNCfbtnFVD13V/e2xF+3yCVO3Jqee6czybXZX8f1TTEES903SzmjpNHYg9ZkzXKsGhxos5nVRpZ4CUqafvqLjActf3zT0RLKJF6VweNIszlLDfLHY9b3N5d8ajrFXbJsJgMbtNmzaGMWproT83PsmquWZXaD0rPE95B6slJ55EXE1HTbZMU0vfTweIJNpYrqlSmU3/R6zMYhLzNmn32h8oj0L1pZFEZKjPyH7rDpEtlx9uQvS3Yw1F9mtYIbkUuuWRRbn7eHWT1CbHgMGJFMFVpTVeNdf41/djMpo+I5hu+yytAGbHS5rOxdzxgbRTc6zD1XcUmjv8Pusa8YNVn0otXHu7hZno4UbmSQr9EyFf4x7LDyYXsw3TnmtHen4Qe7y369kpfEQD+zsNW0nfV7xTzaUnfhSsvDa5e4UejgIMWbGOQl9y7uvPltnonmQ35ZvYRpUdbSU+oN9E+UQs0jflu1iOTKvVFygVe7KbJyVazTi1W3rPHFFmwpvGfMJMLUyFAGDiZJNtmOLGiusi22tSFOi+og/vKPQ9y10i4zHf0dvnvLlASqOxF3yYEwpVUlKYyU2qA+vVhx2W6ONosZplas6B7B7Eq/pCnLlu2dUk4v7E59pYg68A2W/2GXpZYeZnwTWSYuqGk54xRatFxLWU7i8WQ+ktXfgro9c889Jmf9UDq9l4irnwTY8lSJq/wE3jHgJ+LWeT5yEZcBG0o5t+ZdggzuXIFvx8/ZdcU+5S3h1rF/80mXANSiCv/W0SxMu+1CtqnnbkI/fKQkTvRlyGbbcsV8JP3N5fRwk5oCCnw6TGLvTWumWHzqazpKhxHr0ubLXxyGCzOdKv3XnrZ+eGEAMsvOcxSyfag1kTWUgT5h9Ozbn082XqE0dzFdTS1hQ24hutEg+EUatBzHXpuEtUrcVbhIk/4ZzaR3G2Idui6Wd/Qo77OkUnKTZ9C3uTcKUUThEUjbN6IZFRvL6Jj+vB7+PG6qejTt/jdmrc/gnp3xOeWoMIWRhpcDKkImHHH42bDmyASa+TWna+9uhAfUQekdQvcho/lweB9e9lGi9GlB1LwKvIhTJpw9LCR1QpipYaKmY9ylMkpcemounSyVgYjCO4zhCeeNuUNhMiMaWi1fVNSl6Vsz+flWZYTkjD9nz3Rcmt/JkGQr/Pqzzi5kOLBsGTFdPucPfM/kXg1R123O2x9PZ/aC5SRsT+f8/aqml1rOzOuIpyigDp9GptVoLRtrTyexNu2+MenR5nE+NYlls6fy5Yy5LP1hP+cfOosVFjJVH5RmMb2VGtGtLbOyHTCInodntrFk5jRmLU7kl2tyz6en4MxWFk2fwqyFa9n62y1Zpl51llxaqb/Oip6eiKKasL//WqaPUQHYd0mb3YfQltGsPPnQknG6tLGzSY/SmBCqRlS14O/Hqqo0zjao5rOSdCaGutNk9G6H33JVk3qNLdddjifSQ0TZaBjbHISMcsHW5x0nPupV2g5dQ1ZBFSxJc5UTJ2+UcYHmkxakTSTcXcnzA9bbvKM2P39m/7U32Dm2NcG9F5DhOKV4Zqw537iY9IktUKleJGaL4/cGDsEuPLWG6BbPETp4Hkk7k9mz/zAZF++5Xs+WXGDdRx+w1GnvuohTC3tQX/0SI3bee3Jew7lEnD7VXd3BpLciGfDVLsrkpE5XPvuHmrPz6eJdl1YTU8kvxzbtwC7iXOIoWtUz17Gmd7WGZokCj4Bwevz1U+Z9v4esG48dAFTE1dQljOjWiy/2uwCg/j4HJ7fHL+hdvi3n4/anKsaSe9zOcxSjnyoXld+s4CjTIvwJHbaBK07Yt4Ktu8aOT1/jBb+GBDdpzAs+7igtr/BkoJtblaKaeg1DadelB33efINe3SIIDfDCNzyGVZk2bwWcM6/P5/jifoSGx/DDBXmi43xZ7VOjBPQPjjKnVws6f57MdSdAS7OtYOvzOXv8DA8sC7Q8uvUH6bsSWDR1DAO6v0qQl8ruzZNRCUSFB4Htopi4+jA3qpRv6bh/bBkjevdj+j77nrorsGrIXDWG96Ojia7Ob3gch2r6+wJNJqvGvF89PqOjGR53kMtHFhHTZyAzdl1xKcRawXZJpvlcyTzI9sQ1LF28iH8uX0vijkOcdujSXSFoN0d7l+zfy0/q7GbLLnXkpCxlflwccdX5LdpMdnktXNlu1RrqckhZOr96fMbFsWjzKS5nn+RaJfitHNjVOmXt4mctgVqwnzUCT3H/WrCforCf9Va1YD9rBJ7i/v8P3Lo6R5zWc/0AAAAASUVORK5CYII=;" vertex="1" parent="1">
          <mxGeometry x="-1605.25" y="259" width="56.29" height="17.39" as="geometry" />
        </mxCell>
        <mxCell id="wW4yl2Ik6cUgS3KZOihZ-12" value="" style="html=1;shadow=0;dashed=0;align=center;verticalAlign=middle;shape=mxgraph.arrows2.arrow;dy=0.57;dx=16.35;notch=34.45;rounded=1;rotation=-120;fillColor=#DAD8ED;strokeColor=#DAD8ED;" vertex="1" parent="1">
          <mxGeometry x="-1558.1999999999998" y="293.49" width="95.5" height="20" as="geometry" />
        </mxCell>
        <mxCell id="wW4yl2Ik6cUgS3KZOihZ-13" value="" style="html=1;shadow=0;dashed=0;align=center;verticalAlign=middle;shape=mxgraph.arrows2.arrow;dy=0.57;dx=16.35;notch=32.61;rounded=1;rotation=-75;fillColor=#DAD8ED;strokeColor=#DAD8ED;" vertex="1" parent="1">
          <mxGeometry x="-1723.56" y="294.52" width="94.83" height="20" as="geometry" />
        </mxCell>
        <mxCell id="wW4yl2Ik6cUgS3KZOihZ-14" value="" style="shape=image;verticalLabelPosition=bottom;labelBackgroundColor=#ffffff;verticalAlign=top;aspect=fixed;imageAspect=0;image=data:image/png,iVBORw0KGgoAAAANSUhEUgAAACgAAAAjCAYAAADmOUiuAAADTUlEQVRYCe2WeUgUURzH38y6ViZlhXaYmdBJQVR0YEQWQSciWWFtFxkoItEfQUVlhWW4JWKUEVHRZQSroiVEdBFRFFEkHUZhGkUHlZIuruzKJ9Z2Z97u2iEzRH/swmPfzJv3fp/5fn+/N0/wn//Ef85HGNCoQ2EF/5mCbfVXKMqaz8ThsfQbOIaF+bf41l5HdckB7HZ7ZztQUsULt1GkwPl/YbGLurIsJseoKEpPRq08wvV75Wycmsz245sYHSEQwtsUrFP38dwTGMDo1R8AnTw5nMpQq9IJEDVtD4/avCE91B9MITFhCJZOOC+glfHbHmCygL/bZjp4X7GekZFeOIGIGEHu9RZNEGdZOtGKXz2BsCSRe9OljZvV+aWCHW/PkD7YotkXNauIV5J930+n0ksCVAeto7rVLCx9nV8AfqVy7VDdPjWGtNOf6NDmeXi2dwpWzV6VmKXnadLGzet0CeiuzWdKT5+1QqDG2XA0y0GbOZ8eg+IHVHqz4NgH6QXkZ431uwB0cjU7UVdPqMTZHATwOWvIjPfbL1B6zKSoXvLfGFPA7FDA75WsHqj6ck8glL4sOfctYFJrTSbxFr1ArJN3U2t2+foihgC21WQyRAquRM6iuEHPPvjCheWxqH57RQSjN9+lPeAVzLsIAnTzeOcEKfkFlsQcrkm7h+fZfpKj9PwUlgSyrnZujuZRSSsFAbZRbusvqSOwzrDzWkuvr9TkzWaEXECxqyjXt0dpaXO6QYBOytKj9eoUgsi5pXz0Odx0+yhFW9IYoPrzT6H34hN8Blrul1JY8c70Sg4CdHEjN0mqYEHEuK3cd4O74TKHTt2hKnuYNG5l0q4ntL4+x5rkZZx8o0ltjnwQ+qlrdtiI0xQSCLUvY+csIjXnLC9djRSnROoV7j0gxA4nIW4c2VX/ah90PSR/eh89D9VoxtiO89TpFaWFS5nxkoIKUUnz2H6p0fRDgt+CIIt/3u5oqsVRnMe2PDunbtQTUKPNtTgO7mBrXiGlF+/QKFW4f1Ez/7sENDOA0bXCgGEFjSpgdL7JOdjOg8MbWJGRQYaRtnovV3wHKJMBPbysLmZ/QQEFRlphGQ9933eTAY0aGjo/DBiqSffuhBXsnl6hT/8AJMfu3uWj4ScAAAAASUVORK5CYII=;" vertex="1" parent="1">
          <mxGeometry x="-1576.13" y="575.1099999999998" width="26.29" height="23" as="geometry" />
        </mxCell>
        <mxCell id="wW4yl2Ik6cUgS3KZOihZ-15" value="" style="html=1;shadow=0;dashed=0;align=center;verticalAlign=middle;shape=mxgraph.arrows2.arrow;dy=0.57;dx=16.35;notch=0;rounded=1;rotation=-105;fillColor=#DAD8ED;strokeColor=#DAD8ED;" vertex="1" parent="1">
          <mxGeometry x="-1520.98" y="518.1899999999999" width="117.21" height="20" as="geometry" />
        </mxCell>
        <mxCell id="wW4yl2Ik6cUgS3KZOihZ-16" value="" style="html=1;shadow=0;dashed=0;align=center;verticalAlign=middle;shape=mxgraph.arrows2.arrow;dy=0.57;dx=16.35;notch=0;rounded=1;rotation=-75;fillColor=#DAD8ED;strokeColor=#DAD8ED;" vertex="1" parent="1">
          <mxGeometry x="-1555.58" y="521.1999999999999" width="122.2" height="20" as="geometry" />
        </mxCell>
        <mxCell id="wW4yl2Ik6cUgS3KZOihZ-17" value="" style="html=1;shadow=0;dashed=0;align=center;verticalAlign=middle;shape=mxgraph.arrows2.arrow;dy=0.57;dx=16.35;notch=0;rounded=1;rotation=-135;fillColor=#DAD8ED;strokeColor=#DAD8ED;" vertex="1" parent="1">
          <mxGeometry x="-1492.07" y="517.1499999999997" width="147.69" height="20" as="geometry" />
        </mxCell>
        <mxCell id="wW4yl2Ik6cUgS3KZOihZ-18" value="" style="html=1;shadow=0;dashed=0;align=center;verticalAlign=middle;shape=mxgraph.arrows2.arrow;dy=0.57;dx=16.35;notch=0;rounded=1;rotation=-40;fillColor=#DAD8ED;strokeColor=#DAD8ED;" vertex="1" parent="1">
          <mxGeometry x="-1641.32" y="523.1999999999999" width="176.94" height="20" as="geometry" />
        </mxCell>
        <mxCell id="wW4yl2Ik6cUgS3KZOihZ-19" value="" style="html=1;shadow=0;dashed=0;align=center;verticalAlign=middle;shape=mxgraph.arrows2.arrow;dy=0.57;dx=16.35;notch=0;rounded=1;rotation=-165;fillColor=#DAD8ED;strokeColor=#DAD8ED;" vertex="1" parent="1">
          <mxGeometry x="-1664.89" y="496.7099999999999" width="226.44" height="20" as="geometry" />
        </mxCell>
        <mxCell id="wW4yl2Ik6cUgS3KZOihZ-20" value="" style="html=1;shadow=0;dashed=0;align=center;verticalAlign=middle;shape=mxgraph.arrows2.arrow;dy=0.57;dx=16.35;notch=0;rounded=1;rotation=-105;fillColor=#DAD8ED;strokeColor=#DAD8ED;" vertex="1" parent="1">
          <mxGeometry x="-1685.85" y="497.15" width="67" height="20" as="geometry" />
        </mxCell>
        <mxCell id="wW4yl2Ik6cUgS3KZOihZ-21" value="" style="html=1;shadow=0;dashed=0;align=center;verticalAlign=middle;shape=mxgraph.arrows2.arrow;dy=0.57;dx=16.35;notch=0;rounded=1;rotation=-140;fillColor=#DAD8ED;strokeColor=#DAD8ED;" vertex="1" parent="1">
          <mxGeometry x="-1672.83" y="496.05999999999983" width="107.5" height="20" as="geometry" />
        </mxCell>
        <mxCell id="wW4yl2Ik6cUgS3KZOihZ-22" value="" style="html=1;shadow=0;dashed=0;align=center;verticalAlign=middle;shape=mxgraph.arrows2.arrow;dy=0.57;dx=16.35;notch=0;rounded=1;rotation=-45;fillColor=#DAD8ED;strokeColor=#DAD8ED;" vertex="1" parent="1">
          <mxGeometry x="-1740.58" y="499.16999999999996" width="95.7" height="20" as="geometry" />
        </mxCell>
        <mxCell id="wW4yl2Ik6cUgS3KZOihZ-23" value="" style="rounded=1;whiteSpace=wrap;html=1;arcSize=13;strokeColor=#d6b656;fillColor=#FEFFEB;" vertex="1" parent="1">
          <mxGeometry x="-2132.42" y="341" width="130" height="132.67" as="geometry" />
        </mxCell>
        <mxCell id="wW4yl2Ik6cUgS3KZOihZ-24" value="" style="ellipse;whiteSpace=wrap;html=1;aspect=fixed;strokeColor=#d6b656;fillColor=#FF9933;" vertex="1" parent="1">
          <mxGeometry x="-2123" y="365" width="20" height="20" as="geometry" />
        </mxCell>
        <mxCell id="wW4yl2Ik6cUgS3KZOihZ-25" value="" style="ellipse;whiteSpace=wrap;html=1;aspect=fixed;strokeColor=#d6b656;fillColor=#FF9933;" vertex="1" parent="1">
          <mxGeometry x="-2093" y="365" width="20" height="20" as="geometry" />
        </mxCell>
        <mxCell id="wW4yl2Ik6cUgS3KZOihZ-26" value="" style="ellipse;whiteSpace=wrap;html=1;aspect=fixed;strokeColor=#d6b656;fillColor=#FF9933;" vertex="1" parent="1">
          <mxGeometry x="-2063" y="365" width="20" height="20" as="geometry" />
        </mxCell>
        <mxCell id="wW4yl2Ik6cUgS3KZOihZ-27" value="" style="ellipse;whiteSpace=wrap;html=1;aspect=fixed;strokeColor=#d6b656;fillColor=#FF9933;" vertex="1" parent="1">
          <mxGeometry x="-2032.9999999999998" y="365" width="20" height="20" as="geometry" />
        </mxCell>
        <mxCell id="wW4yl2Ik6cUgS3KZOihZ-28" value="" style="ellipse;whiteSpace=wrap;html=1;aspect=fixed;strokeColor=#d6b656;fillColor=#FF9933;" vertex="1" parent="1">
          <mxGeometry x="-2123" y="405" width="20" height="20" as="geometry" />
        </mxCell>
        <mxCell id="wW4yl2Ik6cUgS3KZOihZ-29" value="" style="ellipse;whiteSpace=wrap;html=1;aspect=fixed;strokeColor=#d6b656;fillColor=#FF9933;" vertex="1" parent="1">
          <mxGeometry x="-2093" y="405" width="20" height="20" as="geometry" />
        </mxCell>
        <mxCell id="wW4yl2Ik6cUgS3KZOihZ-30" value="" style="ellipse;whiteSpace=wrap;html=1;aspect=fixed;strokeColor=#d6b656;fillColor=#FF9933;" vertex="1" parent="1">
          <mxGeometry x="-2063" y="405" width="20" height="20" as="geometry" />
        </mxCell>
        <mxCell id="wW4yl2Ik6cUgS3KZOihZ-31" value="" style="ellipse;whiteSpace=wrap;html=1;aspect=fixed;strokeColor=#d6b656;fillColor=#FF9933;" vertex="1" parent="1">
          <mxGeometry x="-2032.9999999999998" y="405" width="20" height="20" as="geometry" />
        </mxCell>
        <mxCell id="wW4yl2Ik6cUgS3KZOihZ-32" value="" style="ellipse;whiteSpace=wrap;html=1;aspect=fixed;strokeColor=#d6b656;fillColor=#FF9933;" vertex="1" parent="1">
          <mxGeometry x="-2123" y="444.9999999999999" width="20" height="20" as="geometry" />
        </mxCell>
        <mxCell id="wW4yl2Ik6cUgS3KZOihZ-33" value="" style="ellipse;whiteSpace=wrap;html=1;aspect=fixed;strokeColor=#d6b656;fillColor=#FF9933;" vertex="1" parent="1">
          <mxGeometry x="-2093" y="444.9999999999999" width="20" height="20" as="geometry" />
        </mxCell>
        <mxCell id="wW4yl2Ik6cUgS3KZOihZ-34" value="" style="ellipse;whiteSpace=wrap;html=1;aspect=fixed;strokeColor=#d6b656;fillColor=#FF9933;" vertex="1" parent="1">
          <mxGeometry x="-2063" y="444.9999999999999" width="20" height="20" as="geometry" />
        </mxCell>
        <mxCell id="wW4yl2Ik6cUgS3KZOihZ-35" value="" style="ellipse;whiteSpace=wrap;html=1;aspect=fixed;strokeColor=#d6b656;fillColor=#FF9933;" vertex="1" parent="1">
          <mxGeometry x="-2032.9999999999998" y="444.9999999999999" width="20" height="20" as="geometry" />
        </mxCell>
        <mxCell id="wW4yl2Ik6cUgS3KZOihZ-36" value="" style="endArrow=none;html=1;entryX=0.5;entryY=1;entryDx=0;entryDy=0;exitX=0.5;exitY=0;exitDx=0;exitDy=0;strokeColor=#AEC8F5;" edge="1" parent="1" source="wW4yl2Ik6cUgS3KZOihZ-28" target="wW4yl2Ik6cUgS3KZOihZ-27">
          <mxGeometry width="50" height="50" relative="1" as="geometry">
            <mxPoint x="-2053" y="474.9999999999999" as="sourcePoint" />
            <mxPoint x="-2003" y="424.9999999999999" as="targetPoint" />
          </mxGeometry>
        </mxCell>
        <mxCell id="wW4yl2Ik6cUgS3KZOihZ-37" value="" style="endArrow=none;html=1;strokeColor=#AEC8F5;" edge="1" parent="1">
          <mxGeometry width="50" height="50" relative="1" as="geometry">
            <mxPoint x="-2022.9999999999998" y="405" as="sourcePoint" />
            <mxPoint x="-2022.9999999999998" y="385" as="targetPoint" />
          </mxGeometry>
        </mxCell>
        <mxCell id="wW4yl2Ik6cUgS3KZOihZ-38" value="" style="endArrow=none;html=1;entryX=0.5;entryY=1;entryDx=0;entryDy=0;exitX=0.5;exitY=0;exitDx=0;exitDy=0;strokeColor=#AEC8F5;" edge="1" parent="1" source="wW4yl2Ik6cUgS3KZOihZ-30" target="wW4yl2Ik6cUgS3KZOihZ-27">
          <mxGeometry width="50" height="50" relative="1" as="geometry">
            <mxPoint x="-2053" y="474.9999999999999" as="sourcePoint" />
            <mxPoint x="-2003" y="424.9999999999999" as="targetPoint" />
          </mxGeometry>
        </mxCell>
        <mxCell id="wW4yl2Ik6cUgS3KZOihZ-39" value="" style="endArrow=none;html=1;entryX=0.5;entryY=1;entryDx=0;entryDy=0;exitX=0.5;exitY=0;exitDx=0;exitDy=0;strokeColor=#AEC8F5;" edge="1" parent="1" source="wW4yl2Ik6cUgS3KZOihZ-29" target="wW4yl2Ik6cUgS3KZOihZ-27">
          <mxGeometry width="50" height="50" relative="1" as="geometry">
            <mxPoint x="-2053" y="474.9999999999999" as="sourcePoint" />
            <mxPoint x="-2003" y="424.9999999999999" as="targetPoint" />
          </mxGeometry>
        </mxCell>
        <mxCell id="wW4yl2Ik6cUgS3KZOihZ-40" value="" style="endArrow=none;html=1;entryX=0.5;entryY=1;entryDx=0;entryDy=0;exitX=0.5;exitY=0;exitDx=0;exitDy=0;strokeColor=#AEC8F5;" edge="1" parent="1" source="wW4yl2Ik6cUgS3KZOihZ-31" target="wW4yl2Ik6cUgS3KZOihZ-26">
          <mxGeometry width="50" height="50" relative="1" as="geometry">
            <mxPoint x="-2053" y="474.9999999999999" as="sourcePoint" />
            <mxPoint x="-2003" y="424.9999999999999" as="targetPoint" />
          </mxGeometry>
        </mxCell>
        <mxCell id="wW4yl2Ik6cUgS3KZOihZ-41" value="" style="endArrow=none;html=1;entryX=0.5;entryY=1;entryDx=0;entryDy=0;strokeColor=#AEC8F5;" edge="1" parent="1" target="wW4yl2Ik6cUgS3KZOihZ-26">
          <mxGeometry width="50" height="50" relative="1" as="geometry">
            <mxPoint x="-2053" y="405" as="sourcePoint" />
            <mxPoint x="-2003" y="424.9999999999999" as="targetPoint" />
          </mxGeometry>
        </mxCell>
        <mxCell id="wW4yl2Ik6cUgS3KZOihZ-42" value="" style="endArrow=none;html=1;entryX=0.5;entryY=1;entryDx=0;entryDy=0;exitX=0.5;exitY=0;exitDx=0;exitDy=0;strokeColor=#AEC8F5;" edge="1" parent="1" source="wW4yl2Ik6cUgS3KZOihZ-29" target="wW4yl2Ik6cUgS3KZOihZ-26">
          <mxGeometry width="50" height="50" relative="1" as="geometry">
            <mxPoint x="-2053" y="474.9999999999999" as="sourcePoint" />
            <mxPoint x="-2003" y="424.9999999999999" as="targetPoint" />
          </mxGeometry>
        </mxCell>
        <mxCell id="wW4yl2Ik6cUgS3KZOihZ-43" value="" style="endArrow=none;html=1;entryX=0.5;entryY=1;entryDx=0;entryDy=0;exitX=0.5;exitY=0;exitDx=0;exitDy=0;strokeColor=#AEC8F5;" edge="1" parent="1" source="wW4yl2Ik6cUgS3KZOihZ-28" target="wW4yl2Ik6cUgS3KZOihZ-26">
          <mxGeometry width="50" height="50" relative="1" as="geometry">
            <mxPoint x="-2053" y="474.9999999999999" as="sourcePoint" />
            <mxPoint x="-2003" y="424.9999999999999" as="targetPoint" />
          </mxGeometry>
        </mxCell>
        <mxCell id="wW4yl2Ik6cUgS3KZOihZ-44" value="" style="endArrow=none;html=1;entryX=0.5;entryY=1;entryDx=0;entryDy=0;exitX=0.5;exitY=0;exitDx=0;exitDy=0;strokeColor=#AEC8F5;" edge="1" parent="1" source="wW4yl2Ik6cUgS3KZOihZ-29" target="wW4yl2Ik6cUgS3KZOihZ-25">
          <mxGeometry width="50" height="50" relative="1" as="geometry">
            <mxPoint x="-2053" y="474.9999999999999" as="sourcePoint" />
            <mxPoint x="-2003" y="424.9999999999999" as="targetPoint" />
          </mxGeometry>
        </mxCell>
        <mxCell id="wW4yl2Ik6cUgS3KZOihZ-45" value="" style="endArrow=none;html=1;entryX=0.5;entryY=1;entryDx=0;entryDy=0;strokeColor=#AEC8F5;" edge="1" parent="1" target="wW4yl2Ik6cUgS3KZOihZ-25">
          <mxGeometry width="50" height="50" relative="1" as="geometry">
            <mxPoint x="-2113" y="405" as="sourcePoint" />
            <mxPoint x="-2003" y="424.9999999999999" as="targetPoint" />
          </mxGeometry>
        </mxCell>
        <mxCell id="wW4yl2Ik6cUgS3KZOihZ-46" value="" style="endArrow=none;html=1;entryX=0.5;entryY=1;entryDx=0;entryDy=0;exitX=0.5;exitY=0;exitDx=0;exitDy=0;strokeColor=#AEC8F5;" edge="1" parent="1" source="wW4yl2Ik6cUgS3KZOihZ-30" target="wW4yl2Ik6cUgS3KZOihZ-25">
          <mxGeometry width="50" height="50" relative="1" as="geometry">
            <mxPoint x="-2053" y="474.9999999999999" as="sourcePoint" />
            <mxPoint x="-2003" y="424.9999999999999" as="targetPoint" />
          </mxGeometry>
        </mxCell>
        <mxCell id="wW4yl2Ik6cUgS3KZOihZ-47" value="" style="endArrow=none;html=1;exitX=0.5;exitY=0;exitDx=0;exitDy=0;strokeColor=#AEC8F5;" edge="1" parent="1" source="wW4yl2Ik6cUgS3KZOihZ-31">
          <mxGeometry width="50" height="50" relative="1" as="geometry">
            <mxPoint x="-2053" y="474.9999999999999" as="sourcePoint" />
            <mxPoint x="-2083" y="385" as="targetPoint" />
          </mxGeometry>
        </mxCell>
        <mxCell id="wW4yl2Ik6cUgS3KZOihZ-48" value="" style="endArrow=none;html=1;entryX=0.5;entryY=1;entryDx=0;entryDy=0;exitX=0.5;exitY=0;exitDx=0;exitDy=0;strokeColor=#AEC8F5;" edge="1" parent="1" source="wW4yl2Ik6cUgS3KZOihZ-28" target="wW4yl2Ik6cUgS3KZOihZ-24">
          <mxGeometry width="50" height="50" relative="1" as="geometry">
            <mxPoint x="-2053" y="474.9999999999999" as="sourcePoint" />
            <mxPoint x="-2003" y="424.9999999999999" as="targetPoint" />
          </mxGeometry>
        </mxCell>
        <mxCell id="wW4yl2Ik6cUgS3KZOihZ-49" value="" style="endArrow=none;html=1;exitX=0.5;exitY=0;exitDx=0;exitDy=0;strokeColor=#AEC8F5;" edge="1" parent="1" source="wW4yl2Ik6cUgS3KZOihZ-29">
          <mxGeometry width="50" height="50" relative="1" as="geometry">
            <mxPoint x="-2053" y="474.9999999999999" as="sourcePoint" />
            <mxPoint x="-2113" y="385" as="targetPoint" />
          </mxGeometry>
        </mxCell>
        <mxCell id="wW4yl2Ik6cUgS3KZOihZ-50" value="" style="endArrow=none;html=1;entryX=0.5;entryY=1;entryDx=0;entryDy=0;exitX=0.5;exitY=0;exitDx=0;exitDy=0;strokeColor=#AEC8F5;" edge="1" parent="1" source="wW4yl2Ik6cUgS3KZOihZ-30" target="wW4yl2Ik6cUgS3KZOihZ-24">
          <mxGeometry width="50" height="50" relative="1" as="geometry">
            <mxPoint x="-2053" y="474.9999999999999" as="sourcePoint" />
            <mxPoint x="-2003" y="424.9999999999999" as="targetPoint" />
          </mxGeometry>
        </mxCell>
        <mxCell id="wW4yl2Ik6cUgS3KZOihZ-51" value="" style="endArrow=none;html=1;entryX=0.5;entryY=1;entryDx=0;entryDy=0;strokeColor=#AEC8F5;" edge="1" parent="1" target="wW4yl2Ik6cUgS3KZOihZ-24">
          <mxGeometry width="50" height="50" relative="1" as="geometry">
            <mxPoint x="-2022.9999999999998" y="405" as="sourcePoint" />
            <mxPoint x="-2003" y="424.9999999999999" as="targetPoint" />
          </mxGeometry>
        </mxCell>
        <mxCell id="wW4yl2Ik6cUgS3KZOihZ-52" value="" style="endArrow=none;html=1;entryX=0.5;entryY=1;entryDx=0;entryDy=0;exitX=0.5;exitY=0;exitDx=0;exitDy=0;strokeColor=#AEC8F5;" edge="1" parent="1">
          <mxGeometry width="50" height="50" relative="1" as="geometry">
            <mxPoint x="-2113.48" y="445" as="sourcePoint" />
            <mxPoint x="-2023.4799999999998" y="425" as="targetPoint" />
          </mxGeometry>
        </mxCell>
        <mxCell id="wW4yl2Ik6cUgS3KZOihZ-53" value="" style="endArrow=none;html=1;strokeColor=#AEC8F5;" edge="1" parent="1">
          <mxGeometry width="50" height="50" relative="1" as="geometry">
            <mxPoint x="-2023.4799999999998" y="445" as="sourcePoint" />
            <mxPoint x="-2023.4799999999998" y="425" as="targetPoint" />
          </mxGeometry>
        </mxCell>
        <mxCell id="wW4yl2Ik6cUgS3KZOihZ-54" value="" style="endArrow=none;html=1;entryX=0.5;entryY=1;entryDx=0;entryDy=0;exitX=0.5;exitY=0;exitDx=0;exitDy=0;strokeColor=#AEC8F5;" edge="1" parent="1">
          <mxGeometry width="50" height="50" relative="1" as="geometry">
            <mxPoint x="-2053.4799999999996" y="445" as="sourcePoint" />
            <mxPoint x="-2023.4799999999998" y="425" as="targetPoint" />
          </mxGeometry>
        </mxCell>
        <mxCell id="wW4yl2Ik6cUgS3KZOihZ-55" value="" style="endArrow=none;html=1;entryX=0.5;entryY=1;entryDx=0;entryDy=0;exitX=0.5;exitY=0;exitDx=0;exitDy=0;strokeColor=#AEC8F5;" edge="1" parent="1">
          <mxGeometry width="50" height="50" relative="1" as="geometry">
            <mxPoint x="-2083.48" y="445" as="sourcePoint" />
            <mxPoint x="-2023.4799999999998" y="425" as="targetPoint" />
          </mxGeometry>
        </mxCell>
        <mxCell id="wW4yl2Ik6cUgS3KZOihZ-56" value="" style="endArrow=none;html=1;entryX=0.5;entryY=1;entryDx=0;entryDy=0;exitX=0.5;exitY=0;exitDx=0;exitDy=0;strokeColor=#AEC8F5;" edge="1" parent="1">
          <mxGeometry width="50" height="50" relative="1" as="geometry">
            <mxPoint x="-2023.4799999999998" y="445" as="sourcePoint" />
            <mxPoint x="-2053.4799999999996" y="425" as="targetPoint" />
          </mxGeometry>
        </mxCell>
        <mxCell id="wW4yl2Ik6cUgS3KZOihZ-57" value="" style="endArrow=none;html=1;entryX=0.5;entryY=1;entryDx=0;entryDy=0;strokeColor=#AEC8F5;" edge="1" parent="1">
          <mxGeometry width="50" height="50" relative="1" as="geometry">
            <mxPoint x="-2053.4799999999996" y="445" as="sourcePoint" />
            <mxPoint x="-2053.4799999999996" y="425" as="targetPoint" />
          </mxGeometry>
        </mxCell>
        <mxCell id="wW4yl2Ik6cUgS3KZOihZ-58" value="" style="endArrow=none;html=1;entryX=0.5;entryY=1;entryDx=0;entryDy=0;exitX=0.5;exitY=0;exitDx=0;exitDy=0;strokeColor=#AEC8F5;" edge="1" parent="1">
          <mxGeometry width="50" height="50" relative="1" as="geometry">
            <mxPoint x="-2083.48" y="445" as="sourcePoint" />
            <mxPoint x="-2053.4799999999996" y="425" as="targetPoint" />
          </mxGeometry>
        </mxCell>
        <mxCell id="wW4yl2Ik6cUgS3KZOihZ-59" value="" style="endArrow=none;html=1;entryX=0.5;entryY=1;entryDx=0;entryDy=0;exitX=0.5;exitY=0;exitDx=0;exitDy=0;strokeColor=#AEC8F5;" edge="1" parent="1">
          <mxGeometry width="50" height="50" relative="1" as="geometry">
            <mxPoint x="-2113.48" y="445" as="sourcePoint" />
            <mxPoint x="-2053.4799999999996" y="425" as="targetPoint" />
          </mxGeometry>
        </mxCell>
        <mxCell id="wW4yl2Ik6cUgS3KZOihZ-60" value="" style="endArrow=none;html=1;entryX=0.5;entryY=1;entryDx=0;entryDy=0;exitX=0.5;exitY=0;exitDx=0;exitDy=0;strokeColor=#AEC8F5;" edge="1" parent="1">
          <mxGeometry width="50" height="50" relative="1" as="geometry">
            <mxPoint x="-2083.48" y="445" as="sourcePoint" />
            <mxPoint x="-2083.48" y="425" as="targetPoint" />
          </mxGeometry>
        </mxCell>
        <mxCell id="wW4yl2Ik6cUgS3KZOihZ-61" value="" style="endArrow=none;html=1;entryX=0.5;entryY=1;entryDx=0;entryDy=0;strokeColor=#AEC8F5;" edge="1" parent="1">
          <mxGeometry width="50" height="50" relative="1" as="geometry">
            <mxPoint x="-2113.48" y="445" as="sourcePoint" />
            <mxPoint x="-2083.48" y="425" as="targetPoint" />
          </mxGeometry>
        </mxCell>
        <mxCell id="wW4yl2Ik6cUgS3KZOihZ-62" value="" style="endArrow=none;html=1;entryX=0.5;entryY=1;entryDx=0;entryDy=0;exitX=0.5;exitY=0;exitDx=0;exitDy=0;strokeColor=#AEC8F5;" edge="1" parent="1">
          <mxGeometry width="50" height="50" relative="1" as="geometry">
            <mxPoint x="-2053.4799999999996" y="445" as="sourcePoint" />
            <mxPoint x="-2083.48" y="425" as="targetPoint" />
          </mxGeometry>
        </mxCell>
        <mxCell id="wW4yl2Ik6cUgS3KZOihZ-63" value="" style="endArrow=none;html=1;exitX=0.5;exitY=0;exitDx=0;exitDy=0;strokeColor=#AEC8F5;" edge="1" parent="1">
          <mxGeometry width="50" height="50" relative="1" as="geometry">
            <mxPoint x="-2023.4799999999998" y="445" as="sourcePoint" />
            <mxPoint x="-2083.48" y="425" as="targetPoint" />
          </mxGeometry>
        </mxCell>
        <mxCell id="wW4yl2Ik6cUgS3KZOihZ-64" value="" style="endArrow=none;html=1;entryX=0.5;entryY=1;entryDx=0;entryDy=0;exitX=0.5;exitY=0;exitDx=0;exitDy=0;strokeColor=#AEC8F5;" edge="1" parent="1">
          <mxGeometry width="50" height="50" relative="1" as="geometry">
            <mxPoint x="-2113.48" y="445" as="sourcePoint" />
            <mxPoint x="-2113.48" y="425" as="targetPoint" />
          </mxGeometry>
        </mxCell>
        <mxCell id="wW4yl2Ik6cUgS3KZOihZ-65" value="" style="endArrow=none;html=1;exitX=0.5;exitY=0;exitDx=0;exitDy=0;strokeColor=#AEC8F5;" edge="1" parent="1">
          <mxGeometry width="50" height="50" relative="1" as="geometry">
            <mxPoint x="-2083.48" y="445" as="sourcePoint" />
            <mxPoint x="-2113.48" y="425" as="targetPoint" />
          </mxGeometry>
        </mxCell>
        <mxCell id="wW4yl2Ik6cUgS3KZOihZ-66" value="" style="endArrow=none;html=1;entryX=0.5;entryY=1;entryDx=0;entryDy=0;exitX=0.5;exitY=0;exitDx=0;exitDy=0;strokeColor=#AEC8F5;" edge="1" parent="1">
          <mxGeometry width="50" height="50" relative="1" as="geometry">
            <mxPoint x="-2053.4799999999996" y="445" as="sourcePoint" />
            <mxPoint x="-2113.48" y="425" as="targetPoint" />
          </mxGeometry>
        </mxCell>
        <mxCell id="wW4yl2Ik6cUgS3KZOihZ-67" value="" style="endArrow=none;html=1;entryX=0.5;entryY=1;entryDx=0;entryDy=0;strokeColor=#AEC8F5;" edge="1" parent="1">
          <mxGeometry width="50" height="50" relative="1" as="geometry">
            <mxPoint x="-2023.4799999999998" y="445" as="sourcePoint" />
            <mxPoint x="-2113.48" y="425" as="targetPoint" />
          </mxGeometry>
        </mxCell>
        <mxCell id="wW4yl2Ik6cUgS3KZOihZ-68" value="eval-net" style="text;html=1;strokeColor=none;fillColor=none;align=center;verticalAlign=middle;whiteSpace=wrap;rounded=0;" vertex="1" parent="1">
          <mxGeometry x="-2100" y="343.66999999999996" width="55" height="20" as="geometry" />
        </mxCell>
        <mxCell id="wW4yl2Ik6cUgS3KZOihZ-69" value="" style="rounded=1;whiteSpace=wrap;html=1;arcSize=13;strokeColor=#666666;fillColor=#f5f5f5;fontColor=#333333;" vertex="1" parent="1">
          <mxGeometry x="-1943" y="342" width="130" height="133" as="geometry" />
        </mxCell>
        <mxCell id="wW4yl2Ik6cUgS3KZOihZ-70" value="soft update" style="text;html=1;strokeColor=none;fillColor=none;align=center;verticalAlign=middle;whiteSpace=wrap;rounded=0;" vertex="1" parent="1">
          <mxGeometry x="-2003" y="370" width="55" height="20" as="geometry" />
        </mxCell>
        <mxCell id="wW4yl2Ik6cUgS3KZOihZ-71" value="" style="ellipse;whiteSpace=wrap;html=1;aspect=fixed;strokeColor=#B9E0A5;fillColor=#B9E0A5;" vertex="1" parent="1">
          <mxGeometry x="-1933" y="365" width="20" height="20" as="geometry" />
        </mxCell>
        <mxCell id="wW4yl2Ik6cUgS3KZOihZ-72" value="" style="ellipse;whiteSpace=wrap;html=1;aspect=fixed;strokeColor=#B9E0A5;fillColor=#B9E0A5;" vertex="1" parent="1">
          <mxGeometry x="-1903" y="365" width="20" height="20" as="geometry" />
        </mxCell>
        <mxCell id="wW4yl2Ik6cUgS3KZOihZ-73" value="" style="ellipse;whiteSpace=wrap;html=1;aspect=fixed;strokeColor=#B9E0A5;fillColor=#B9E0A5;" vertex="1" parent="1">
          <mxGeometry x="-1873" y="365" width="20" height="20" as="geometry" />
        </mxCell>
        <mxCell id="wW4yl2Ik6cUgS3KZOihZ-74" value="" style="ellipse;whiteSpace=wrap;html=1;aspect=fixed;strokeColor=#B9E0A5;fillColor=#B9E0A5;" vertex="1" parent="1">
          <mxGeometry x="-1843" y="365" width="20" height="20" as="geometry" />
        </mxCell>
        <mxCell id="wW4yl2Ik6cUgS3KZOihZ-75" value="" style="ellipse;whiteSpace=wrap;html=1;aspect=fixed;strokeColor=#B9E0A5;fillColor=#B9E0A5;" vertex="1" parent="1">
          <mxGeometry x="-1933" y="405" width="20" height="20" as="geometry" />
        </mxCell>
        <mxCell id="wW4yl2Ik6cUgS3KZOihZ-76" value="" style="ellipse;whiteSpace=wrap;html=1;aspect=fixed;strokeColor=#B9E0A5;fillColor=#B9E0A5;" vertex="1" parent="1">
          <mxGeometry x="-1903" y="405" width="20" height="20" as="geometry" />
        </mxCell>
        <mxCell id="wW4yl2Ik6cUgS3KZOihZ-77" value="" style="ellipse;whiteSpace=wrap;html=1;aspect=fixed;strokeColor=#B9E0A5;fillColor=#B9E0A5;" vertex="1" parent="1">
          <mxGeometry x="-1873" y="405" width="20" height="20" as="geometry" />
        </mxCell>
        <mxCell id="wW4yl2Ik6cUgS3KZOihZ-78" value="" style="ellipse;whiteSpace=wrap;html=1;aspect=fixed;strokeColor=#B9E0A5;fillColor=#B9E0A5;" vertex="1" parent="1">
          <mxGeometry x="-1843" y="405" width="20" height="20" as="geometry" />
        </mxCell>
        <mxCell id="wW4yl2Ik6cUgS3KZOihZ-79" value="" style="ellipse;whiteSpace=wrap;html=1;aspect=fixed;strokeColor=#B9E0A5;fillColor=#B9E0A5;" vertex="1" parent="1">
          <mxGeometry x="-1933" y="444.9999999999999" width="20" height="20" as="geometry" />
        </mxCell>
        <mxCell id="wW4yl2Ik6cUgS3KZOihZ-80" value="" style="ellipse;whiteSpace=wrap;html=1;aspect=fixed;strokeColor=#B9E0A5;fillColor=#B9E0A5;" vertex="1" parent="1">
          <mxGeometry x="-1903" y="444.9999999999999" width="20" height="20" as="geometry" />
        </mxCell>
        <mxCell id="wW4yl2Ik6cUgS3KZOihZ-81" value="" style="ellipse;whiteSpace=wrap;html=1;aspect=fixed;strokeColor=#B9E0A5;fillColor=#B9E0A5;" vertex="1" parent="1">
          <mxGeometry x="-1873" y="444.9999999999999" width="20" height="20" as="geometry" />
        </mxCell>
        <mxCell id="wW4yl2Ik6cUgS3KZOihZ-82" value="" style="ellipse;whiteSpace=wrap;html=1;aspect=fixed;strokeColor=#B9E0A5;fillColor=#B9E0A5;" vertex="1" parent="1">
          <mxGeometry x="-1843" y="444.9999999999999" width="20" height="20" as="geometry" />
        </mxCell>
        <mxCell id="wW4yl2Ik6cUgS3KZOihZ-83" value="" style="endArrow=none;html=1;entryX=0.5;entryY=1;entryDx=0;entryDy=0;exitX=0.5;exitY=0;exitDx=0;exitDy=0;fillColor=#e1d5e7;strokeColor=#DBA8F2;" edge="1" parent="1" source="wW4yl2Ik6cUgS3KZOihZ-75" target="wW4yl2Ik6cUgS3KZOihZ-74">
          <mxGeometry width="50" height="50" relative="1" as="geometry">
            <mxPoint x="-1863" y="474.9999999999999" as="sourcePoint" />
            <mxPoint x="-1813" y="424.9999999999999" as="targetPoint" />
          </mxGeometry>
        </mxCell>
        <mxCell id="wW4yl2Ik6cUgS3KZOihZ-84" value="" style="endArrow=none;html=1;fillColor=#e1d5e7;strokeColor=#DBA8F2;" edge="1" parent="1">
          <mxGeometry width="50" height="50" relative="1" as="geometry">
            <mxPoint x="-1832.9999999999998" y="405" as="sourcePoint" />
            <mxPoint x="-1832.9999999999998" y="385" as="targetPoint" />
          </mxGeometry>
        </mxCell>
        <mxCell id="wW4yl2Ik6cUgS3KZOihZ-85" value="" style="endArrow=none;html=1;entryX=0.5;entryY=1;entryDx=0;entryDy=0;exitX=0.5;exitY=0;exitDx=0;exitDy=0;fillColor=#e1d5e7;strokeColor=#DBA8F2;" edge="1" parent="1" source="wW4yl2Ik6cUgS3KZOihZ-77" target="wW4yl2Ik6cUgS3KZOihZ-74">
          <mxGeometry width="50" height="50" relative="1" as="geometry">
            <mxPoint x="-1863" y="474.9999999999999" as="sourcePoint" />
            <mxPoint x="-1813" y="424.9999999999999" as="targetPoint" />
          </mxGeometry>
        </mxCell>
        <mxCell id="wW4yl2Ik6cUgS3KZOihZ-86" value="" style="endArrow=none;html=1;entryX=0.5;entryY=1;entryDx=0;entryDy=0;exitX=0.5;exitY=0;exitDx=0;exitDy=0;fillColor=#e1d5e7;strokeColor=#DBA8F2;" edge="1" parent="1" source="wW4yl2Ik6cUgS3KZOihZ-76" target="wW4yl2Ik6cUgS3KZOihZ-74">
          <mxGeometry width="50" height="50" relative="1" as="geometry">
            <mxPoint x="-1863" y="474.9999999999999" as="sourcePoint" />
            <mxPoint x="-1813" y="424.9999999999999" as="targetPoint" />
          </mxGeometry>
        </mxCell>
        <mxCell id="wW4yl2Ik6cUgS3KZOihZ-87" value="" style="endArrow=none;html=1;entryX=0.5;entryY=1;entryDx=0;entryDy=0;exitX=0.5;exitY=0;exitDx=0;exitDy=0;fillColor=#e1d5e7;strokeColor=#DBA8F2;" edge="1" parent="1" source="wW4yl2Ik6cUgS3KZOihZ-78" target="wW4yl2Ik6cUgS3KZOihZ-73">
          <mxGeometry width="50" height="50" relative="1" as="geometry">
            <mxPoint x="-1863" y="474.9999999999999" as="sourcePoint" />
            <mxPoint x="-1813" y="424.9999999999999" as="targetPoint" />
          </mxGeometry>
        </mxCell>
        <mxCell id="wW4yl2Ik6cUgS3KZOihZ-88" value="" style="endArrow=none;html=1;entryX=0.5;entryY=1;entryDx=0;entryDy=0;fillColor=#e1d5e7;strokeColor=#DBA8F2;" edge="1" parent="1" target="wW4yl2Ik6cUgS3KZOihZ-73">
          <mxGeometry width="50" height="50" relative="1" as="geometry">
            <mxPoint x="-1862.9999999999998" y="405" as="sourcePoint" />
            <mxPoint x="-1813" y="424.9999999999999" as="targetPoint" />
          </mxGeometry>
        </mxCell>
        <mxCell id="wW4yl2Ik6cUgS3KZOihZ-89" value="" style="endArrow=none;html=1;entryX=0.5;entryY=1;entryDx=0;entryDy=0;exitX=0.5;exitY=0;exitDx=0;exitDy=0;fillColor=#e1d5e7;strokeColor=#DBA8F2;" edge="1" parent="1" source="wW4yl2Ik6cUgS3KZOihZ-76" target="wW4yl2Ik6cUgS3KZOihZ-73">
          <mxGeometry width="50" height="50" relative="1" as="geometry">
            <mxPoint x="-1863" y="474.9999999999999" as="sourcePoint" />
            <mxPoint x="-1813" y="424.9999999999999" as="targetPoint" />
          </mxGeometry>
        </mxCell>
        <mxCell id="wW4yl2Ik6cUgS3KZOihZ-90" value="" style="endArrow=none;html=1;entryX=0.5;entryY=1;entryDx=0;entryDy=0;exitX=0.5;exitY=0;exitDx=0;exitDy=0;fillColor=#e1d5e7;strokeColor=#DBA8F2;" edge="1" parent="1" source="wW4yl2Ik6cUgS3KZOihZ-75" target="wW4yl2Ik6cUgS3KZOihZ-73">
          <mxGeometry width="50" height="50" relative="1" as="geometry">
            <mxPoint x="-1863" y="474.9999999999999" as="sourcePoint" />
            <mxPoint x="-1813" y="424.9999999999999" as="targetPoint" />
          </mxGeometry>
        </mxCell>
        <mxCell id="wW4yl2Ik6cUgS3KZOihZ-91" value="" style="endArrow=none;html=1;entryX=0.5;entryY=1;entryDx=0;entryDy=0;exitX=0.5;exitY=0;exitDx=0;exitDy=0;fillColor=#e1d5e7;strokeColor=#DBA8F2;" edge="1" parent="1" source="wW4yl2Ik6cUgS3KZOihZ-76" target="wW4yl2Ik6cUgS3KZOihZ-72">
          <mxGeometry width="50" height="50" relative="1" as="geometry">
            <mxPoint x="-1863" y="474.9999999999999" as="sourcePoint" />
            <mxPoint x="-1813" y="424.9999999999999" as="targetPoint" />
          </mxGeometry>
        </mxCell>
        <mxCell id="wW4yl2Ik6cUgS3KZOihZ-92" value="" style="endArrow=none;html=1;entryX=0.5;entryY=1;entryDx=0;entryDy=0;fillColor=#e1d5e7;strokeColor=#DBA8F2;" edge="1" parent="1" target="wW4yl2Ik6cUgS3KZOihZ-72">
          <mxGeometry width="50" height="50" relative="1" as="geometry">
            <mxPoint x="-1922.9999999999998" y="405" as="sourcePoint" />
            <mxPoint x="-1813" y="424.9999999999999" as="targetPoint" />
          </mxGeometry>
        </mxCell>
        <mxCell id="wW4yl2Ik6cUgS3KZOihZ-93" value="" style="endArrow=none;html=1;entryX=0.5;entryY=1;entryDx=0;entryDy=0;exitX=0.5;exitY=0;exitDx=0;exitDy=0;fillColor=#e1d5e7;strokeColor=#DBA8F2;" edge="1" parent="1" source="wW4yl2Ik6cUgS3KZOihZ-77" target="wW4yl2Ik6cUgS3KZOihZ-72">
          <mxGeometry width="50" height="50" relative="1" as="geometry">
            <mxPoint x="-1863" y="474.9999999999999" as="sourcePoint" />
            <mxPoint x="-1813" y="424.9999999999999" as="targetPoint" />
          </mxGeometry>
        </mxCell>
        <mxCell id="wW4yl2Ik6cUgS3KZOihZ-94" value="" style="endArrow=none;html=1;exitX=0.5;exitY=0;exitDx=0;exitDy=0;fillColor=#e1d5e7;strokeColor=#DBA8F2;" edge="1" parent="1" source="wW4yl2Ik6cUgS3KZOihZ-78">
          <mxGeometry width="50" height="50" relative="1" as="geometry">
            <mxPoint x="-1863" y="474.9999999999999" as="sourcePoint" />
            <mxPoint x="-1892.9999999999998" y="385" as="targetPoint" />
          </mxGeometry>
        </mxCell>
        <mxCell id="wW4yl2Ik6cUgS3KZOihZ-95" value="" style="endArrow=none;html=1;entryX=0.5;entryY=1;entryDx=0;entryDy=0;exitX=0.5;exitY=0;exitDx=0;exitDy=0;fillColor=#e1d5e7;strokeColor=#DBA8F2;" edge="1" parent="1" source="wW4yl2Ik6cUgS3KZOihZ-75" target="wW4yl2Ik6cUgS3KZOihZ-71">
          <mxGeometry width="50" height="50" relative="1" as="geometry">
            <mxPoint x="-1863" y="474.9999999999999" as="sourcePoint" />
            <mxPoint x="-1813" y="424.9999999999999" as="targetPoint" />
          </mxGeometry>
        </mxCell>
        <mxCell id="wW4yl2Ik6cUgS3KZOihZ-96" value="" style="endArrow=none;html=1;exitX=0.5;exitY=0;exitDx=0;exitDy=0;fillColor=#e1d5e7;strokeColor=#DBA8F2;" edge="1" parent="1" source="wW4yl2Ik6cUgS3KZOihZ-76">
          <mxGeometry width="50" height="50" relative="1" as="geometry">
            <mxPoint x="-1863" y="474.9999999999999" as="sourcePoint" />
            <mxPoint x="-1922.9999999999998" y="385" as="targetPoint" />
          </mxGeometry>
        </mxCell>
        <mxCell id="wW4yl2Ik6cUgS3KZOihZ-97" value="" style="endArrow=none;html=1;entryX=0.5;entryY=1;entryDx=0;entryDy=0;exitX=0.5;exitY=0;exitDx=0;exitDy=0;fillColor=#e1d5e7;strokeColor=#DBA8F2;" edge="1" parent="1" source="wW4yl2Ik6cUgS3KZOihZ-77" target="wW4yl2Ik6cUgS3KZOihZ-71">
          <mxGeometry width="50" height="50" relative="1" as="geometry">
            <mxPoint x="-1863" y="474.9999999999999" as="sourcePoint" />
            <mxPoint x="-1813" y="424.9999999999999" as="targetPoint" />
          </mxGeometry>
        </mxCell>
        <mxCell id="wW4yl2Ik6cUgS3KZOihZ-98" value="" style="endArrow=none;html=1;entryX=0.5;entryY=1;entryDx=0;entryDy=0;fillColor=#e1d5e7;strokeColor=#DBA8F2;" edge="1" parent="1" target="wW4yl2Ik6cUgS3KZOihZ-71">
          <mxGeometry width="50" height="50" relative="1" as="geometry">
            <mxPoint x="-1832.9999999999998" y="405" as="sourcePoint" />
            <mxPoint x="-1813" y="424.9999999999999" as="targetPoint" />
          </mxGeometry>
        </mxCell>
        <mxCell id="wW4yl2Ik6cUgS3KZOihZ-99" value="" style="endArrow=none;html=1;entryX=0.5;entryY=1;entryDx=0;entryDy=0;exitX=0.5;exitY=0;exitDx=0;exitDy=0;fillColor=#e1d5e7;strokeColor=#DBA8F2;" edge="1" parent="1">
          <mxGeometry width="50" height="50" relative="1" as="geometry">
            <mxPoint x="-1923.4800000000002" y="445" as="sourcePoint" />
            <mxPoint x="-1833.4800000000002" y="425" as="targetPoint" />
          </mxGeometry>
        </mxCell>
        <mxCell id="wW4yl2Ik6cUgS3KZOihZ-100" value="" style="endArrow=none;html=1;fillColor=#e1d5e7;strokeColor=#DBA8F2;" edge="1" parent="1">
          <mxGeometry width="50" height="50" relative="1" as="geometry">
            <mxPoint x="-1833.4800000000002" y="445" as="sourcePoint" />
            <mxPoint x="-1833.4800000000002" y="425" as="targetPoint" />
          </mxGeometry>
        </mxCell>
        <mxCell id="wW4yl2Ik6cUgS3KZOihZ-101" value="" style="endArrow=none;html=1;entryX=0.5;entryY=1;entryDx=0;entryDy=0;exitX=0.5;exitY=0;exitDx=0;exitDy=0;fillColor=#e1d5e7;strokeColor=#DBA8F2;" edge="1" parent="1">
          <mxGeometry width="50" height="50" relative="1" as="geometry">
            <mxPoint x="-1863.4800000000002" y="445" as="sourcePoint" />
            <mxPoint x="-1833.4800000000002" y="425" as="targetPoint" />
          </mxGeometry>
        </mxCell>
        <mxCell id="wW4yl2Ik6cUgS3KZOihZ-102" value="" style="endArrow=none;html=1;entryX=0.5;entryY=1;entryDx=0;entryDy=0;exitX=0.5;exitY=0;exitDx=0;exitDy=0;fillColor=#e1d5e7;strokeColor=#DBA8F2;" edge="1" parent="1">
          <mxGeometry width="50" height="50" relative="1" as="geometry">
            <mxPoint x="-1893.4800000000002" y="445" as="sourcePoint" />
            <mxPoint x="-1833.4800000000002" y="425" as="targetPoint" />
          </mxGeometry>
        </mxCell>
        <mxCell id="wW4yl2Ik6cUgS3KZOihZ-103" value="" style="endArrow=none;html=1;entryX=0.5;entryY=1;entryDx=0;entryDy=0;exitX=0.5;exitY=0;exitDx=0;exitDy=0;fillColor=#e1d5e7;strokeColor=#DBA8F2;" edge="1" parent="1">
          <mxGeometry width="50" height="50" relative="1" as="geometry">
            <mxPoint x="-1833.4800000000002" y="445" as="sourcePoint" />
            <mxPoint x="-1863.4800000000002" y="425" as="targetPoint" />
          </mxGeometry>
        </mxCell>
        <mxCell id="wW4yl2Ik6cUgS3KZOihZ-104" value="" style="endArrow=none;html=1;entryX=0.5;entryY=1;entryDx=0;entryDy=0;fillColor=#e1d5e7;strokeColor=#DBA8F2;" edge="1" parent="1">
          <mxGeometry width="50" height="50" relative="1" as="geometry">
            <mxPoint x="-1863.4800000000002" y="445" as="sourcePoint" />
            <mxPoint x="-1863.4800000000002" y="425" as="targetPoint" />
          </mxGeometry>
        </mxCell>
        <mxCell id="wW4yl2Ik6cUgS3KZOihZ-105" value="" style="endArrow=none;html=1;entryX=0.5;entryY=1;entryDx=0;entryDy=0;exitX=0.5;exitY=0;exitDx=0;exitDy=0;fillColor=#e1d5e7;strokeColor=#DBA8F2;" edge="1" parent="1">
          <mxGeometry width="50" height="50" relative="1" as="geometry">
            <mxPoint x="-1893.4800000000002" y="445" as="sourcePoint" />
            <mxPoint x="-1863.4800000000002" y="425" as="targetPoint" />
          </mxGeometry>
        </mxCell>
        <mxCell id="wW4yl2Ik6cUgS3KZOihZ-106" value="" style="endArrow=none;html=1;entryX=0.5;entryY=1;entryDx=0;entryDy=0;exitX=0.5;exitY=0;exitDx=0;exitDy=0;fillColor=#e1d5e7;strokeColor=#DBA8F2;" edge="1" parent="1">
          <mxGeometry width="50" height="50" relative="1" as="geometry">
            <mxPoint x="-1923.4800000000002" y="445" as="sourcePoint" />
            <mxPoint x="-1863.4800000000002" y="425" as="targetPoint" />
          </mxGeometry>
        </mxCell>
        <mxCell id="wW4yl2Ik6cUgS3KZOihZ-107" value="" style="endArrow=none;html=1;entryX=0.5;entryY=1;entryDx=0;entryDy=0;exitX=0.5;exitY=0;exitDx=0;exitDy=0;fillColor=#e1d5e7;strokeColor=#DBA8F2;" edge="1" parent="1">
          <mxGeometry width="50" height="50" relative="1" as="geometry">
            <mxPoint x="-1893.4800000000002" y="445" as="sourcePoint" />
            <mxPoint x="-1893.4800000000002" y="425" as="targetPoint" />
          </mxGeometry>
        </mxCell>
        <mxCell id="wW4yl2Ik6cUgS3KZOihZ-108" value="" style="endArrow=none;html=1;entryX=0.5;entryY=1;entryDx=0;entryDy=0;fillColor=#e1d5e7;strokeColor=#DBA8F2;" edge="1" parent="1">
          <mxGeometry width="50" height="50" relative="1" as="geometry">
            <mxPoint x="-1923.4800000000002" y="445" as="sourcePoint" />
            <mxPoint x="-1893.4800000000002" y="425" as="targetPoint" />
          </mxGeometry>
        </mxCell>
        <mxCell id="wW4yl2Ik6cUgS3KZOihZ-109" value="" style="endArrow=none;html=1;entryX=0.5;entryY=1;entryDx=0;entryDy=0;exitX=0.5;exitY=0;exitDx=0;exitDy=0;fillColor=#e1d5e7;strokeColor=#DBA8F2;" edge="1" parent="1">
          <mxGeometry width="50" height="50" relative="1" as="geometry">
            <mxPoint x="-1863.4800000000002" y="445" as="sourcePoint" />
            <mxPoint x="-1893.4800000000002" y="425" as="targetPoint" />
          </mxGeometry>
        </mxCell>
        <mxCell id="wW4yl2Ik6cUgS3KZOihZ-110" value="" style="endArrow=none;html=1;exitX=0.5;exitY=0;exitDx=0;exitDy=0;fillColor=#e1d5e7;strokeColor=#DBA8F2;" edge="1" parent="1">
          <mxGeometry width="50" height="50" relative="1" as="geometry">
            <mxPoint x="-1833.4800000000002" y="445" as="sourcePoint" />
            <mxPoint x="-1893.4800000000002" y="425" as="targetPoint" />
          </mxGeometry>
        </mxCell>
        <mxCell id="wW4yl2Ik6cUgS3KZOihZ-111" value="" style="endArrow=none;html=1;entryX=0.5;entryY=1;entryDx=0;entryDy=0;exitX=0.5;exitY=0;exitDx=0;exitDy=0;fillColor=#e1d5e7;strokeColor=#DBA8F2;" edge="1" parent="1">
          <mxGeometry width="50" height="50" relative="1" as="geometry">
            <mxPoint x="-1923.4800000000002" y="445" as="sourcePoint" />
            <mxPoint x="-1923.4800000000002" y="425" as="targetPoint" />
          </mxGeometry>
        </mxCell>
        <mxCell id="wW4yl2Ik6cUgS3KZOihZ-112" value="" style="endArrow=none;html=1;exitX=0.5;exitY=0;exitDx=0;exitDy=0;fillColor=#e1d5e7;strokeColor=#DBA8F2;" edge="1" parent="1">
          <mxGeometry width="50" height="50" relative="1" as="geometry">
            <mxPoint x="-1893.4800000000002" y="445" as="sourcePoint" />
            <mxPoint x="-1923.4800000000002" y="425" as="targetPoint" />
          </mxGeometry>
        </mxCell>
        <mxCell id="wW4yl2Ik6cUgS3KZOihZ-113" value="" style="endArrow=none;html=1;entryX=0.5;entryY=1;entryDx=0;entryDy=0;exitX=0.5;exitY=0;exitDx=0;exitDy=0;fillColor=#e1d5e7;strokeColor=#DBA8F2;" edge="1" parent="1">
          <mxGeometry width="50" height="50" relative="1" as="geometry">
            <mxPoint x="-1863.4800000000002" y="445" as="sourcePoint" />
            <mxPoint x="-1923.4800000000002" y="425" as="targetPoint" />
          </mxGeometry>
        </mxCell>
        <mxCell id="wW4yl2Ik6cUgS3KZOihZ-114" value="" style="endArrow=none;html=1;entryX=0.5;entryY=1;entryDx=0;entryDy=0;fillColor=#e1d5e7;strokeColor=#DBA8F2;" edge="1" parent="1">
          <mxGeometry width="50" height="50" relative="1" as="geometry">
            <mxPoint x="-1833.4800000000002" y="445" as="sourcePoint" />
            <mxPoint x="-1923.4800000000002" y="425" as="targetPoint" />
          </mxGeometry>
        </mxCell>
        <mxCell id="wW4yl2Ik6cUgS3KZOihZ-115" value="target-net" style="text;html=1;strokeColor=none;fillColor=none;align=center;verticalAlign=middle;whiteSpace=wrap;rounded=0;" vertex="1" parent="1">
          <mxGeometry x="-1903.46" y="345" width="55" height="20" as="geometry" />
        </mxCell>
        <mxCell id="wW4yl2Ik6cUgS3KZOihZ-116" value="&lt;font size=&quot;1&quot;&gt;&lt;b style=&quot;font-size: 18px&quot;&gt;actor&lt;/b&gt;&lt;/font&gt;" style="text;html=1;strokeColor=none;fillColor=none;align=center;verticalAlign=middle;whiteSpace=wrap;rounded=0;" vertex="1" parent="1">
          <mxGeometry x="-2005" y="464.9999999999999" width="58.5" height="20" as="geometry" />
        </mxCell>
        <mxCell id="wW4yl2Ik6cUgS3KZOihZ-117" value="" style="rounded=0;whiteSpace=wrap;html=1;fillColor=#B9E88B;strokeColor=#B9E88B;" vertex="1" parent="1">
          <mxGeometry x="-2107.46" y="237.5" width="70" height="20" as="geometry" />
        </mxCell>
        <mxCell id="wW4yl2Ik6cUgS3KZOihZ-118" value="" style="ellipse;whiteSpace=wrap;html=1;aspect=fixed;strokeColor=#996185;fillColor=#e6d0de;gradientColor=#d5739d;" vertex="1" parent="1">
          <mxGeometry x="-2102.46" y="240.5" width="14" height="14" as="geometry" />
        </mxCell>
        <mxCell id="wW4yl2Ik6cUgS3KZOihZ-119" value="" style="ellipse;whiteSpace=wrap;html=1;aspect=fixed;strokeColor=#996185;fillColor=#e6d0de;gradientColor=#d5739d;" vertex="1" parent="1">
          <mxGeometry x="-2079.46" y="240.5" width="14" height="14" as="geometry" />
        </mxCell>
        <mxCell id="wW4yl2Ik6cUgS3KZOihZ-120" value="" style="ellipse;whiteSpace=wrap;html=1;aspect=fixed;strokeColor=#996185;fillColor=#e6d0de;gradientColor=#d5739d;" vertex="1" parent="1">
          <mxGeometry x="-2056.46" y="240.5" width="14" height="14" as="geometry" />
        </mxCell>
        <mxCell id="wW4yl2Ik6cUgS3KZOihZ-121" value="" style="rounded=0;whiteSpace=wrap;html=1;fillColor=#B9E88B;strokeColor=#B9E88B;" vertex="1" parent="1">
          <mxGeometry x="-1913" y="232" width="70" height="20" as="geometry" />
        </mxCell>
        <mxCell id="wW4yl2Ik6cUgS3KZOihZ-122" value="" style="ellipse;whiteSpace=wrap;html=1;aspect=fixed;strokeColor=#996185;fillColor=#e6d0de;gradientColor=#d5739d;" vertex="1" parent="1">
          <mxGeometry x="-1908" y="235" width="14" height="14" as="geometry" />
        </mxCell>
        <mxCell id="wW4yl2Ik6cUgS3KZOihZ-123" value="" style="ellipse;whiteSpace=wrap;html=1;aspect=fixed;strokeColor=#996185;fillColor=#e6d0de;gradientColor=#d5739d;" vertex="1" parent="1">
          <mxGeometry x="-1885" y="235" width="14" height="14" as="geometry" />
        </mxCell>
        <mxCell id="wW4yl2Ik6cUgS3KZOihZ-124" value="" style="ellipse;whiteSpace=wrap;html=1;aspect=fixed;strokeColor=#996185;fillColor=#e6d0de;gradientColor=#d5739d;" vertex="1" parent="1">
          <mxGeometry x="-1862" y="235" width="14" height="14" as="geometry" />
        </mxCell>
        <mxCell id="wW4yl2Ik6cUgS3KZOihZ-125" value="" style="rounded=1;whiteSpace=wrap;html=1;arcSize=13;strokeColor=#d6b656;fillColor=#FEFFEB;" vertex="1" parent="1">
          <mxGeometry x="-1724.25" y="345" width="130" height="128.67" as="geometry" />
        </mxCell>
        <mxCell id="wW4yl2Ik6cUgS3KZOihZ-126" value="" style="ellipse;whiteSpace=wrap;html=1;aspect=fixed;strokeColor=#d6b656;fillColor=#FF9933;" vertex="1" parent="1">
          <mxGeometry x="-1714.25" y="363.66999999999996" width="20" height="20" as="geometry" />
        </mxCell>
        <mxCell id="wW4yl2Ik6cUgS3KZOihZ-127" value="" style="ellipse;whiteSpace=wrap;html=1;aspect=fixed;strokeColor=#d6b656;fillColor=#FF9933;" vertex="1" parent="1">
          <mxGeometry x="-1684.25" y="363.66999999999996" width="20" height="20" as="geometry" />
        </mxCell>
        <mxCell id="wW4yl2Ik6cUgS3KZOihZ-128" value="" style="ellipse;whiteSpace=wrap;html=1;aspect=fixed;strokeColor=#d6b656;fillColor=#FF9933;" vertex="1" parent="1">
          <mxGeometry x="-1654.25" y="363.66999999999996" width="20" height="20" as="geometry" />
        </mxCell>
        <mxCell id="wW4yl2Ik6cUgS3KZOihZ-129" value="" style="ellipse;whiteSpace=wrap;html=1;aspect=fixed;strokeColor=#d6b656;fillColor=#FF9933;" vertex="1" parent="1">
          <mxGeometry x="-1624.25" y="363.66999999999996" width="20" height="20" as="geometry" />
        </mxCell>
        <mxCell id="wW4yl2Ik6cUgS3KZOihZ-130" value="" style="ellipse;whiteSpace=wrap;html=1;aspect=fixed;strokeColor=#d6b656;fillColor=#FF9933;" vertex="1" parent="1">
          <mxGeometry x="-1714.25" y="403.6700000000001" width="20" height="20" as="geometry" />
        </mxCell>
        <mxCell id="wW4yl2Ik6cUgS3KZOihZ-131" value="" style="ellipse;whiteSpace=wrap;html=1;aspect=fixed;strokeColor=#d6b656;fillColor=#FF9933;" vertex="1" parent="1">
          <mxGeometry x="-1684.25" y="403.6700000000001" width="20" height="20" as="geometry" />
        </mxCell>
        <mxCell id="wW4yl2Ik6cUgS3KZOihZ-132" value="" style="ellipse;whiteSpace=wrap;html=1;aspect=fixed;strokeColor=#d6b656;fillColor=#FF9933;" vertex="1" parent="1">
          <mxGeometry x="-1654.25" y="403.6700000000001" width="20" height="20" as="geometry" />
        </mxCell>
        <mxCell id="wW4yl2Ik6cUgS3KZOihZ-133" value="" style="ellipse;whiteSpace=wrap;html=1;aspect=fixed;strokeColor=#d6b656;fillColor=#FF9933;" vertex="1" parent="1">
          <mxGeometry x="-1624.25" y="403.6700000000001" width="20" height="20" as="geometry" />
        </mxCell>
        <mxCell id="wW4yl2Ik6cUgS3KZOihZ-134" value="" style="ellipse;whiteSpace=wrap;html=1;aspect=fixed;strokeColor=#d6b656;fillColor=#FF9933;" vertex="1" parent="1">
          <mxGeometry x="-1714.25" y="443.66999999999996" width="20" height="20" as="geometry" />
        </mxCell>
        <mxCell id="wW4yl2Ik6cUgS3KZOihZ-135" value="" style="ellipse;whiteSpace=wrap;html=1;aspect=fixed;strokeColor=#d6b656;fillColor=#FF9933;" vertex="1" parent="1">
          <mxGeometry x="-1684.25" y="443.66999999999996" width="20" height="20" as="geometry" />
        </mxCell>
        <mxCell id="wW4yl2Ik6cUgS3KZOihZ-136" value="" style="ellipse;whiteSpace=wrap;html=1;aspect=fixed;strokeColor=#d6b656;fillColor=#FF9933;" vertex="1" parent="1">
          <mxGeometry x="-1654.25" y="443.66999999999996" width="20" height="20" as="geometry" />
        </mxCell>
        <mxCell id="wW4yl2Ik6cUgS3KZOihZ-137" value="" style="ellipse;whiteSpace=wrap;html=1;aspect=fixed;strokeColor=#d6b656;fillColor=#FF9933;" vertex="1" parent="1">
          <mxGeometry x="-1624.25" y="443.66999999999996" width="20" height="20" as="geometry" />
        </mxCell>
        <mxCell id="wW4yl2Ik6cUgS3KZOihZ-138" value="" style="endArrow=none;html=1;entryX=0.5;entryY=1;entryDx=0;entryDy=0;exitX=0.5;exitY=0;exitDx=0;exitDy=0;strokeColor=#AEC8F5;" edge="1" parent="1" source="wW4yl2Ik6cUgS3KZOihZ-130" target="wW4yl2Ik6cUgS3KZOihZ-129">
          <mxGeometry width="50" height="50" relative="1" as="geometry">
            <mxPoint x="-1644.25" y="473.66999999999996" as="sourcePoint" />
            <mxPoint x="-1594.25" y="423.6700000000001" as="targetPoint" />
          </mxGeometry>
        </mxCell>
        <mxCell id="wW4yl2Ik6cUgS3KZOihZ-139" value="" style="endArrow=none;html=1;strokeColor=#AEC8F5;" edge="1" parent="1">
          <mxGeometry width="50" height="50" relative="1" as="geometry">
            <mxPoint x="-1614.2499999999998" y="403.6700000000001" as="sourcePoint" />
            <mxPoint x="-1614.2499999999998" y="383.6700000000001" as="targetPoint" />
          </mxGeometry>
        </mxCell>
        <mxCell id="wW4yl2Ik6cUgS3KZOihZ-140" value="" style="endArrow=none;html=1;entryX=0.5;entryY=1;entryDx=0;entryDy=0;exitX=0.5;exitY=0;exitDx=0;exitDy=0;strokeColor=#AEC8F5;" edge="1" parent="1" source="wW4yl2Ik6cUgS3KZOihZ-132" target="wW4yl2Ik6cUgS3KZOihZ-129">
          <mxGeometry width="50" height="50" relative="1" as="geometry">
            <mxPoint x="-1644.25" y="473.66999999999996" as="sourcePoint" />
            <mxPoint x="-1594.25" y="423.6700000000001" as="targetPoint" />
          </mxGeometry>
        </mxCell>
        <mxCell id="wW4yl2Ik6cUgS3KZOihZ-141" value="" style="endArrow=none;html=1;entryX=0.5;entryY=1;entryDx=0;entryDy=0;exitX=0.5;exitY=0;exitDx=0;exitDy=0;strokeColor=#AEC8F5;" edge="1" parent="1" source="wW4yl2Ik6cUgS3KZOihZ-131" target="wW4yl2Ik6cUgS3KZOihZ-129">
          <mxGeometry width="50" height="50" relative="1" as="geometry">
            <mxPoint x="-1644.25" y="473.66999999999996" as="sourcePoint" />
            <mxPoint x="-1594.25" y="423.6700000000001" as="targetPoint" />
          </mxGeometry>
        </mxCell>
        <mxCell id="wW4yl2Ik6cUgS3KZOihZ-142" value="" style="endArrow=none;html=1;entryX=0.5;entryY=1;entryDx=0;entryDy=0;exitX=0.5;exitY=0;exitDx=0;exitDy=0;strokeColor=#AEC8F5;" edge="1" parent="1" source="wW4yl2Ik6cUgS3KZOihZ-133" target="wW4yl2Ik6cUgS3KZOihZ-128">
          <mxGeometry width="50" height="50" relative="1" as="geometry">
            <mxPoint x="-1644.25" y="473.66999999999996" as="sourcePoint" />
            <mxPoint x="-1594.25" y="423.6700000000001" as="targetPoint" />
          </mxGeometry>
        </mxCell>
        <mxCell id="wW4yl2Ik6cUgS3KZOihZ-143" value="" style="endArrow=none;html=1;entryX=0.5;entryY=1;entryDx=0;entryDy=0;strokeColor=#AEC8F5;" edge="1" parent="1" target="wW4yl2Ik6cUgS3KZOihZ-128">
          <mxGeometry width="50" height="50" relative="1" as="geometry">
            <mxPoint x="-1644.2499999999998" y="403.6700000000001" as="sourcePoint" />
            <mxPoint x="-1594.25" y="423.6700000000001" as="targetPoint" />
          </mxGeometry>
        </mxCell>
        <mxCell id="wW4yl2Ik6cUgS3KZOihZ-144" value="" style="endArrow=none;html=1;entryX=0.5;entryY=1;entryDx=0;entryDy=0;exitX=0.5;exitY=0;exitDx=0;exitDy=0;strokeColor=#AEC8F5;" edge="1" parent="1" source="wW4yl2Ik6cUgS3KZOihZ-131" target="wW4yl2Ik6cUgS3KZOihZ-128">
          <mxGeometry width="50" height="50" relative="1" as="geometry">
            <mxPoint x="-1644.25" y="473.66999999999996" as="sourcePoint" />
            <mxPoint x="-1594.25" y="423.6700000000001" as="targetPoint" />
          </mxGeometry>
        </mxCell>
        <mxCell id="wW4yl2Ik6cUgS3KZOihZ-145" value="" style="endArrow=none;html=1;entryX=0.5;entryY=1;entryDx=0;entryDy=0;exitX=0.5;exitY=0;exitDx=0;exitDy=0;strokeColor=#AEC8F5;" edge="1" parent="1" source="wW4yl2Ik6cUgS3KZOihZ-130" target="wW4yl2Ik6cUgS3KZOihZ-128">
          <mxGeometry width="50" height="50" relative="1" as="geometry">
            <mxPoint x="-1644.25" y="473.66999999999996" as="sourcePoint" />
            <mxPoint x="-1594.25" y="423.6700000000001" as="targetPoint" />
          </mxGeometry>
        </mxCell>
        <mxCell id="wW4yl2Ik6cUgS3KZOihZ-146" value="" style="endArrow=none;html=1;entryX=0.5;entryY=1;entryDx=0;entryDy=0;exitX=0.5;exitY=0;exitDx=0;exitDy=0;strokeColor=#AEC8F5;" edge="1" parent="1" source="wW4yl2Ik6cUgS3KZOihZ-131" target="wW4yl2Ik6cUgS3KZOihZ-127">
          <mxGeometry width="50" height="50" relative="1" as="geometry">
            <mxPoint x="-1644.25" y="473.66999999999996" as="sourcePoint" />
            <mxPoint x="-1594.25" y="423.6700000000001" as="targetPoint" />
          </mxGeometry>
        </mxCell>
        <mxCell id="wW4yl2Ik6cUgS3KZOihZ-147" value="" style="endArrow=none;html=1;entryX=0.5;entryY=1;entryDx=0;entryDy=0;strokeColor=#AEC8F5;" edge="1" parent="1" target="wW4yl2Ik6cUgS3KZOihZ-127">
          <mxGeometry width="50" height="50" relative="1" as="geometry">
            <mxPoint x="-1704.2499999999998" y="403.6700000000001" as="sourcePoint" />
            <mxPoint x="-1594.25" y="423.6700000000001" as="targetPoint" />
          </mxGeometry>
        </mxCell>
        <mxCell id="wW4yl2Ik6cUgS3KZOihZ-148" value="" style="endArrow=none;html=1;entryX=0.5;entryY=1;entryDx=0;entryDy=0;exitX=0.5;exitY=0;exitDx=0;exitDy=0;strokeColor=#AEC8F5;" edge="1" parent="1" source="wW4yl2Ik6cUgS3KZOihZ-132" target="wW4yl2Ik6cUgS3KZOihZ-127">
          <mxGeometry width="50" height="50" relative="1" as="geometry">
            <mxPoint x="-1644.25" y="473.66999999999996" as="sourcePoint" />
            <mxPoint x="-1594.25" y="423.6700000000001" as="targetPoint" />
          </mxGeometry>
        </mxCell>
        <mxCell id="wW4yl2Ik6cUgS3KZOihZ-149" value="" style="endArrow=none;html=1;exitX=0.5;exitY=0;exitDx=0;exitDy=0;strokeColor=#AEC8F5;" edge="1" parent="1" source="wW4yl2Ik6cUgS3KZOihZ-133">
          <mxGeometry width="50" height="50" relative="1" as="geometry">
            <mxPoint x="-1644.25" y="473.66999999999996" as="sourcePoint" />
            <mxPoint x="-1674.2499999999998" y="383.6700000000001" as="targetPoint" />
          </mxGeometry>
        </mxCell>
        <mxCell id="wW4yl2Ik6cUgS3KZOihZ-150" value="" style="endArrow=none;html=1;entryX=0.5;entryY=1;entryDx=0;entryDy=0;exitX=0.5;exitY=0;exitDx=0;exitDy=0;strokeColor=#AEC8F5;" edge="1" parent="1" source="wW4yl2Ik6cUgS3KZOihZ-130" target="wW4yl2Ik6cUgS3KZOihZ-126">
          <mxGeometry width="50" height="50" relative="1" as="geometry">
            <mxPoint x="-1644.25" y="473.66999999999996" as="sourcePoint" />
            <mxPoint x="-1594.25" y="423.6700000000001" as="targetPoint" />
          </mxGeometry>
        </mxCell>
        <mxCell id="wW4yl2Ik6cUgS3KZOihZ-151" value="" style="endArrow=none;html=1;exitX=0.5;exitY=0;exitDx=0;exitDy=0;strokeColor=#AEC8F5;" edge="1" parent="1" source="wW4yl2Ik6cUgS3KZOihZ-131">
          <mxGeometry width="50" height="50" relative="1" as="geometry">
            <mxPoint x="-1644.25" y="473.66999999999996" as="sourcePoint" />
            <mxPoint x="-1704.2499999999998" y="383.6700000000001" as="targetPoint" />
          </mxGeometry>
        </mxCell>
        <mxCell id="wW4yl2Ik6cUgS3KZOihZ-152" value="" style="endArrow=none;html=1;entryX=0.5;entryY=1;entryDx=0;entryDy=0;exitX=0.5;exitY=0;exitDx=0;exitDy=0;strokeColor=#AEC8F5;" edge="1" parent="1" source="wW4yl2Ik6cUgS3KZOihZ-132" target="wW4yl2Ik6cUgS3KZOihZ-126">
          <mxGeometry width="50" height="50" relative="1" as="geometry">
            <mxPoint x="-1644.25" y="473.66999999999996" as="sourcePoint" />
            <mxPoint x="-1594.25" y="423.6700000000001" as="targetPoint" />
          </mxGeometry>
        </mxCell>
        <mxCell id="wW4yl2Ik6cUgS3KZOihZ-153" value="" style="endArrow=none;html=1;entryX=0.5;entryY=1;entryDx=0;entryDy=0;strokeColor=#AEC8F5;" edge="1" parent="1" target="wW4yl2Ik6cUgS3KZOihZ-126">
          <mxGeometry width="50" height="50" relative="1" as="geometry">
            <mxPoint x="-1614.2499999999998" y="403.6700000000001" as="sourcePoint" />
            <mxPoint x="-1594.25" y="423.6700000000001" as="targetPoint" />
          </mxGeometry>
        </mxCell>
        <mxCell id="wW4yl2Ik6cUgS3KZOihZ-154" value="" style="endArrow=none;html=1;entryX=0.5;entryY=1;entryDx=0;entryDy=0;exitX=0.5;exitY=0;exitDx=0;exitDy=0;strokeColor=#AEC8F5;" edge="1" parent="1">
          <mxGeometry width="50" height="50" relative="1" as="geometry">
            <mxPoint x="-1704.7300000000002" y="443.6700000000001" as="sourcePoint" />
            <mxPoint x="-1614.7300000000002" y="423.6700000000001" as="targetPoint" />
          </mxGeometry>
        </mxCell>
        <mxCell id="wW4yl2Ik6cUgS3KZOihZ-155" value="" style="endArrow=none;html=1;strokeColor=#AEC8F5;" edge="1" parent="1">
          <mxGeometry width="50" height="50" relative="1" as="geometry">
            <mxPoint x="-1614.7300000000002" y="443.6700000000001" as="sourcePoint" />
            <mxPoint x="-1614.7300000000002" y="423.6700000000001" as="targetPoint" />
          </mxGeometry>
        </mxCell>
        <mxCell id="wW4yl2Ik6cUgS3KZOihZ-156" value="" style="endArrow=none;html=1;entryX=0.5;entryY=1;entryDx=0;entryDy=0;exitX=0.5;exitY=0;exitDx=0;exitDy=0;strokeColor=#AEC8F5;" edge="1" parent="1">
          <mxGeometry width="50" height="50" relative="1" as="geometry">
            <mxPoint x="-1644.7300000000002" y="443.6700000000001" as="sourcePoint" />
            <mxPoint x="-1614.7300000000002" y="423.6700000000001" as="targetPoint" />
          </mxGeometry>
        </mxCell>
        <mxCell id="wW4yl2Ik6cUgS3KZOihZ-157" value="" style="endArrow=none;html=1;entryX=0.5;entryY=1;entryDx=0;entryDy=0;exitX=0.5;exitY=0;exitDx=0;exitDy=0;strokeColor=#AEC8F5;" edge="1" parent="1">
          <mxGeometry width="50" height="50" relative="1" as="geometry">
            <mxPoint x="-1674.7300000000002" y="443.6700000000001" as="sourcePoint" />
            <mxPoint x="-1614.7300000000002" y="423.6700000000001" as="targetPoint" />
          </mxGeometry>
        </mxCell>
        <mxCell id="wW4yl2Ik6cUgS3KZOihZ-158" value="" style="endArrow=none;html=1;entryX=0.5;entryY=1;entryDx=0;entryDy=0;exitX=0.5;exitY=0;exitDx=0;exitDy=0;strokeColor=#AEC8F5;" edge="1" parent="1">
          <mxGeometry width="50" height="50" relative="1" as="geometry">
            <mxPoint x="-1614.7300000000002" y="443.6700000000001" as="sourcePoint" />
            <mxPoint x="-1644.7300000000002" y="423.6700000000001" as="targetPoint" />
          </mxGeometry>
        </mxCell>
        <mxCell id="wW4yl2Ik6cUgS3KZOihZ-159" value="" style="endArrow=none;html=1;entryX=0.5;entryY=1;entryDx=0;entryDy=0;strokeColor=#AEC8F5;" edge="1" parent="1">
          <mxGeometry width="50" height="50" relative="1" as="geometry">
            <mxPoint x="-1644.7300000000002" y="443.6700000000001" as="sourcePoint" />
            <mxPoint x="-1644.7300000000002" y="423.6700000000001" as="targetPoint" />
          </mxGeometry>
        </mxCell>
        <mxCell id="wW4yl2Ik6cUgS3KZOihZ-160" value="" style="endArrow=none;html=1;entryX=0.5;entryY=1;entryDx=0;entryDy=0;exitX=0.5;exitY=0;exitDx=0;exitDy=0;strokeColor=#AEC8F5;" edge="1" parent="1">
          <mxGeometry width="50" height="50" relative="1" as="geometry">
            <mxPoint x="-1674.7300000000002" y="443.6700000000001" as="sourcePoint" />
            <mxPoint x="-1644.7300000000002" y="423.6700000000001" as="targetPoint" />
          </mxGeometry>
        </mxCell>
        <mxCell id="wW4yl2Ik6cUgS3KZOihZ-161" value="" style="endArrow=none;html=1;entryX=0.5;entryY=1;entryDx=0;entryDy=0;exitX=0.5;exitY=0;exitDx=0;exitDy=0;strokeColor=#AEC8F5;" edge="1" parent="1">
          <mxGeometry width="50" height="50" relative="1" as="geometry">
            <mxPoint x="-1704.7300000000002" y="443.6700000000001" as="sourcePoint" />
            <mxPoint x="-1644.7300000000002" y="423.6700000000001" as="targetPoint" />
          </mxGeometry>
        </mxCell>
        <mxCell id="wW4yl2Ik6cUgS3KZOihZ-162" value="" style="endArrow=none;html=1;entryX=0.5;entryY=1;entryDx=0;entryDy=0;exitX=0.5;exitY=0;exitDx=0;exitDy=0;strokeColor=#AEC8F5;" edge="1" parent="1">
          <mxGeometry width="50" height="50" relative="1" as="geometry">
            <mxPoint x="-1674.7300000000002" y="443.6700000000001" as="sourcePoint" />
            <mxPoint x="-1674.7300000000002" y="423.6700000000001" as="targetPoint" />
          </mxGeometry>
        </mxCell>
        <mxCell id="wW4yl2Ik6cUgS3KZOihZ-163" value="" style="endArrow=none;html=1;entryX=0.5;entryY=1;entryDx=0;entryDy=0;strokeColor=#AEC8F5;" edge="1" parent="1">
          <mxGeometry width="50" height="50" relative="1" as="geometry">
            <mxPoint x="-1704.7300000000002" y="443.6700000000001" as="sourcePoint" />
            <mxPoint x="-1674.7300000000002" y="423.6700000000001" as="targetPoint" />
          </mxGeometry>
        </mxCell>
        <mxCell id="wW4yl2Ik6cUgS3KZOihZ-164" value="" style="endArrow=none;html=1;entryX=0.5;entryY=1;entryDx=0;entryDy=0;exitX=0.5;exitY=0;exitDx=0;exitDy=0;strokeColor=#AEC8F5;" edge="1" parent="1">
          <mxGeometry width="50" height="50" relative="1" as="geometry">
            <mxPoint x="-1644.7300000000002" y="443.6700000000001" as="sourcePoint" />
            <mxPoint x="-1674.7300000000002" y="423.6700000000001" as="targetPoint" />
          </mxGeometry>
        </mxCell>
        <mxCell id="wW4yl2Ik6cUgS3KZOihZ-165" value="" style="endArrow=none;html=1;exitX=0.5;exitY=0;exitDx=0;exitDy=0;strokeColor=#AEC8F5;" edge="1" parent="1">
          <mxGeometry width="50" height="50" relative="1" as="geometry">
            <mxPoint x="-1614.7300000000002" y="443.6700000000001" as="sourcePoint" />
            <mxPoint x="-1674.7300000000002" y="423.6700000000001" as="targetPoint" />
          </mxGeometry>
        </mxCell>
        <mxCell id="wW4yl2Ik6cUgS3KZOihZ-166" value="" style="endArrow=none;html=1;entryX=0.5;entryY=1;entryDx=0;entryDy=0;exitX=0.5;exitY=0;exitDx=0;exitDy=0;strokeColor=#AEC8F5;" edge="1" parent="1">
          <mxGeometry width="50" height="50" relative="1" as="geometry">
            <mxPoint x="-1704.7300000000002" y="443.6700000000001" as="sourcePoint" />
            <mxPoint x="-1704.7300000000002" y="423.6700000000001" as="targetPoint" />
          </mxGeometry>
        </mxCell>
        <mxCell id="wW4yl2Ik6cUgS3KZOihZ-167" value="" style="endArrow=none;html=1;exitX=0.5;exitY=0;exitDx=0;exitDy=0;strokeColor=#AEC8F5;" edge="1" parent="1">
          <mxGeometry width="50" height="50" relative="1" as="geometry">
            <mxPoint x="-1674.7300000000002" y="443.6700000000001" as="sourcePoint" />
            <mxPoint x="-1704.7300000000002" y="423.6700000000001" as="targetPoint" />
          </mxGeometry>
        </mxCell>
        <mxCell id="wW4yl2Ik6cUgS3KZOihZ-168" value="" style="endArrow=none;html=1;entryX=0.5;entryY=1;entryDx=0;entryDy=0;exitX=0.5;exitY=0;exitDx=0;exitDy=0;strokeColor=#AEC8F5;" edge="1" parent="1">
          <mxGeometry width="50" height="50" relative="1" as="geometry">
            <mxPoint x="-1644.7300000000002" y="443.6700000000001" as="sourcePoint" />
            <mxPoint x="-1704.7300000000002" y="423.6700000000001" as="targetPoint" />
          </mxGeometry>
        </mxCell>
        <mxCell id="wW4yl2Ik6cUgS3KZOihZ-169" value="" style="endArrow=none;html=1;entryX=0.5;entryY=1;entryDx=0;entryDy=0;strokeColor=#AEC8F5;" edge="1" parent="1">
          <mxGeometry width="50" height="50" relative="1" as="geometry">
            <mxPoint x="-1614.7300000000002" y="443.6700000000001" as="sourcePoint" />
            <mxPoint x="-1704.7300000000002" y="423.6700000000001" as="targetPoint" />
          </mxGeometry>
        </mxCell>
        <mxCell id="wW4yl2Ik6cUgS3KZOihZ-170" value="eval-net" style="text;html=1;strokeColor=none;fillColor=none;align=center;verticalAlign=middle;whiteSpace=wrap;rounded=0;" vertex="1" parent="1">
          <mxGeometry x="-1689.51" y="345" width="55" height="20" as="geometry" />
        </mxCell>
        <mxCell id="wW4yl2Ik6cUgS3KZOihZ-171" value="" style="rounded=1;whiteSpace=wrap;html=1;arcSize=13;strokeColor=#666666;fillColor=#f5f5f5;fontColor=#333333;" vertex="1" parent="1">
          <mxGeometry x="-1534.25" y="346" width="130" height="127.67" as="geometry" />
        </mxCell>
        <mxCell id="wW4yl2Ik6cUgS3KZOihZ-172" value="" style="html=1;shadow=0;dashed=0;align=center;verticalAlign=middle;shape=mxgraph.arrows2.arrow;dy=0.57;dx=16.35;notch=0;rounded=1;fillColor=#DAD8ED;strokeColor=#DAD8ED;" vertex="1" parent="1">
          <mxGeometry x="-1594.25" y="388.66999999999996" width="60" height="20" as="geometry" />
        </mxCell>
        <mxCell id="wW4yl2Ik6cUgS3KZOihZ-173" value="soft update" style="text;html=1;strokeColor=none;fillColor=none;align=center;verticalAlign=middle;whiteSpace=wrap;rounded=0;" vertex="1" parent="1">
          <mxGeometry x="-1594.25" y="368.66999999999996" width="55" height="20" as="geometry" />
        </mxCell>
        <mxCell id="wW4yl2Ik6cUgS3KZOihZ-174" value="" style="ellipse;whiteSpace=wrap;html=1;aspect=fixed;strokeColor=#B9E0A5;fillColor=#B9E0A5;" vertex="1" parent="1">
          <mxGeometry x="-1524.25" y="363.66999999999996" width="20" height="20" as="geometry" />
        </mxCell>
        <mxCell id="wW4yl2Ik6cUgS3KZOihZ-175" value="" style="ellipse;whiteSpace=wrap;html=1;aspect=fixed;strokeColor=#B9E0A5;fillColor=#B9E0A5;" vertex="1" parent="1">
          <mxGeometry x="-1494.25" y="363.66999999999996" width="20" height="20" as="geometry" />
        </mxCell>
        <mxCell id="wW4yl2Ik6cUgS3KZOihZ-176" value="" style="ellipse;whiteSpace=wrap;html=1;aspect=fixed;strokeColor=#B9E0A5;fillColor=#B9E0A5;" vertex="1" parent="1">
          <mxGeometry x="-1464.25" y="363.66999999999996" width="20" height="20" as="geometry" />
        </mxCell>
        <mxCell id="wW4yl2Ik6cUgS3KZOihZ-177" value="" style="ellipse;whiteSpace=wrap;html=1;aspect=fixed;strokeColor=#B9E0A5;fillColor=#B9E0A5;" vertex="1" parent="1">
          <mxGeometry x="-1434.25" y="363.66999999999996" width="20" height="20" as="geometry" />
        </mxCell>
        <mxCell id="wW4yl2Ik6cUgS3KZOihZ-178" value="" style="ellipse;whiteSpace=wrap;html=1;aspect=fixed;strokeColor=#B9E0A5;fillColor=#B9E0A5;" vertex="1" parent="1">
          <mxGeometry x="-1524.25" y="403.6700000000001" width="20" height="20" as="geometry" />
        </mxCell>
        <mxCell id="wW4yl2Ik6cUgS3KZOihZ-179" value="" style="ellipse;whiteSpace=wrap;html=1;aspect=fixed;strokeColor=#B9E0A5;fillColor=#B9E0A5;" vertex="1" parent="1">
          <mxGeometry x="-1494.25" y="403.6700000000001" width="20" height="20" as="geometry" />
        </mxCell>
        <mxCell id="wW4yl2Ik6cUgS3KZOihZ-180" value="" style="ellipse;whiteSpace=wrap;html=1;aspect=fixed;strokeColor=#B9E0A5;fillColor=#B9E0A5;" vertex="1" parent="1">
          <mxGeometry x="-1464.25" y="403.6700000000001" width="20" height="20" as="geometry" />
        </mxCell>
        <mxCell id="wW4yl2Ik6cUgS3KZOihZ-181" value="" style="ellipse;whiteSpace=wrap;html=1;aspect=fixed;strokeColor=#B9E0A5;fillColor=#B9E0A5;" vertex="1" parent="1">
          <mxGeometry x="-1434.25" y="403.6700000000001" width="20" height="20" as="geometry" />
        </mxCell>
        <mxCell id="wW4yl2Ik6cUgS3KZOihZ-182" value="" style="ellipse;whiteSpace=wrap;html=1;aspect=fixed;strokeColor=#B9E0A5;fillColor=#B9E0A5;" vertex="1" parent="1">
          <mxGeometry x="-1524.25" y="443.66999999999996" width="20" height="20" as="geometry" />
        </mxCell>
        <mxCell id="wW4yl2Ik6cUgS3KZOihZ-183" value="" style="ellipse;whiteSpace=wrap;html=1;aspect=fixed;strokeColor=#B9E0A5;fillColor=#B9E0A5;" vertex="1" parent="1">
          <mxGeometry x="-1494.25" y="443.66999999999996" width="20" height="20" as="geometry" />
        </mxCell>
        <mxCell id="wW4yl2Ik6cUgS3KZOihZ-184" value="" style="ellipse;whiteSpace=wrap;html=1;aspect=fixed;strokeColor=#B9E0A5;fillColor=#B9E0A5;" vertex="1" parent="1">
          <mxGeometry x="-1464.25" y="443.66999999999996" width="20" height="20" as="geometry" />
        </mxCell>
        <mxCell id="wW4yl2Ik6cUgS3KZOihZ-185" value="" style="ellipse;whiteSpace=wrap;html=1;aspect=fixed;strokeColor=#B9E0A5;fillColor=#B9E0A5;" vertex="1" parent="1">
          <mxGeometry x="-1434.25" y="443.66999999999996" width="20" height="20" as="geometry" />
        </mxCell>
        <mxCell id="wW4yl2Ik6cUgS3KZOihZ-186" value="" style="endArrow=none;html=1;entryX=0.5;entryY=1;entryDx=0;entryDy=0;exitX=0.5;exitY=0;exitDx=0;exitDy=0;fillColor=#e1d5e7;strokeColor=#DBA8F2;" edge="1" parent="1" source="wW4yl2Ik6cUgS3KZOihZ-178" target="wW4yl2Ik6cUgS3KZOihZ-177">
          <mxGeometry width="50" height="50" relative="1" as="geometry">
            <mxPoint x="-1454.25" y="473.66999999999996" as="sourcePoint" />
            <mxPoint x="-1404.25" y="423.6700000000001" as="targetPoint" />
          </mxGeometry>
        </mxCell>
        <mxCell id="wW4yl2Ik6cUgS3KZOihZ-187" value="" style="endArrow=none;html=1;fillColor=#e1d5e7;strokeColor=#DBA8F2;" edge="1" parent="1">
          <mxGeometry width="50" height="50" relative="1" as="geometry">
            <mxPoint x="-1424.2499999999998" y="403.6700000000001" as="sourcePoint" />
            <mxPoint x="-1424.2499999999998" y="383.6700000000001" as="targetPoint" />
          </mxGeometry>
        </mxCell>
        <mxCell id="wW4yl2Ik6cUgS3KZOihZ-188" value="" style="endArrow=none;html=1;entryX=0.5;entryY=1;entryDx=0;entryDy=0;exitX=0.5;exitY=0;exitDx=0;exitDy=0;fillColor=#e1d5e7;strokeColor=#DBA8F2;" edge="1" parent="1" source="wW4yl2Ik6cUgS3KZOihZ-180" target="wW4yl2Ik6cUgS3KZOihZ-177">
          <mxGeometry width="50" height="50" relative="1" as="geometry">
            <mxPoint x="-1454.25" y="473.66999999999996" as="sourcePoint" />
            <mxPoint x="-1404.25" y="423.6700000000001" as="targetPoint" />
          </mxGeometry>
        </mxCell>
        <mxCell id="wW4yl2Ik6cUgS3KZOihZ-189" value="" style="endArrow=none;html=1;entryX=0.5;entryY=1;entryDx=0;entryDy=0;exitX=0.5;exitY=0;exitDx=0;exitDy=0;fillColor=#e1d5e7;strokeColor=#DBA8F2;" edge="1" parent="1" source="wW4yl2Ik6cUgS3KZOihZ-179" target="wW4yl2Ik6cUgS3KZOihZ-177">
          <mxGeometry width="50" height="50" relative="1" as="geometry">
            <mxPoint x="-1454.25" y="473.66999999999996" as="sourcePoint" />
            <mxPoint x="-1404.25" y="423.6700000000001" as="targetPoint" />
          </mxGeometry>
        </mxCell>
        <mxCell id="wW4yl2Ik6cUgS3KZOihZ-190" value="" style="endArrow=none;html=1;entryX=0.5;entryY=1;entryDx=0;entryDy=0;exitX=0.5;exitY=0;exitDx=0;exitDy=0;fillColor=#e1d5e7;strokeColor=#DBA8F2;" edge="1" parent="1" source="wW4yl2Ik6cUgS3KZOihZ-181" target="wW4yl2Ik6cUgS3KZOihZ-176">
          <mxGeometry width="50" height="50" relative="1" as="geometry">
            <mxPoint x="-1454.25" y="473.66999999999996" as="sourcePoint" />
            <mxPoint x="-1404.25" y="423.6700000000001" as="targetPoint" />
          </mxGeometry>
        </mxCell>
        <mxCell id="wW4yl2Ik6cUgS3KZOihZ-191" value="" style="endArrow=none;html=1;entryX=0.5;entryY=1;entryDx=0;entryDy=0;fillColor=#e1d5e7;strokeColor=#DBA8F2;" edge="1" parent="1" target="wW4yl2Ik6cUgS3KZOihZ-176">
          <mxGeometry width="50" height="50" relative="1" as="geometry">
            <mxPoint x="-1454.2499999999998" y="403.6700000000001" as="sourcePoint" />
            <mxPoint x="-1404.25" y="423.6700000000001" as="targetPoint" />
          </mxGeometry>
        </mxCell>
        <mxCell id="wW4yl2Ik6cUgS3KZOihZ-192" value="" style="endArrow=none;html=1;entryX=0.5;entryY=1;entryDx=0;entryDy=0;exitX=0.5;exitY=0;exitDx=0;exitDy=0;fillColor=#e1d5e7;strokeColor=#DBA8F2;" edge="1" parent="1" source="wW4yl2Ik6cUgS3KZOihZ-179" target="wW4yl2Ik6cUgS3KZOihZ-176">
          <mxGeometry width="50" height="50" relative="1" as="geometry">
            <mxPoint x="-1454.25" y="473.66999999999996" as="sourcePoint" />
            <mxPoint x="-1404.25" y="423.6700000000001" as="targetPoint" />
          </mxGeometry>
        </mxCell>
        <mxCell id="wW4yl2Ik6cUgS3KZOihZ-193" value="" style="endArrow=none;html=1;entryX=0.5;entryY=1;entryDx=0;entryDy=0;exitX=0.5;exitY=0;exitDx=0;exitDy=0;fillColor=#e1d5e7;strokeColor=#DBA8F2;" edge="1" parent="1" source="wW4yl2Ik6cUgS3KZOihZ-178" target="wW4yl2Ik6cUgS3KZOihZ-176">
          <mxGeometry width="50" height="50" relative="1" as="geometry">
            <mxPoint x="-1454.25" y="473.66999999999996" as="sourcePoint" />
            <mxPoint x="-1404.25" y="423.6700000000001" as="targetPoint" />
          </mxGeometry>
        </mxCell>
        <mxCell id="wW4yl2Ik6cUgS3KZOihZ-194" value="" style="endArrow=none;html=1;entryX=0.5;entryY=1;entryDx=0;entryDy=0;exitX=0.5;exitY=0;exitDx=0;exitDy=0;fillColor=#e1d5e7;strokeColor=#DBA8F2;" edge="1" parent="1" source="wW4yl2Ik6cUgS3KZOihZ-179" target="wW4yl2Ik6cUgS3KZOihZ-175">
          <mxGeometry width="50" height="50" relative="1" as="geometry">
            <mxPoint x="-1454.25" y="473.66999999999996" as="sourcePoint" />
            <mxPoint x="-1404.25" y="423.6700000000001" as="targetPoint" />
          </mxGeometry>
        </mxCell>
        <mxCell id="wW4yl2Ik6cUgS3KZOihZ-195" value="" style="endArrow=none;html=1;entryX=0.5;entryY=1;entryDx=0;entryDy=0;fillColor=#e1d5e7;strokeColor=#DBA8F2;" edge="1" parent="1" target="wW4yl2Ik6cUgS3KZOihZ-175">
          <mxGeometry width="50" height="50" relative="1" as="geometry">
            <mxPoint x="-1514.2499999999998" y="403.6700000000001" as="sourcePoint" />
            <mxPoint x="-1404.25" y="423.6700000000001" as="targetPoint" />
          </mxGeometry>
        </mxCell>
        <mxCell id="wW4yl2Ik6cUgS3KZOihZ-196" value="" style="endArrow=none;html=1;entryX=0.5;entryY=1;entryDx=0;entryDy=0;exitX=0.5;exitY=0;exitDx=0;exitDy=0;fillColor=#e1d5e7;strokeColor=#DBA8F2;" edge="1" parent="1" source="wW4yl2Ik6cUgS3KZOihZ-180" target="wW4yl2Ik6cUgS3KZOihZ-175">
          <mxGeometry width="50" height="50" relative="1" as="geometry">
            <mxPoint x="-1454.25" y="473.66999999999996" as="sourcePoint" />
            <mxPoint x="-1404.25" y="423.6700000000001" as="targetPoint" />
          </mxGeometry>
        </mxCell>
        <mxCell id="wW4yl2Ik6cUgS3KZOihZ-197" value="" style="endArrow=none;html=1;exitX=0.5;exitY=0;exitDx=0;exitDy=0;fillColor=#e1d5e7;strokeColor=#DBA8F2;" edge="1" parent="1" source="wW4yl2Ik6cUgS3KZOihZ-181">
          <mxGeometry width="50" height="50" relative="1" as="geometry">
            <mxPoint x="-1454.25" y="473.66999999999996" as="sourcePoint" />
            <mxPoint x="-1484.2499999999998" y="383.6700000000001" as="targetPoint" />
          </mxGeometry>
        </mxCell>
        <mxCell id="wW4yl2Ik6cUgS3KZOihZ-198" value="" style="endArrow=none;html=1;entryX=0.5;entryY=1;entryDx=0;entryDy=0;exitX=0.5;exitY=0;exitDx=0;exitDy=0;fillColor=#e1d5e7;strokeColor=#DBA8F2;" edge="1" parent="1" source="wW4yl2Ik6cUgS3KZOihZ-178" target="wW4yl2Ik6cUgS3KZOihZ-174">
          <mxGeometry width="50" height="50" relative="1" as="geometry">
            <mxPoint x="-1454.25" y="473.66999999999996" as="sourcePoint" />
            <mxPoint x="-1404.25" y="423.6700000000001" as="targetPoint" />
          </mxGeometry>
        </mxCell>
        <mxCell id="wW4yl2Ik6cUgS3KZOihZ-199" value="" style="endArrow=none;html=1;exitX=0.5;exitY=0;exitDx=0;exitDy=0;fillColor=#e1d5e7;strokeColor=#DBA8F2;" edge="1" parent="1" source="wW4yl2Ik6cUgS3KZOihZ-179">
          <mxGeometry width="50" height="50" relative="1" as="geometry">
            <mxPoint x="-1454.25" y="473.66999999999996" as="sourcePoint" />
            <mxPoint x="-1514.2499999999998" y="383.6700000000001" as="targetPoint" />
          </mxGeometry>
        </mxCell>
        <mxCell id="wW4yl2Ik6cUgS3KZOihZ-200" value="" style="endArrow=none;html=1;entryX=0.5;entryY=1;entryDx=0;entryDy=0;exitX=0.5;exitY=0;exitDx=0;exitDy=0;fillColor=#e1d5e7;strokeColor=#DBA8F2;" edge="1" parent="1" source="wW4yl2Ik6cUgS3KZOihZ-180" target="wW4yl2Ik6cUgS3KZOihZ-174">
          <mxGeometry width="50" height="50" relative="1" as="geometry">
            <mxPoint x="-1454.25" y="473.66999999999996" as="sourcePoint" />
            <mxPoint x="-1404.25" y="423.6700000000001" as="targetPoint" />
          </mxGeometry>
        </mxCell>
        <mxCell id="wW4yl2Ik6cUgS3KZOihZ-201" value="" style="endArrow=none;html=1;entryX=0.5;entryY=1;entryDx=0;entryDy=0;fillColor=#e1d5e7;strokeColor=#DBA8F2;" edge="1" parent="1" target="wW4yl2Ik6cUgS3KZOihZ-174">
          <mxGeometry width="50" height="50" relative="1" as="geometry">
            <mxPoint x="-1424.2499999999998" y="403.6700000000001" as="sourcePoint" />
            <mxPoint x="-1404.25" y="423.6700000000001" as="targetPoint" />
          </mxGeometry>
        </mxCell>
        <mxCell id="wW4yl2Ik6cUgS3KZOihZ-202" value="" style="endArrow=none;html=1;entryX=0.5;entryY=1;entryDx=0;entryDy=0;exitX=0.5;exitY=0;exitDx=0;exitDy=0;fillColor=#e1d5e7;strokeColor=#DBA8F2;" edge="1" parent="1">
          <mxGeometry width="50" height="50" relative="1" as="geometry">
            <mxPoint x="-1514.7300000000002" y="443.6700000000001" as="sourcePoint" />
            <mxPoint x="-1424.7300000000002" y="423.6700000000001" as="targetPoint" />
          </mxGeometry>
        </mxCell>
        <mxCell id="wW4yl2Ik6cUgS3KZOihZ-203" value="" style="endArrow=none;html=1;fillColor=#e1d5e7;strokeColor=#DBA8F2;" edge="1" parent="1">
          <mxGeometry width="50" height="50" relative="1" as="geometry">
            <mxPoint x="-1424.7300000000002" y="443.6700000000001" as="sourcePoint" />
            <mxPoint x="-1424.7300000000002" y="423.6700000000001" as="targetPoint" />
          </mxGeometry>
        </mxCell>
        <mxCell id="wW4yl2Ik6cUgS3KZOihZ-204" value="" style="endArrow=none;html=1;entryX=0.5;entryY=1;entryDx=0;entryDy=0;exitX=0.5;exitY=0;exitDx=0;exitDy=0;fillColor=#e1d5e7;strokeColor=#DBA8F2;" edge="1" parent="1">
          <mxGeometry width="50" height="50" relative="1" as="geometry">
            <mxPoint x="-1454.7300000000002" y="443.6700000000001" as="sourcePoint" />
            <mxPoint x="-1424.7300000000002" y="423.6700000000001" as="targetPoint" />
          </mxGeometry>
        </mxCell>
        <mxCell id="wW4yl2Ik6cUgS3KZOihZ-205" value="" style="endArrow=none;html=1;entryX=0.5;entryY=1;entryDx=0;entryDy=0;exitX=0.5;exitY=0;exitDx=0;exitDy=0;fillColor=#e1d5e7;strokeColor=#DBA8F2;" edge="1" parent="1">
          <mxGeometry width="50" height="50" relative="1" as="geometry">
            <mxPoint x="-1484.7300000000002" y="443.6700000000001" as="sourcePoint" />
            <mxPoint x="-1424.7300000000002" y="423.6700000000001" as="targetPoint" />
          </mxGeometry>
        </mxCell>
        <mxCell id="wW4yl2Ik6cUgS3KZOihZ-206" value="" style="endArrow=none;html=1;entryX=0.5;entryY=1;entryDx=0;entryDy=0;exitX=0.5;exitY=0;exitDx=0;exitDy=0;fillColor=#e1d5e7;strokeColor=#DBA8F2;" edge="1" parent="1">
          <mxGeometry width="50" height="50" relative="1" as="geometry">
            <mxPoint x="-1424.7300000000002" y="443.6700000000001" as="sourcePoint" />
            <mxPoint x="-1454.7300000000002" y="423.6700000000001" as="targetPoint" />
          </mxGeometry>
        </mxCell>
        <mxCell id="wW4yl2Ik6cUgS3KZOihZ-207" value="" style="endArrow=none;html=1;entryX=0.5;entryY=1;entryDx=0;entryDy=0;fillColor=#e1d5e7;strokeColor=#DBA8F2;" edge="1" parent="1">
          <mxGeometry width="50" height="50" relative="1" as="geometry">
            <mxPoint x="-1454.7300000000002" y="443.6700000000001" as="sourcePoint" />
            <mxPoint x="-1454.7300000000002" y="423.6700000000001" as="targetPoint" />
          </mxGeometry>
        </mxCell>
        <mxCell id="wW4yl2Ik6cUgS3KZOihZ-208" value="" style="endArrow=none;html=1;entryX=0.5;entryY=1;entryDx=0;entryDy=0;exitX=0.5;exitY=0;exitDx=0;exitDy=0;fillColor=#e1d5e7;strokeColor=#DBA8F2;" edge="1" parent="1">
          <mxGeometry width="50" height="50" relative="1" as="geometry">
            <mxPoint x="-1484.7300000000002" y="443.6700000000001" as="sourcePoint" />
            <mxPoint x="-1454.7300000000002" y="423.6700000000001" as="targetPoint" />
          </mxGeometry>
        </mxCell>
        <mxCell id="wW4yl2Ik6cUgS3KZOihZ-209" value="" style="endArrow=none;html=1;entryX=0.5;entryY=1;entryDx=0;entryDy=0;exitX=0.5;exitY=0;exitDx=0;exitDy=0;fillColor=#e1d5e7;strokeColor=#DBA8F2;" edge="1" parent="1">
          <mxGeometry width="50" height="50" relative="1" as="geometry">
            <mxPoint x="-1514.7300000000002" y="443.6700000000001" as="sourcePoint" />
            <mxPoint x="-1454.7300000000002" y="423.6700000000001" as="targetPoint" />
          </mxGeometry>
        </mxCell>
        <mxCell id="wW4yl2Ik6cUgS3KZOihZ-210" value="" style="endArrow=none;html=1;entryX=0.5;entryY=1;entryDx=0;entryDy=0;exitX=0.5;exitY=0;exitDx=0;exitDy=0;fillColor=#e1d5e7;strokeColor=#DBA8F2;" edge="1" parent="1">
          <mxGeometry width="50" height="50" relative="1" as="geometry">
            <mxPoint x="-1484.7300000000002" y="443.6700000000001" as="sourcePoint" />
            <mxPoint x="-1484.7300000000002" y="423.6700000000001" as="targetPoint" />
          </mxGeometry>
        </mxCell>
        <mxCell id="wW4yl2Ik6cUgS3KZOihZ-211" value="" style="endArrow=none;html=1;entryX=0.5;entryY=1;entryDx=0;entryDy=0;fillColor=#e1d5e7;strokeColor=#DBA8F2;" edge="1" parent="1">
          <mxGeometry width="50" height="50" relative="1" as="geometry">
            <mxPoint x="-1514.7300000000002" y="443.6700000000001" as="sourcePoint" />
            <mxPoint x="-1484.7300000000002" y="423.6700000000001" as="targetPoint" />
          </mxGeometry>
        </mxCell>
        <mxCell id="wW4yl2Ik6cUgS3KZOihZ-212" value="" style="endArrow=none;html=1;entryX=0.5;entryY=1;entryDx=0;entryDy=0;exitX=0.5;exitY=0;exitDx=0;exitDy=0;fillColor=#e1d5e7;strokeColor=#DBA8F2;" edge="1" parent="1">
          <mxGeometry width="50" height="50" relative="1" as="geometry">
            <mxPoint x="-1454.7300000000002" y="443.6700000000001" as="sourcePoint" />
            <mxPoint x="-1484.7300000000002" y="423.6700000000001" as="targetPoint" />
          </mxGeometry>
        </mxCell>
        <mxCell id="wW4yl2Ik6cUgS3KZOihZ-213" value="" style="endArrow=none;html=1;exitX=0.5;exitY=0;exitDx=0;exitDy=0;fillColor=#e1d5e7;strokeColor=#DBA8F2;" edge="1" parent="1">
          <mxGeometry width="50" height="50" relative="1" as="geometry">
            <mxPoint x="-1424.7300000000002" y="443.6700000000001" as="sourcePoint" />
            <mxPoint x="-1484.7300000000002" y="423.6700000000001" as="targetPoint" />
          </mxGeometry>
        </mxCell>
        <mxCell id="wW4yl2Ik6cUgS3KZOihZ-214" value="" style="endArrow=none;html=1;entryX=0.5;entryY=1;entryDx=0;entryDy=0;exitX=0.5;exitY=0;exitDx=0;exitDy=0;fillColor=#e1d5e7;strokeColor=#DBA8F2;" edge="1" parent="1">
          <mxGeometry width="50" height="50" relative="1" as="geometry">
            <mxPoint x="-1514.7300000000002" y="443.6700000000001" as="sourcePoint" />
            <mxPoint x="-1514.7300000000002" y="423.6700000000001" as="targetPoint" />
          </mxGeometry>
        </mxCell>
        <mxCell id="wW4yl2Ik6cUgS3KZOihZ-215" value="" style="endArrow=none;html=1;exitX=0.5;exitY=0;exitDx=0;exitDy=0;fillColor=#e1d5e7;strokeColor=#DBA8F2;" edge="1" parent="1">
          <mxGeometry width="50" height="50" relative="1" as="geometry">
            <mxPoint x="-1484.7300000000002" y="443.6700000000001" as="sourcePoint" />
            <mxPoint x="-1514.7300000000002" y="423.6700000000001" as="targetPoint" />
          </mxGeometry>
        </mxCell>
        <mxCell id="wW4yl2Ik6cUgS3KZOihZ-216" value="" style="endArrow=none;html=1;entryX=0.5;entryY=1;entryDx=0;entryDy=0;exitX=0.5;exitY=0;exitDx=0;exitDy=0;fillColor=#e1d5e7;strokeColor=#DBA8F2;" edge="1" parent="1">
          <mxGeometry width="50" height="50" relative="1" as="geometry">
            <mxPoint x="-1454.7300000000002" y="443.6700000000001" as="sourcePoint" />
            <mxPoint x="-1514.7300000000002" y="423.6700000000001" as="targetPoint" />
          </mxGeometry>
        </mxCell>
        <mxCell id="wW4yl2Ik6cUgS3KZOihZ-217" value="" style="endArrow=none;html=1;entryX=0.5;entryY=1;entryDx=0;entryDy=0;fillColor=#e1d5e7;strokeColor=#DBA8F2;" edge="1" parent="1">
          <mxGeometry width="50" height="50" relative="1" as="geometry">
            <mxPoint x="-1424.7300000000002" y="443.6700000000001" as="sourcePoint" />
            <mxPoint x="-1514.7300000000002" y="423.6700000000001" as="targetPoint" />
          </mxGeometry>
        </mxCell>
        <mxCell id="wW4yl2Ik6cUgS3KZOihZ-218" value="target-net" style="text;html=1;strokeColor=none;fillColor=none;align=center;verticalAlign=middle;whiteSpace=wrap;rounded=0;" vertex="1" parent="1">
          <mxGeometry x="-1496.75" y="345" width="55" height="20" as="geometry" />
        </mxCell>
        <mxCell id="wW4yl2Ik6cUgS3KZOihZ-219" value="&lt;font size=&quot;1&quot;&gt;&lt;b style=&quot;font-size: 18px&quot;&gt;critic&lt;/b&gt;&lt;/font&gt;" style="text;html=1;strokeColor=none;fillColor=none;align=center;verticalAlign=middle;whiteSpace=wrap;rounded=0;" vertex="1" parent="1">
          <mxGeometry x="-1587.5" y="463.66999999999973" width="53" height="16.33" as="geometry" />
        </mxCell>
        <mxCell id="wW4yl2Ik6cUgS3KZOihZ-220" value="" style="html=1;shadow=0;dashed=0;align=center;verticalAlign=middle;shape=mxgraph.arrows2.arrow;dy=0.53;dx=22.12;notch=0;rounded=1;strokeColor=#FFCCCC;rotation=-90;fillColor=#FFD966;" vertex="1" parent="1">
          <mxGeometry x="-2117.3900000000003" y="511.8199999999998" width="88.79" height="15" as="geometry" />
        </mxCell>
        <mxCell id="wW4yl2Ik6cUgS3KZOihZ-221" value="" style="html=1;shadow=0;dashed=0;align=center;verticalAlign=middle;shape=mxgraph.arrows2.arrow;dy=0.53;dx=22.12;notch=0;rounded=1;rotation=-90;fillColor=#FFD966;strokeColor=#FFD966;" vertex="1" parent="1">
          <mxGeometry x="-1922.39" y="511.8199999999998" width="88.79" height="15" as="geometry" />
        </mxCell>
        <mxCell id="wW4yl2Ik6cUgS3KZOihZ-222" value="" style="rounded=0;whiteSpace=wrap;html=1;fillColor=#B9E88B;strokeColor=#B9E88B;" vertex="1" parent="1">
          <mxGeometry x="-2107.46" y="237.5" width="70" height="20" as="geometry" />
        </mxCell>
        <mxCell id="wW4yl2Ik6cUgS3KZOihZ-223" value="" style="ellipse;whiteSpace=wrap;html=1;aspect=fixed;strokeColor=#996185;fillColor=#e6d0de;gradientColor=#d5739d;" vertex="1" parent="1">
          <mxGeometry x="-2102.46" y="240.5" width="14" height="14" as="geometry" />
        </mxCell>
        <mxCell id="wW4yl2Ik6cUgS3KZOihZ-224" value="" style="ellipse;whiteSpace=wrap;html=1;aspect=fixed;strokeColor=#996185;fillColor=#e6d0de;gradientColor=#d5739d;" vertex="1" parent="1">
          <mxGeometry x="-2079.46" y="240.5" width="14" height="14" as="geometry" />
        </mxCell>
        <mxCell id="wW4yl2Ik6cUgS3KZOihZ-225" value="" style="ellipse;whiteSpace=wrap;html=1;aspect=fixed;strokeColor=#996185;fillColor=#e6d0de;gradientColor=#d5739d;" vertex="1" parent="1">
          <mxGeometry x="-2056.46" y="240.5" width="14" height="14" as="geometry" />
        </mxCell>
        <mxCell id="wW4yl2Ik6cUgS3KZOihZ-226" value="" style="rounded=0;whiteSpace=wrap;html=1;fillColor=#D6E6F2;strokeColor=#D6E6F2;" vertex="1" parent="1">
          <mxGeometry x="-1913" y="544.3299999999998" width="70" height="20" as="geometry" />
        </mxCell>
        <mxCell id="wW4yl2Ik6cUgS3KZOihZ-227" value="" style="ellipse;whiteSpace=wrap;html=1;aspect=fixed;fillColor=#6EA3E0;strokeColor=#6EA3E0;" vertex="1" parent="1">
          <mxGeometry x="-1908" y="547.3299999999998" width="14" height="14" as="geometry" />
        </mxCell>
        <mxCell id="wW4yl2Ik6cUgS3KZOihZ-228" value="" style="ellipse;whiteSpace=wrap;html=1;aspect=fixed;fillColor=#6EA3E0;strokeColor=#6EA3E0;" vertex="1" parent="1">
          <mxGeometry x="-1862" y="547.3299999999998" width="14" height="14" as="geometry" />
        </mxCell>
        <mxCell id="wW4yl2Ik6cUgS3KZOihZ-229" value="" style="ellipse;whiteSpace=wrap;html=1;aspect=fixed;fillColor=#6EA3E0;strokeColor=#6EA3E0;" vertex="1" parent="1">
          <mxGeometry x="-1885" y="547.3299999999998" width="14" height="14" as="geometry" />
        </mxCell>
        <mxCell id="wW4yl2Ik6cUgS3KZOihZ-230" value="" style="rounded=0;whiteSpace=wrap;html=1;fillColor=#D6E6F2;strokeColor=#D6E6F2;" vertex="1" parent="1">
          <mxGeometry x="-1771.25" y="532.7199999999999" width="70" height="20" as="geometry" />
        </mxCell>
        <mxCell id="wW4yl2Ik6cUgS3KZOihZ-231" value="" style="ellipse;whiteSpace=wrap;html=1;aspect=fixed;fillColor=#6EA3E0;strokeColor=#6EA3E0;" vertex="1" parent="1">
          <mxGeometry x="-1766.25" y="535.7199999999999" width="14" height="14" as="geometry" />
        </mxCell>
        <mxCell id="wW4yl2Ik6cUgS3KZOihZ-232" value="" style="ellipse;whiteSpace=wrap;html=1;aspect=fixed;fillColor=#6EA3E0;strokeColor=#6EA3E0;" vertex="1" parent="1">
          <mxGeometry x="-1720.25" y="535.7199999999999" width="14" height="14" as="geometry" />
        </mxCell>
        <mxCell id="wW4yl2Ik6cUgS3KZOihZ-233" value="" style="ellipse;whiteSpace=wrap;html=1;aspect=fixed;fillColor=#6EA3E0;strokeColor=#6EA3E0;" vertex="1" parent="1">
          <mxGeometry x="-1743.25" y="535.7199999999999" width="14" height="14" as="geometry" />
        </mxCell>
        <mxCell id="wW4yl2Ik6cUgS3KZOihZ-234" value="" style="rounded=0;whiteSpace=wrap;html=1;fillColor=#B9E88B;strokeColor=#B9E88B;" vertex="1" parent="1">
          <mxGeometry x="-1671.25" y="532.7199999999999" width="70" height="20" as="geometry" />
        </mxCell>
        <mxCell id="wW4yl2Ik6cUgS3KZOihZ-235" value="" style="ellipse;whiteSpace=wrap;html=1;aspect=fixed;strokeColor=#996185;fillColor=#e6d0de;gradientColor=#d5739d;" vertex="1" parent="1">
          <mxGeometry x="-1666.25" y="535.7199999999999" width="14" height="14" as="geometry" />
        </mxCell>
        <mxCell id="wW4yl2Ik6cUgS3KZOihZ-236" value="" style="ellipse;whiteSpace=wrap;html=1;aspect=fixed;strokeColor=#996185;fillColor=#e6d0de;gradientColor=#d5739d;" vertex="1" parent="1">
          <mxGeometry x="-1643.25" y="535.7199999999999" width="14" height="14" as="geometry" />
        </mxCell>
        <mxCell id="wW4yl2Ik6cUgS3KZOihZ-237" value="" style="ellipse;whiteSpace=wrap;html=1;aspect=fixed;strokeColor=#996185;fillColor=#e6d0de;gradientColor=#d5739d;" vertex="1" parent="1">
          <mxGeometry x="-1620.25" y="535.7199999999999" width="14" height="14" as="geometry" />
        </mxCell>
        <mxCell id="wW4yl2Ik6cUgS3KZOihZ-238" value="" style="rounded=0;whiteSpace=wrap;html=1;fillColor=#B9E88B;strokeColor=#B9E88B;" vertex="1" parent="1">
          <mxGeometry x="-1593.75" y="532.7199999999999" width="70" height="20" as="geometry" />
        </mxCell>
        <mxCell id="wW4yl2Ik6cUgS3KZOihZ-239" value="" style="ellipse;whiteSpace=wrap;html=1;aspect=fixed;strokeColor=#996185;fillColor=#e6d0de;gradientColor=#d5739d;" vertex="1" parent="1">
          <mxGeometry x="-1588.75" y="535.7199999999999" width="14" height="14" as="geometry" />
        </mxCell>
        <mxCell id="wW4yl2Ik6cUgS3KZOihZ-240" value="" style="ellipse;whiteSpace=wrap;html=1;aspect=fixed;strokeColor=#996185;fillColor=#e6d0de;gradientColor=#d5739d;" vertex="1" parent="1">
          <mxGeometry x="-1565.75" y="535.7199999999999" width="14" height="14" as="geometry" />
        </mxCell>
        <mxCell id="wW4yl2Ik6cUgS3KZOihZ-241" value="" style="ellipse;whiteSpace=wrap;html=1;aspect=fixed;strokeColor=#996185;fillColor=#e6d0de;gradientColor=#d5739d;" vertex="1" parent="1">
          <mxGeometry x="-1542.75" y="535.7199999999999" width="14" height="14" as="geometry" />
        </mxCell>
        <mxCell id="wW4yl2Ik6cUgS3KZOihZ-242" value="" style="rounded=0;whiteSpace=wrap;html=1;fillColor=#B9E88B;strokeColor=#B9E88B;" vertex="1" parent="1">
          <mxGeometry x="-1493.75" y="532.7199999999999" width="70" height="20" as="geometry" />
        </mxCell>
        <mxCell id="wW4yl2Ik6cUgS3KZOihZ-243" value="" style="ellipse;whiteSpace=wrap;html=1;aspect=fixed;strokeColor=#996185;fillColor=#e6d0de;gradientColor=#d5739d;" vertex="1" parent="1">
          <mxGeometry x="-1488.75" y="535.7199999999999" width="14" height="14" as="geometry" />
        </mxCell>
        <mxCell id="wW4yl2Ik6cUgS3KZOihZ-244" value="" style="ellipse;whiteSpace=wrap;html=1;aspect=fixed;strokeColor=#996185;fillColor=#e6d0de;gradientColor=#d5739d;" vertex="1" parent="1">
          <mxGeometry x="-1465.75" y="535.7199999999999" width="14" height="14" as="geometry" />
        </mxCell>
        <mxCell id="wW4yl2Ik6cUgS3KZOihZ-245" value="" style="ellipse;whiteSpace=wrap;html=1;aspect=fixed;strokeColor=#996185;fillColor=#e6d0de;gradientColor=#d5739d;" vertex="1" parent="1">
          <mxGeometry x="-1442.75" y="535.7199999999999" width="14" height="14" as="geometry" />
        </mxCell>
        <mxCell id="wW4yl2Ik6cUgS3KZOihZ-246" value="…" style="text;html=1;strokeColor=none;fillColor=none;align=center;verticalAlign=middle;whiteSpace=wrap;rounded=0;fontSize=17;fontColor=#8C8C8C;" vertex="1" parent="1">
          <mxGeometry x="-1525" y="535.7199999999999" width="36.25" height="7" as="geometry" />
        </mxCell>
        <mxCell id="wW4yl2Ik6cUgS3KZOihZ-247" value="" style="rounded=0;whiteSpace=wrap;html=1;fillColor=#D6E6F2;strokeColor=#D6E6F2;" vertex="1" parent="1">
          <mxGeometry x="-1649.88" y="576.6099999999998" width="70" height="20" as="geometry" />
        </mxCell>
        <mxCell id="wW4yl2Ik6cUgS3KZOihZ-248" value="" style="ellipse;whiteSpace=wrap;html=1;aspect=fixed;fillColor=#6EA3E0;strokeColor=#6EA3E0;" vertex="1" parent="1">
          <mxGeometry x="-1644.88" y="579.6099999999998" width="14" height="14" as="geometry" />
        </mxCell>
        <mxCell id="wW4yl2Ik6cUgS3KZOihZ-249" value="" style="ellipse;whiteSpace=wrap;html=1;aspect=fixed;fillColor=#6EA3E0;strokeColor=#6EA3E0;" vertex="1" parent="1">
          <mxGeometry x="-1598.88" y="579.6099999999998" width="14" height="14" as="geometry" />
        </mxCell>
        <mxCell id="wW4yl2Ik6cUgS3KZOihZ-250" value="" style="ellipse;whiteSpace=wrap;html=1;aspect=fixed;fillColor=#6EA3E0;strokeColor=#6EA3E0;" vertex="1" parent="1">
          <mxGeometry x="-1621.88" y="579.6099999999998" width="14" height="14" as="geometry" />
        </mxCell>
        <mxCell id="wW4yl2Ik6cUgS3KZOihZ-251" value="" style="rounded=0;whiteSpace=wrap;html=1;fillColor=#B9E88B;strokeColor=#B9E88B;" vertex="1" parent="1">
          <mxGeometry x="-1549.88" y="576.6099999999998" width="70" height="20" as="geometry" />
        </mxCell>
        <mxCell id="wW4yl2Ik6cUgS3KZOihZ-252" value="" style="ellipse;whiteSpace=wrap;html=1;aspect=fixed;strokeColor=#996185;fillColor=#e6d0de;gradientColor=#d5739d;" vertex="1" parent="1">
          <mxGeometry x="-1544.88" y="579.6099999999998" width="14" height="14" as="geometry" />
        </mxCell>
        <mxCell id="wW4yl2Ik6cUgS3KZOihZ-253" value="" style="ellipse;whiteSpace=wrap;html=1;aspect=fixed;strokeColor=#996185;fillColor=#e6d0de;gradientColor=#d5739d;" vertex="1" parent="1">
          <mxGeometry x="-1521.88" y="579.6099999999998" width="14" height="14" as="geometry" />
        </mxCell>
        <mxCell id="wW4yl2Ik6cUgS3KZOihZ-254" value="" style="ellipse;whiteSpace=wrap;html=1;aspect=fixed;strokeColor=#996185;fillColor=#e6d0de;gradientColor=#d5739d;" vertex="1" parent="1">
          <mxGeometry x="-1498.88" y="579.6099999999998" width="14" height="14" as="geometry" />
        </mxCell>
        <mxCell id="wW4yl2Ik6cUgS3KZOihZ-255" value="" style="rounded=0;whiteSpace=wrap;html=1;fillColor=#B9E88B;strokeColor=#B9E88B;" vertex="1" parent="1">
          <mxGeometry x="-1472.38" y="576.6099999999998" width="70.19" height="20" as="geometry" />
        </mxCell>
        <mxCell id="wW4yl2Ik6cUgS3KZOihZ-256" value="" style="ellipse;whiteSpace=wrap;html=1;aspect=fixed;strokeColor=#996185;fillColor=#e6d0de;gradientColor=#d5739d;" vertex="1" parent="1">
          <mxGeometry x="-1467.38" y="579.6099999999998" width="14" height="14" as="geometry" />
        </mxCell>
        <mxCell id="wW4yl2Ik6cUgS3KZOihZ-257" value="" style="ellipse;whiteSpace=wrap;html=1;aspect=fixed;strokeColor=#996185;fillColor=#e6d0de;gradientColor=#d5739d;" vertex="1" parent="1">
          <mxGeometry x="-1444.38" y="579.6099999999998" width="14" height="14" as="geometry" />
        </mxCell>
        <mxCell id="wW4yl2Ik6cUgS3KZOihZ-258" value="" style="ellipse;whiteSpace=wrap;html=1;aspect=fixed;strokeColor=#996185;fillColor=#e6d0de;gradientColor=#d5739d;" vertex="1" parent="1">
          <mxGeometry x="-1421.38" y="579.6099999999998" width="14" height="14" as="geometry" />
        </mxCell>
        <mxCell id="wW4yl2Ik6cUgS3KZOihZ-259" value="" style="rounded=0;whiteSpace=wrap;html=1;fillColor=#B9E88B;strokeColor=#B9E88B;" vertex="1" parent="1">
          <mxGeometry x="-1372.38" y="576.6099999999998" width="70" height="20" as="geometry" />
        </mxCell>
        <mxCell id="wW4yl2Ik6cUgS3KZOihZ-260" value="" style="ellipse;whiteSpace=wrap;html=1;aspect=fixed;strokeColor=#996185;fillColor=#e6d0de;gradientColor=#d5739d;" vertex="1" parent="1">
          <mxGeometry x="-1367.38" y="579.6099999999998" width="14" height="14" as="geometry" />
        </mxCell>
        <mxCell id="wW4yl2Ik6cUgS3KZOihZ-261" value="" style="ellipse;whiteSpace=wrap;html=1;aspect=fixed;strokeColor=#996185;fillColor=#e6d0de;gradientColor=#d5739d;" vertex="1" parent="1">
          <mxGeometry x="-1344.38" y="579.6099999999998" width="14" height="14" as="geometry" />
        </mxCell>
        <mxCell id="wW4yl2Ik6cUgS3KZOihZ-262" value="" style="ellipse;whiteSpace=wrap;html=1;aspect=fixed;strokeColor=#996185;fillColor=#e6d0de;gradientColor=#d5739d;" vertex="1" parent="1">
          <mxGeometry x="-1321.38" y="579.6099999999998" width="14" height="14" as="geometry" />
        </mxCell>
        <mxCell id="wW4yl2Ik6cUgS3KZOihZ-263" value="…" style="text;html=1;strokeColor=none;fillColor=none;align=center;verticalAlign=middle;whiteSpace=wrap;rounded=0;fontSize=17;fontColor=#8C8C8C;" vertex="1" parent="1">
          <mxGeometry x="-1403.63" y="579.6099999999998" width="36.25" height="7" as="geometry" />
        </mxCell>
        <mxCell id="wW4yl2Ik6cUgS3KZOihZ-264" value="" style="ellipse;whiteSpace=wrap;html=1;aspect=fixed;fillColor=#f5f5f5;strokeColor=#666666;gradientColor=#b3b3b3;" vertex="1" parent="1">
          <mxGeometry x="-1901.42" y="178.65999999999997" width="20" height="20" as="geometry" />
        </mxCell>
        <mxCell id="wW4yl2Ik6cUgS3KZOihZ-265" value="" style="ellipse;whiteSpace=wrap;html=1;aspect=fixed;fillColor=#f5f5f5;strokeColor=#666666;gradientColor=#b3b3b3;" vertex="1" parent="1">
          <mxGeometry x="-1729.25" y="154" width="20" height="20" as="geometry" />
        </mxCell>
        <mxCell id="wW4yl2Ik6cUgS3KZOihZ-266" value="" style="ellipse;whiteSpace=wrap;html=1;aspect=fixed;fillColor=#dae8fc;strokeColor=#6c8ebf;gradientColor=#7ea6e0;" vertex="1" parent="1">
          <mxGeometry x="-1671.22" y="239" width="20" height="20" as="geometry" />
        </mxCell>
        <mxCell id="wW4yl2Ik6cUgS3KZOihZ-267" value="" style="ellipse;whiteSpace=wrap;html=1;aspect=fixed;fillColor=#dae8fc;strokeColor=#6c8ebf;gradientColor=#7ea6e0;" vertex="1" parent="1">
          <mxGeometry x="-1549.65" y="242" width="20" height="20" as="geometry" />
        </mxCell>
        <mxCell id="wW4yl2Ik6cUgS3KZOihZ-268" value="" style="ellipse;whiteSpace=wrap;html=1;aspect=fixed;fillColor=#ffcd28;strokeColor=#d79b00;gradientColor=#ffa500;" vertex="1" parent="1">
          <mxGeometry x="-1571.2099999999998" y="194.30999999999995" width="20" height="20" as="geometry" />
        </mxCell>
        <mxCell id="wW4yl2Ik6cUgS3KZOihZ-269" value="" style="ellipse;whiteSpace=wrap;html=1;aspect=fixed;fillColor=#ffcd28;strokeColor=#d79b00;gradientColor=#ffa500;" vertex="1" parent="1">
          <mxGeometry x="-1606.25" y="151" width="20" height="20" as="geometry" />
        </mxCell>
        <mxCell id="wW4yl2Ik6cUgS3KZOihZ-270" value="" style="shape=image;verticalLabelPosition=bottom;labelBackgroundColor=#ffffff;verticalAlign=top;aspect=fixed;imageAspect=0;image=data:image/png,iVBORw0KGgoAAAANSUhEUgAAAB4AAAAjCAYAAACD1LrRAAADZklEQVRYCe2VW2gUVxyHz8xms95SL8iGmJJ6I6CQUjBiBRuqTy15cIviQxcJNSCSeHkU2xqsUohV1opVKCU0taStrTbiYh8kNIUS+qAoRkXFSyQWkZImabK7M7uzs1+Z3T0zJ4phNyUGSgYOMzAwH9/v/ztnBFN0iSniMg1+aclPRz0d9aQl8N/KZT6i6/Mm6lctoyJYSU3oMD3DSW5Hv+BYJELEWcdOcvFueoxAJpOZ+AFi3jtDc+18fJrGjOr3OXHpd35oWk3dgTZ2V5cghMgurXQtrXmwA5RrQsZG7ylCVX40IdBmreGTq0bWKH2vlbcWV1Hpy0EduP/1j7mc8oATBttPfqaxujQLFaKE5c1djMogY6cJzdRc2+z7Pb9hKqYTA9v9fLu5Ap+McVYdR9X5DbVRH/BshW8RjdGYG6+EOveiov67s4FX3Rh15oXaeWpLXbB6D7DK74H1BVv4fuj5mG3bLgJs9XJo9Yx8xAKhBwmfHfaowODp93hFk2CNOfVf8TQ9FuxAiwLHL+3gNddWoAfDnBtRuTEufFCBnh+D0AK8HekjrcxXQosAj9C5tdz7qNCYt6mDIZU7GmVbpc8rlr+Wgzctd74qNJ1OFxi1cZFG9aNagPXH+/HGa/NXx2YW6jJmQcnKvfxhejFLsAO1LKswsHWthTeU0gjfUnZ1m56vdYNP18z05i98LG7qwsjH/Cy0YLBxLswCxUaU1hHpk742A9EW1i8LeGC9nIbO0WzMKlTaplKpwozj321ijttWgQi8w5cDeeHBbk5G9hFaqLvz1co20j6QIfNPDycOd/KnZaNCk4WCzV+bWaI0Wvhr+OiKBVYfF46303N+u7K/Bf7ag9wYucM34bVs+fohyfxcnYgdqGmahRkzfJZw0DMSQmfuig3Ub9xJx32TB0fW4ZfbyDm/S4MsqSqnpinKk2dtk8kiwJhcOfQmZTJuTadsxVbabuV+DsPnG1jkJqKhz17Ku/t/oT+VOyxkzNLWMIwCjZ1x2oNc/ynC/n0tHGnvpi/HzA3aHuL6j5/x4d4WWk+doeex4RZLQp1CSXAiUQzY2zzjPqk/AqfRY8D5mBOJRBHG4+K8l+OBnVI5Mcfj8ZcHVmP+f4LVE0vdv06xJtV4ysGObXYrKY2OxWKTVy5p/CLwv+zKsYPEkuuXAAAAAElFTkSuQmCC;fontStyle=1" vertex="1" parent="1">
          <mxGeometry x="-2138.2799999999997" y="232.5" width="21.43" height="25" as="geometry" />
        </mxCell>
        <mxCell id="wW4yl2Ik6cUgS3KZOihZ-271" value="" style="shape=image;verticalLabelPosition=bottom;labelBackgroundColor=#ffffff;verticalAlign=top;aspect=fixed;imageAspect=0;image=data:image/png,iVBORw0KGgoAAAANSUhEUgAAACgAAAAjCAYAAADmOUiuAAADTUlEQVRYCe2WeUgUURzH38y6ViZlhXaYmdBJQVR0YEQWQSciWWFtFxkoItEfQUVlhWW4JWKUEVHRZQSroiVEdBFRFFEkHUZhGkUHlZIuruzKJ9Z2Z97u2iEzRH/swmPfzJv3fp/5fn+/N0/wn//Ef85HGNCoQ2EF/5mCbfVXKMqaz8ThsfQbOIaF+bf41l5HdckB7HZ7ZztQUsULt1GkwPl/YbGLurIsJseoKEpPRq08wvV75Wycmsz245sYHSEQwtsUrFP38dwTGMDo1R8AnTw5nMpQq9IJEDVtD4/avCE91B9MITFhCJZOOC+glfHbHmCygL/bZjp4X7GekZFeOIGIGEHu9RZNEGdZOtGKXz2BsCSRe9OljZvV+aWCHW/PkD7YotkXNauIV5J930+n0ksCVAeto7rVLCx9nV8AfqVy7VDdPjWGtNOf6NDmeXi2dwpWzV6VmKXnadLGzet0CeiuzWdKT5+1QqDG2XA0y0GbOZ8eg+IHVHqz4NgH6QXkZ431uwB0cjU7UVdPqMTZHATwOWvIjPfbL1B6zKSoXvLfGFPA7FDA75WsHqj6ck8glL4sOfctYFJrTSbxFr1ArJN3U2t2+foihgC21WQyRAquRM6iuEHPPvjCheWxqH57RQSjN9+lPeAVzLsIAnTzeOcEKfkFlsQcrkm7h+fZfpKj9PwUlgSyrnZujuZRSSsFAbZRbusvqSOwzrDzWkuvr9TkzWaEXECxqyjXt0dpaXO6QYBOytKj9eoUgsi5pXz0Odx0+yhFW9IYoPrzT6H34hN8Blrul1JY8c70Sg4CdHEjN0mqYEHEuK3cd4O74TKHTt2hKnuYNG5l0q4ntL4+x5rkZZx8o0ltjnwQ+qlrdtiI0xQSCLUvY+csIjXnLC9djRSnROoV7j0gxA4nIW4c2VX/ah90PSR/eh89D9VoxtiO89TpFaWFS5nxkoIKUUnz2H6p0fRDgt+CIIt/3u5oqsVRnMe2PDunbtQTUKPNtTgO7mBrXiGlF+/QKFW4f1Ez/7sENDOA0bXCgGEFjSpgdL7JOdjOg8MbWJGRQYaRtnovV3wHKJMBPbysLmZ/QQEFRlphGQ9933eTAY0aGjo/DBiqSffuhBXsnl6hT/8AJMfu3uWj4ScAAAAASUVORK5CYII=;" vertex="1" parent="1">
          <mxGeometry x="-1943" y="229.5" width="28.58" height="25" as="geometry" />
        </mxCell>
        <mxCell id="wW4yl2Ik6cUgS3KZOihZ-272" value="" style="shape=image;verticalLabelPosition=bottom;labelBackgroundColor=#ffffff;verticalAlign=top;aspect=fixed;imageAspect=0;image=data:image/png,iVBORw0KGgoAAAANSUhEUgAAAB4AAAAjCAYAAACD1LrRAAADZklEQVRYCe2VW2gUVxyHz8xms95SL8iGmJJ6I6CQUjBiBRuqTy15cIviQxcJNSCSeHkU2xqsUohV1opVKCU0taStrTbiYh8kNIUS+qAoRkXFSyQWkZImabK7M7uzs1+Z3T0zJ4phNyUGSgYOMzAwH9/v/ztnBFN0iSniMg1+aclPRz0d9aQl8N/KZT6i6/Mm6lctoyJYSU3oMD3DSW5Hv+BYJELEWcdOcvFueoxAJpOZ+AFi3jtDc+18fJrGjOr3OXHpd35oWk3dgTZ2V5cghMgurXQtrXmwA5RrQsZG7ylCVX40IdBmreGTq0bWKH2vlbcWV1Hpy0EduP/1j7mc8oATBttPfqaxujQLFaKE5c1djMogY6cJzdRc2+z7Pb9hKqYTA9v9fLu5Ap+McVYdR9X5DbVRH/BshW8RjdGYG6+EOveiov67s4FX3Rh15oXaeWpLXbB6D7DK74H1BVv4fuj5mG3bLgJs9XJo9Yx8xAKhBwmfHfaowODp93hFk2CNOfVf8TQ9FuxAiwLHL+3gNddWoAfDnBtRuTEufFCBnh+D0AK8HekjrcxXQosAj9C5tdz7qNCYt6mDIZU7GmVbpc8rlr+Wgzctd74qNJ1OFxi1cZFG9aNagPXH+/HGa/NXx2YW6jJmQcnKvfxhejFLsAO1LKswsHWthTeU0gjfUnZ1m56vdYNP18z05i98LG7qwsjH/Cy0YLBxLswCxUaU1hHpk742A9EW1i8LeGC9nIbO0WzMKlTaplKpwozj321ijttWgQi8w5cDeeHBbk5G9hFaqLvz1co20j6QIfNPDycOd/KnZaNCk4WCzV+bWaI0Wvhr+OiKBVYfF46303N+u7K/Bf7ag9wYucM34bVs+fohyfxcnYgdqGmahRkzfJZw0DMSQmfuig3Ub9xJx32TB0fW4ZfbyDm/S4MsqSqnpinKk2dtk8kiwJhcOfQmZTJuTadsxVbabuV+DsPnG1jkJqKhz17Ku/t/oT+VOyxkzNLWMIwCjZ1x2oNc/ynC/n0tHGnvpi/HzA3aHuL6j5/x4d4WWk+doeex4RZLQp1CSXAiUQzY2zzjPqk/AqfRY8D5mBOJRBHG4+K8l+OBnVI5Mcfj8ZcHVmP+f4LVE0vdv06xJtV4ysGObXYrKY2OxWKTVy5p/CLwv+zKsYPEkuuXAAAAAElFTkSuQmCC;fontStyle=1" vertex="1" parent="1">
          <mxGeometry x="-1693.44" y="530.2199999999999" width="21.43" height="25" as="geometry" />
        </mxCell>
        <mxCell id="wW4yl2Ik6cUgS3KZOihZ-273" value="" style="shape=image;verticalLabelPosition=bottom;labelBackgroundColor=#ffffff;verticalAlign=top;aspect=fixed;imageAspect=0;image=data:image/png,iVBORw0KGgoAAAANSUhEUgAAADEAAAAzCAYAAAA+VOAXAAADK0lEQVRoBe2YbUhTYRTH773bXCkyXz4MpaTwlSLRTP2QMayISIIMjVUIhYZCYCChxTCyl/UKlpXSpz5M60MkJUbQZiUJiYUrSE1CCCF6wY0xFR3b9R93qPdu+mn3TJvcwQPnPtx7nvM7/3ue59wxWAM/Zg0wQIH4X1RUlFCUIMyA8joRJlOWK0UJWekjfFhRgjCZslxFvBI8z0d+7+RyuSIfwul0Rj6Ew+FQIGTtKFQPEyoxhZHnZlSVFCBzox6JiUnYnG1AaXUjWixP0W4+gsLKTkxTRS7xQwPBT8DWkI84jgHDapFedhtd/Xb0d7eh1pAEDcuAYdTY0tAPj2RxKpMEYqrnNFLVLBiGARO1G/d+8mJ8s8NoLdGDY7XY//CvOE9oEUDMwlqTApUAIAx1BurezwaE6Pt2AztjUlBjDZwPuEnGBQHENNpLo8EuQDAsYgsa0eeSROUbwdWiYtwa80km6UwCCA96z6RBvQgh1IUayQdbMbSYeC9GrTaMeukCl3oigAA8A43I0c7XxAIMq0VGZSek5SFdmNImgQAm0Xd+O6L9u9B8bQgwXBwM1+2YoYx4GV9EEAA8w3hwQA9VEAi7PhemD+HFoIMAwDveoCEvVlLkgiocEso64Fgmg1RTsiD434MYGFusXn9Mvh+PcWyTJgBEtaEarwNvo4rf70cWxGRHObKqXi5pJdy9Z5EtKXQu4TiehfGNkgHhw9dLO6BNPoEX7uDETsByOB7c/E6lyb2Az2HaXoWVZUDMoOuk0E7osKflOwKPMS8+mrZBI0CwWuQ1fUEYGRD6RxE/jrvFUf5Wg9Plo657XAx0+hMuFgqnOIuYnHq8lZ7ewaIRXLvd7hA/ijzvUJsWj/Sivdi1VY91qlikGspReaoC+7J0UKl0yDx0BbZfkmaQIODlXMzNzYUI4R2Epa0Hf/wxejExZIXlThPO1ZtwufkRXg05Ef7wRaSI/8tGQFEgREFX11KUWN38i6uvnBKeAdyvOgqj0ShrVJhtCD56Vg7CN4qu5mswm82yxs0n9iX92spBiOqTWwoEeUpDdKgoEWLiyB9TlCBPaYgO14QS/wDh95EAzCOMogAAAABJRU5ErkJggg==;" vertex="1" parent="1">
          <mxGeometry x="-1683.63" y="570.9999999999997" width="30" height="31.23" as="geometry" />
        </mxCell>
        <mxCell id="wW4yl2Ik6cUgS3KZOihZ-274" value="" style="shape=image;verticalLabelPosition=bottom;labelBackgroundColor=#ffffff;verticalAlign=top;aspect=fixed;imageAspect=0;image=data:image/png,iVBORw0KGgoAAAANSUhEUgAAADEAAAAzCAYAAAA+VOAXAAADK0lEQVRoBe2YbUhTYRTH773bXCkyXz4MpaTwlSLRTP2QMayISIIMjVUIhYZCYCChxTCyl/UKlpXSpz5M60MkJUbQZiUJiYUrSE1CCCF6wY0xFR3b9R93qPdu+mn3TJvcwQPnPtx7nvM7/3ue59wxWAM/Zg0wQIH4X1RUlFCUIMyA8joRJlOWK0UJWekjfFhRgjCZslxFvBI8z0d+7+RyuSIfwul0Rj6Ew+FQIGTtKFQPEyoxhZHnZlSVFCBzox6JiUnYnG1AaXUjWixP0W4+gsLKTkxTRS7xQwPBT8DWkI84jgHDapFedhtd/Xb0d7eh1pAEDcuAYdTY0tAPj2RxKpMEYqrnNFLVLBiGARO1G/d+8mJ8s8NoLdGDY7XY//CvOE9oEUDMwlqTApUAIAx1BurezwaE6Pt2AztjUlBjDZwPuEnGBQHENNpLo8EuQDAsYgsa0eeSROUbwdWiYtwa80km6UwCCA96z6RBvQgh1IUayQdbMbSYeC9GrTaMeukCl3oigAA8A43I0c7XxAIMq0VGZSek5SFdmNImgQAm0Xd+O6L9u9B8bQgwXBwM1+2YoYx4GV9EEAA8w3hwQA9VEAi7PhemD+HFoIMAwDveoCEvVlLkgiocEso64Fgmg1RTsiD434MYGFusXn9Mvh+PcWyTJgBEtaEarwNvo4rf70cWxGRHObKqXi5pJdy9Z5EtKXQu4TiehfGNkgHhw9dLO6BNPoEX7uDETsByOB7c/E6lyb2Az2HaXoWVZUDMoOuk0E7osKflOwKPMS8+mrZBI0CwWuQ1fUEYGRD6RxE/jrvFUf5Wg9Plo657XAx0+hMuFgqnOIuYnHq8lZ7ewaIRXLvd7hA/ijzvUJsWj/Sivdi1VY91qlikGspReaoC+7J0UKl0yDx0BbZfkmaQIODlXMzNzYUI4R2Epa0Hf/wxejExZIXlThPO1ZtwufkRXg05Ef7wRaSI/8tGQFEgREFX11KUWN38i6uvnBKeAdyvOgqj0ShrVJhtCD56Vg7CN4qu5mswm82yxs0n9iX92spBiOqTWwoEeUpDdKgoEWLiyB9TlCBPaYgO14QS/wDh95EAzCOMogAAAABJRU5ErkJggg==;" vertex="1" parent="1">
          <mxGeometry x="-1948" y="535.7199999999997" width="30" height="31.23" as="geometry" />
        </mxCell>
        <mxCell id="wW4yl2Ik6cUgS3KZOihZ-275" value="" style="shape=image;verticalLabelPosition=bottom;labelBackgroundColor=#ffffff;verticalAlign=top;aspect=fixed;imageAspect=0;image=data:image/png,iVBORw0KGgoAAAANSUhEUgAAACQAAAAdCAYAAADCdc79AAACj0lEQVRYCe2VW0gUURjHZ2Z33VJkvTwsSknhlSLRTH3IWKyISIIM7aEICg2FwEBCCzGyixQFlZHSUw+rvURSYgStVqKQWGhBahJCCNEFjfCCLrvLL2bby6ytLsQxhHZgmI9vzsz3O//zP+eTWGWXtMp4CAOFWpH/RaFZRh81Ul6UR/p6M/HxCWzMtFBcUU+T9QGtjYfIL2tnLohc4hVyTdJVm0uMIiHJRlJLrtPRP0R/ZwtVlgQMsoQk6dlU24/9XwDNdp8kWS8jSRJSxE5uf3b5yy6M0FxkRpGN7L373Z/XRIIVWsBWmYROhVFvfRrVvQuacuD8cJXtUUlU2gLz3kGCgeZoLY5E9gJJMtF59fT99JYDnKNcLijk2rhTk/SHgoHs9JxKQe8DUn2kJ3F/M8M+QRyM2boYc/ghtJFgILAP1JNl9HjICyYbSStrR2snLYQ2Fg4EM/Sd3Uqkezd5vKSCKTFYrgwxr60eJF4BIMA+wp19ZnSLoOS12dS9Wh5pZYAA19RzanOiNQZX1VKIK2ljKogy3pQwINfXQQbGfc51/9/56T6HNxgCoHTrKngWOMzL4n4KA5ppKyWj/Mkf7WC65zSZGpMrcUd4uMyqCQJy8v7CNoyJx3g8HTBhYBLrwVgUz44zZJ/j7RJbXv1SENA8HcfVlmBiV9NHAo88B6/rtmBQgWQjOQ3vWIZHEJBrgluFEe52oZhyqe6c8Bede8P5fPX0lonKquGF9tReLKYwhewvqUqJJbVgNzs2m1mjiybZUkrZiaPsyTCh05lIP3CJri+aRhsERtySOQaxtnTzzV3PweSwDevNBs7U1HHxxj2eDv8gNMpvQkEeWmK6f5EOA4USLaxQWKFQCoR6/wvrwipOx/FkswAAAABJRU5ErkJggg==;" vertex="1" parent="1">
          <mxGeometry x="-2138.8199999999997" y="543.1999999999997" width="25.61" height="20.63" as="geometry" />
        </mxCell>
        <mxCell id="wW4yl2Ik6cUgS3KZOihZ-276" value="" style="shape=image;verticalLabelPosition=bottom;labelBackgroundColor=#ffffff;verticalAlign=top;aspect=fixed;imageAspect=0;image=data:image/png,iVBORw0KGgoAAAANSUhEUgAAACQAAAAdCAYAAADCdc79AAACj0lEQVRYCe2VW0gUURjHZ2Z33VJkvTwsSknhlSLRTH3IWKyISIIM7aEICg2FwEBCCzGyixQFlZHSUw+rvURSYgStVqKQWGhBahJCCNEFjfCCLrvLL2bby6ytLsQxhHZgmI9vzsz3O//zP+eTWGWXtMp4CAOFWpH/RaFZRh81Ul6UR/p6M/HxCWzMtFBcUU+T9QGtjYfIL2tnLohc4hVyTdJVm0uMIiHJRlJLrtPRP0R/ZwtVlgQMsoQk6dlU24/9XwDNdp8kWS8jSRJSxE5uf3b5yy6M0FxkRpGN7L373Z/XRIIVWsBWmYROhVFvfRrVvQuacuD8cJXtUUlU2gLz3kGCgeZoLY5E9gJJMtF59fT99JYDnKNcLijk2rhTk/SHgoHs9JxKQe8DUn2kJ3F/M8M+QRyM2boYc/ghtJFgILAP1JNl9HjICyYbSStrR2snLYQ2Fg4EM/Sd3Uqkezd5vKSCKTFYrgwxr60eJF4BIMA+wp19ZnSLoOS12dS9Wh5pZYAA19RzanOiNQZX1VKIK2ljKogy3pQwINfXQQbGfc51/9/56T6HNxgCoHTrKngWOMzL4n4KA5ppKyWj/Mkf7WC65zSZGpMrcUd4uMyqCQJy8v7CNoyJx3g8HTBhYBLrwVgUz44zZJ/j7RJbXv1SENA8HcfVlmBiV9NHAo88B6/rtmBQgWQjOQ3vWIZHEJBrgluFEe52oZhyqe6c8Bede8P5fPX0lonKquGF9tReLKYwhewvqUqJJbVgNzs2m1mjiybZUkrZiaPsyTCh05lIP3CJri+aRhsERtySOQaxtnTzzV3PweSwDevNBs7U1HHxxj2eDv8gNMpvQkEeWmK6f5EOA4USLaxQWKFQCoR6/wvrwipOx/FkswAAAABJRU5ErkJggg==;" vertex="1" parent="1">
          <mxGeometry x="-1798.6" y="532.0899999999998" width="25.61" height="20.63" as="geometry" />
        </mxCell>
        <mxCell id="wW4yl2Ik6cUgS3KZOihZ-277" value="&lt;font face=&quot;Times New Roman&quot; color=&quot;#000000&quot;&gt;agent i&lt;/font&gt;" style="text;html=1;align=center;verticalAlign=middle;resizable=0;points=[];autosize=1;strokeColor=none;fontSize=17;fontColor=#8C8C8C;" vertex="1" parent="1">
          <mxGeometry x="-2023.9999999999998" y="580.3299999999998" width="60" height="30" as="geometry" />
        </mxCell>
        <mxCell id="wW4yl2Ik6cUgS3KZOihZ-278" value="&lt;font face=&quot;Times New Roman&quot; color=&quot;#000000&quot;&gt;agent 1&lt;/font&gt;" style="text;html=1;align=center;verticalAlign=middle;resizable=0;points=[];autosize=1;strokeColor=none;fontSize=17;fontColor=#8C8C8C;" vertex="1" parent="1">
          <mxGeometry x="-1547.28" y="590.9999999999997" width="70" height="30" as="geometry" />
        </mxCell>
        <mxCell id="wW4yl2Ik6cUgS3KZOihZ-279" value="&lt;font face=&quot;Times New Roman&quot; color=&quot;#000000&quot;&gt;agent 2&lt;/font&gt;" style="text;html=1;align=center;verticalAlign=middle;resizable=0;points=[];autosize=1;strokeColor=none;fontSize=17;fontColor=#8C8C8C;" vertex="1" parent="1">
          <mxGeometry x="-1471.1299999999999" y="590.9999999999997" width="70" height="30" as="geometry" />
        </mxCell>
        <mxCell id="wW4yl2Ik6cUgS3KZOihZ-280" value="&lt;font face=&quot;Times New Roman&quot; color=&quot;#000000&quot;&gt;agent n&lt;/font&gt;" style="text;html=1;align=center;verticalAlign=middle;resizable=0;points=[];autosize=1;strokeColor=none;fontSize=17;fontColor=#8C8C8C;" vertex="1" parent="1">
          <mxGeometry x="-1372.3799999999999" y="590.9999999999997" width="70" height="30" as="geometry" />
        </mxCell>
        <mxCell id="wW4yl2Ik6cUgS3KZOihZ-281" value="" style="shape=image;verticalLabelPosition=bottom;labelBackgroundColor=#ffffff;verticalAlign=top;aspect=fixed;imageAspect=0;image=data:image/png,iVBORw0KGgoAAAANSUhEUgAAADwAAAAlCAYAAAAeJYohAAAGzklEQVRoBe2ZDWxUVRaA73szDywVHChIUdQV11LcLrRWQIuutGCUP4VCdcElAnUp4UfFCImFZVdciiubZWUFYaFgABEZgkoFu8Au0AA1YtyiyEq0EInQSmDa0Gk6k/n5Nu9nOm+mb+gMjUkrNpm8e++795773XPuOee+Cq6zP3Gd8fIz8E9d47E1HKilfPkMxj2QQXr//vSP+qWn30PGoGxy8sYxZfYS1pSdxBVo/9sVG9hYe+CHcuZldEISAiEEtr7jWb7jI/Z+9D7vrHmFmSP6kSwJhKTQa+g8nGd87Zq6VWDwcbw4A0UDlukzfTeNZqSAi4riwdyoQguJLlkvc8Rt7tC+ynEAe9hbeAs2FVjuwZPb61oSNOyhsK9NswAh3cS40hraq3W3DuyrYkmWosFIXcdS+oMVymXWj+psmL1M6vQymlpuS7toaRXYX/1XHuwkaeZ6Q+4bfGfFi5st45MMYImuBdsjzd4SNcDFAyt5cf6r7Kr2W/b4MRpFMGhJYMgKcGHtY81OaWjJ/7Bcmu9EsxUIYWfAwkq8ra7Wz9fL70ex38Vzh1vv3ep0cXYQQW/tVbq62Jrv0DWnDGTxZ9Ye2Pv5H8hUVCsQSMoAFhyLB+BagH3UHt9F6frtHDnnsVx3/Vd72bRhJ59dslakCDZ8aTlQa3R/wDO9ZQ3E/svnqbDiaDrBilwHsurUJDu3/85JjbWsKDmJAgc475zGXcbxsqeO4s1TkQrwn13LKIe6Xplek3dEydOrInj5X5Yv1EbPgdncYVPDjY1bn93bwhH5aw9RMvo2FC0O2+mdV8IxCyduLSBBYE8FL6TZ9UhgCpHmCOgpn0lfbb0CZeAiS7EiWLPF8gV4+WThAOya5jqTPXczu8sPcKB8N85NK1lc+CjpDhuSkLB1S2Psol2cjgjQMaZtbk4M2POfOdyZfDcT/rSJbf9cyIhb7NjTXuSIyep8/11CpqInSMp9S5slmQsieGGjuR4u+0+y9D4jHCWn8fCYXIZm/oq01GTdfIWN3g/N4rWN5Zyqi8uGw3NrpUSA/Xy7IpfBiz41rCzAd6vySEqewFazihvfZ2pP3aR7THZGydOrInh+g+WLwNmVDO+sh6Okkav53mDyHJxHP81sJLo9vhHLsGw5Y3RjIsAB6k4epepieGN9x4vJ6JLLqvPhNvzVrBimIKSujN1g7YxjaDhA7frRerooKdy//OtwOPL8m9m/0LMqyTGety9Gg4Tr9YdWMqeoiCLL30yezumDTXaQOeH3MfoUUTS7hD0XTFCh6V0bGN01h798awqU/m947QEFOWUS75g2JzREfYpgzWZz3SjX8W5Bd910lV9TfNzsDZvYN+t2I9V0kL/lssV4tSnA+X/k0UlzMPq5UsNWwj8lm6UnzfINcU1lTO87mFe+NL27vJV8h0L/+RUtHGxokSJ4qTxUDj8by5jRRw9HtjvncjAq5DV+HPKGMt0nbcMVHhlZ8ntodLtxW/6u8MWrQ1Bs/Zizry5GHzfuxiZ8FgrGe4yXMu415QYBzq0dhSN1IlvMZh65IkSw4YuoJvAeCp1TmdRpH2L2C1rnxj0U3qqbtZzyFO/FHYrMohI5w+ZxRtl/imU5Wbz8qaFhdwXz70ll9Nrq8PGzGCaCnpqoZtN1UHKQv9VKf27KZoRuUL2Y4qyPmiOeahuBA9/zxshMFn6ixiUvVcuG0e+JUs6YjrTVKlrm0urODVG0dFJKeoQ1Mcyj4YNnSJXVMylz89M7SRy5jcBcYt2YQSyo9OKpKmH4wGnstHJuUdQtbkv+b15nmBaOBErWEqpMPiFi7JVdTDXSTjmlgG2XIt7GUWkr8EXWjcmm+PBhFv3mIYor4tvyKGAfJ/6YraeKQiLpic00xFx6Pc4pvYwcugsPvh7jJhVzfBuBA+f4+4gBPJyXw8T1p4mll2jxEcCe0+t43NCa+rlGTc+sIkJokvodv6WnZtYCOSWXZZWuBL50tBHY/xV/HuIga8HB2FEitFDTU4CbyreeY0ZBLmlabmyKlZLCzRkjmFj4Nw5fMY0KFV3vUtBDD1/61TCF9OH5PLvqaEvPHhrT/GwbsGvfXNK7jWR1DB/TLCaqEKHhqHftt+r6mFl3KygDF/N5vLZs0HRA4Hr2z01DkWzcNms/UTlRq0rqcMBNlcUMUqOI3JPJTqtzdnXmjgXsP8PqR27SIoPcfRLbrHKiq/N2rH+meY++RLpdvbLK9J7iTMg7h/ahA2nYy7EF6doXGElJY37FtX357kDAHvar11JJ4Y6pO4gjiwwpNeLZgYDBe3Y/pRv3UX1tytXAOxRwhKqusXLdAf8fZsZCDw+VvaEAAAAASUVORK5CYII=;" vertex="1" parent="1">
          <mxGeometry x="-1545.93" y="198.65999999999997" width="32.43" height="20" as="geometry" />
        </mxCell>
        <mxCell id="wW4yl2Ik6cUgS3KZOihZ-282" value="&lt;font color=&quot;#000000&quot; face=&quot;Times New Roman&quot;&gt;&lt;span style=&quot;font-size: 14px&quot;&gt;TD error&lt;/span&gt;&lt;/font&gt;" style="text;html=1;align=center;verticalAlign=middle;resizable=0;points=[];autosize=1;strokeColor=none;fontSize=17;fontColor=#8C8C8C;" vertex="1" parent="1">
          <mxGeometry x="-1586.2499999999998" y="143.9999999999999" width="60" height="30" as="geometry" />
        </mxCell>
        <mxCell id="wW4yl2Ik6cUgS3KZOihZ-283" value="&lt;font color=&quot;#000000&quot; face=&quot;Times New Roman&quot;&gt;&lt;span style=&quot;font-size: 14px&quot;&gt;optimizer&lt;/span&gt;&lt;/font&gt;" style="text;html=1;align=center;verticalAlign=middle;resizable=0;points=[];autosize=1;strokeColor=none;fontSize=17;fontColor=#8C8C8C;" vertex="1" parent="1">
          <mxGeometry x="-1798.6" y="145.9999999999999" width="70" height="30" as="geometry" />
        </mxCell>
        <mxCell id="wW4yl2Ik6cUgS3KZOihZ-284" value="" style="html=1;shadow=0;dashed=0;align=center;verticalAlign=middle;shape=mxgraph.arrows2.arrow;dy=0.57;dx=16.35;notch=0;rounded=1;rotation=-180;fillColor=#DAD8ED;strokeColor=#DAD8ED;" vertex="1" parent="1">
          <mxGeometry x="-1706.25" y="154" width="85.75" height="20" as="geometry" />
        </mxCell>
        <mxCell id="wW4yl2Ik6cUgS3KZOihZ-285" value="&lt;font color=&quot;#000000&quot; face=&quot;Times New Roman&quot;&gt;&lt;span style=&quot;font-size: 14px&quot;&gt;parameter&lt;br&gt;update&lt;br&gt;&lt;/span&gt;&lt;/font&gt;" style="text;html=1;align=center;verticalAlign=middle;resizable=0;points=[];autosize=1;strokeColor=none;fontSize=17;fontColor=#8C8C8C;" vertex="1" parent="1">
          <mxGeometry x="-1799.2499999999998" y="250.45999999999992" width="70" height="50" as="geometry" />
        </mxCell>
        <mxCell id="wW4yl2Ik6cUgS3KZOihZ-286" value="&lt;font color=&quot;#000000&quot; face=&quot;Times New Roman&quot;&gt;&lt;span style=&quot;font-size: 14px&quot;&gt;optimizer&lt;/span&gt;&lt;/font&gt;" style="text;html=1;align=center;verticalAlign=middle;resizable=0;points=[];autosize=1;strokeColor=none;fontSize=17;fontColor=#8C8C8C;" vertex="1" parent="1">
          <mxGeometry x="-1963.71" y="159.9999999999999" width="70" height="30" as="geometry" />
        </mxCell>
        <mxCell id="wW4yl2Ik6cUgS3KZOihZ-287" value="" style="endArrow=classic;html=1;fontSize=17;fontColor=#8C8C8C;curved=1;strokeWidth=2;dashed=1;strokeColor=#A8B0B5;entryX=0;entryY=0.25;entryDx=0;entryDy=0;" edge="1" parent="1" target="wW4yl2Ik6cUgS3KZOihZ-23">
          <mxGeometry width="50" height="50" relative="1" as="geometry">
            <mxPoint x="-1904.9999999999998" y="189" as="sourcePoint" />
            <mxPoint x="-2144.87" y="388.66999999999996" as="targetPoint" />
            <Array as="points">
              <mxPoint x="-1942" y="189" />
              <mxPoint x="-2186" y="228" />
              <mxPoint x="-2178" y="295" />
            </Array>
          </mxGeometry>
        </mxCell>
        <mxCell id="wW4yl2Ik6cUgS3KZOihZ-288" value="&lt;font color=&quot;#000000&quot; face=&quot;Times New Roman&quot;&gt;&lt;span style=&quot;font-size: 14px&quot;&gt;parameter&lt;br&gt;update&lt;br&gt;&lt;/span&gt;&lt;/font&gt;" style="text;html=1;align=center;verticalAlign=middle;resizable=0;points=[];autosize=1;strokeColor=none;fontSize=17;fontColor=#8C8C8C;" vertex="1" parent="1">
          <mxGeometry x="-2215" y="250.45999999999992" width="70" height="50" as="geometry" />
        </mxCell>
        <mxCell id="wW4yl2Ik6cUgS3KZOihZ-289" value="" style="rounded=0;whiteSpace=wrap;html=1;fillColor=#D6E6F2;strokeColor=#D6E6F2;" vertex="1" parent="1">
          <mxGeometry x="-2106.32" y="546.9499999999997" width="70" height="20" as="geometry" />
        </mxCell>
        <mxCell id="wW4yl2Ik6cUgS3KZOihZ-290" value="" style="ellipse;whiteSpace=wrap;html=1;aspect=fixed;fillColor=#6EA3E0;strokeColor=#6EA3E0;" vertex="1" parent="1">
          <mxGeometry x="-2101.32" y="549.9499999999997" width="14" height="14" as="geometry" />
        </mxCell>
        <mxCell id="wW4yl2Ik6cUgS3KZOihZ-291" value="" style="ellipse;whiteSpace=wrap;html=1;aspect=fixed;fillColor=#6EA3E0;strokeColor=#6EA3E0;" vertex="1" parent="1">
          <mxGeometry x="-2055.3199999999997" y="549.9499999999997" width="14" height="14" as="geometry" />
        </mxCell>
        <mxCell id="wW4yl2Ik6cUgS3KZOihZ-292" value="" style="ellipse;whiteSpace=wrap;html=1;aspect=fixed;fillColor=#6EA3E0;strokeColor=#6EA3E0;" vertex="1" parent="1">
          <mxGeometry x="-2078.32" y="549.9499999999997" width="14" height="14" as="geometry" />
        </mxCell>
        <mxCell id="wW4yl2Ik6cUgS3KZOihZ-293" value="" style="html=1;shadow=0;dashed=0;align=center;verticalAlign=middle;shape=mxgraph.arrows2.arrow;dy=0.57;dx=16.35;notch=0;rounded=1;strokeColor=#FFCCCC;fillColor=#FFD966;" vertex="1" parent="1">
          <mxGeometry x="-2001.82" y="394" width="60" height="20" as="geometry" />
        </mxCell>
        <mxCell id="wW4yl2Ik6cUgS3KZOihZ-294" value="" style="html=1;shadow=0;dashed=0;align=center;verticalAlign=middle;shape=mxgraph.arrows2.arrow;dy=0.53;dx=22.12;notch=0;rounded=1;rotation=-165;fillColor=#FFD966;strokeColor=#FFD966;" vertex="1" parent="1">
          <mxGeometry x="-1878.1" y="212.00000000000006" width="200.5" height="15" as="geometry" />
        </mxCell>
        <mxCell id="wW4yl2Ik6cUgS3KZOihZ-295" value="" style="shape=image;verticalLabelPosition=bottom;labelBackgroundColor=#ffffff;verticalAlign=top;aspect=fixed;imageAspect=0;image=data:image/png,iVBORw0KGgoAAAANSUhEUgAAAHsAAAAmCAYAAADk1+RWAAAOjUlEQVR4Ae2aCVAUV/7Hu+cAQZDDRIIYg6IYQjzRqKViPNYcxohXlqCu8UgkmhjjxnhFNx7Bi/U+NtlgMHjFE1GjJWLEaERwJRov/opXeRcIUSiYmpn6/Kvn7BmGYQDRql2omuJ193u/93u/7+/uFqj9+6+UwJ9//slvGZms2p7Dsq2XDT/hv/KktYcySCDn/y5z4Ej2kwFbV3iVrMN72b5pPYlJW0hOy+LqQ20VRV3ImY0ziI0/hqaKFP63lmnIWvkZM7f8waNyDq7VasnM+g9Je89V0bKLrpL23VSiuzTF18OHhqGt6RwZSceWjfFRiYjuDWgdNYWk3wvQl8OE/W3d7VRm921Dt/EbOffY/mntdbkSeJTNtzFtefXdeaTd1TmcVlhYyImMTBJ2X8B1N67P59QPn9M72BOVb0uGzFrPrzeKbTYovrafb94Jxk0UED1DGZZ4kVKbGWUvis/+i0HNGtF7UWa5Glp2Ve0diwT0d9j7aRv8mw5kze9FltvyQV5engFwl8DW3z/KogEheIgKfNrG8lNOiZyW7bjkDAsifVAIAmKdcCamFdg+l11pLv2bAY08CY3dR56rbkC2vnZokoAul4SoQNRB/fnukuMgmJ+fX7Fla3I3M/JlD0RBgXfEZA49qBiVkuNfEKYSEAQR9zYzyXK0f+ERJrf2RNXkQ/aVrw+1eLooAf3tDQwJVOLR8nPKsy+nlq27vplhIe6Igoiq0RCSrjuOC2X40WYzs7UaQRAQlEGM2mMfiAs4MC4UtehFz+W5uEi1zDa1N+QS0HEpPpK6oppmY/bgyCbLB7voJHO7mNyxKphRu/NcTrighF3DnzO4ckFQ0uijAzaxu+T4FFq6iSj8BrEhX85w7bg6EtA/+JEBvgpEdRiTjpaN3+WA/Zj0SeGGREsQFAQM2cCdir23jE8NRyaEoJIsWxBQd43nqtl89ddZ84aPISz4DtxALdYysVV7mM+GQX4oBBHvXivINcvcRNch2MUnZtC2jmgASqzTgTlnKls7l3JwbCOUZrBbzeCUiYQ2cxqvqkUEsQ49V9x0zVsUXSQ5bgx9X2vBiwH1qR/YhFbdBzB25gqStm0g7r2OjN5pWxlUW26VJlDK9UPLGNc3gpDABgS1jGLh8UI0F/ewaukSliyRfktZvS+nBsOWnhvLXsddqobUYXx5wrYWKgu27jLLengjGoBSUH9gEvcrZdWSlB7xY1RdEw0Bdfs5nDNoWSmHP2liVAJVGJNPOMrcbKWszzvElA6+xuzevTmD41PIyM5g79oJdA9UG/dQvcKUjIpp2VJ+glell/lpfHv8lCJinVBiVh7k1y3j6BD5NQkTQi0eThDd6LygJsEGzW+TedmQHCsJHpeGvG4qA3Zx2nhCDJOl5KoxYw+U9f0VikmbxfSWpgRNEPHom2B015qjfNZMZfQYXlGsrzALLyJtfAgq0RgO3Hqu5LZM8UovrKFvgALR/U2+fVAhVzUzoeQsa6Iao5Z4FD3pOPu0UcC6yyzoFkzjIKUxUZWMR92Kr8wurma4gYJE3q1r9MrKJuM5LDNuO7Dz2fxXc2IloGr2Gemyya7yp7+zlj4exg0FQUXY5BOGFqju/Fzaq43AqZpP5GhFxliaSmxjq7BUoZP41YYfHZcWdqFu41hSbe67ymk15+nvsHN0qCm3keQ1nkOWwqOIH6OkktV4Xil3McizojNXkyU0R5nY3GhQgrod/zhrDcG2YOdvYKCvwqSJSl4ad8gmi3aVj4ebBuOnMB1S8QIjU4zx9NHGQdQzWam66+IyCUQZ+sUbGOBpVhrJcrx5beYxCmUTdRe/oWsPF2jJ1jyZoZ6bSYMJVJrOKXoSGS930QUk9HW3WrWgpOHovdR4ZqHLZXFXk1cVPem37qHluDZgF6d8QIAFJH/e32ZRU8uCigcF/BRt9Q6KgOHsNHTqtZybE4HaoOki7u+sswHNIV1NusXtG2p2qSunaki/NeetSqjNIfVQDlb9dUjpyd/M38WIRlavo/CNIvGeLMZoz/J1hDmUCQgKf97bIlfTJ8+SkWIh696ReiOSEqpp9dUpy0YysLWc/bqdCQwpvnQl3lIvWeZXONDf/YH+Mu/Q5ONUkzbLkjNBxGvwZhe0XEPmzDaG7NIMtvRfdA9l9M7brmXyFXJclQlazs7tQB2Tl5LK0wZDt9sq78MfGVDP6pVEr758X/lMtwrMlbDtfV8T2EqCxvxsoSEDu4SUkQGmRoiA4vm/kSxP5SxLnA105CzuiodJCKJnZ+Yb03CkRsu+0YEm+iK+0VtdABt4fIxp7TxtYp8EuMK3OwuyK82gM+Zdf1Z8kNiXrFYtKBowdIfti8ailJEEmr2k1DZ+fSnXZYbv+maVnVnC7hENTHJW4Bez3UJABnYxW4aYSy4BVYsvOF7ZZOJxKuNCTMmBqKLpRz9jTbhLSY1tbKq9RbwGbXINbEBzYTVvByjtABfxaDuDE88A70e7hlvDneRpfAex0XpQSUPZMyrI0meQ3Gn7uedrsL624Gkwqj2jXrCAXX/YTstDGdglpHxg1ggBVfhUTlYqEGq5GB+Jt8mqlUExbJXHMDRkfBlmqjldjNkWNvXkH55ChLfVLRrcusKfwRufdg9O8lByIEXceyznpsxq9Q82Mvg5c6IrIDzVPkAJO4f5m8BWEjw+zSJFGdg6chZ0tsRsZdCH7K9EOaPL/Rdv1zceUFS/xNCfbtnFVD13V/e2xF+3yCVO3Jqee6czybXZX8f1TTEES903SzmjpNHYg9ZkzXKsGhxos5nVRpZ4CUqafvqLjActf3zT0RLKJF6VweNIszlLDfLHY9b3N5d8ajrFXbJsJgMbtNmzaGMWproT83PsmquWZXaD0rPE95B6slJ55EXE1HTbZMU0vfTweIJNpYrqlSmU3/R6zMYhLzNmn32h8oj0L1pZFEZKjPyH7rDpEtlx9uQvS3Yw1F9mtYIbkUuuWRRbn7eHWT1CbHgMGJFMFVpTVeNdf41/djMpo+I5hu+yytAGbHS5rOxdzxgbRTc6zD1XcUmjv8Pusa8YNVn0otXHu7hZno4UbmSQr9EyFf4x7LDyYXsw3TnmtHen4Qe7y369kpfEQD+zsNW0nfV7xTzaUnfhSsvDa5e4UejgIMWbGOQl9y7uvPltnonmQ35ZvYRpUdbSU+oN9E+UQs0jflu1iOTKvVFygVe7KbJyVazTi1W3rPHFFmwpvGfMJMLUyFAGDiZJNtmOLGiusi22tSFOi+og/vKPQ9y10i4zHf0dvnvLlASqOxF3yYEwpVUlKYyU2qA+vVhx2W6ONosZplas6B7B7Eq/pCnLlu2dUk4v7E59pYg68A2W/2GXpZYeZnwTWSYuqGk54xRatFxLWU7i8WQ+ktXfgro9c889Jmf9UDq9l4irnwTY8lSJq/wE3jHgJ+LWeT5yEZcBG0o5t+ZdggzuXIFvx8/ZdcU+5S3h1rF/80mXANSiCv/W0SxMu+1CtqnnbkI/fKQkTvRlyGbbcsV8JP3N5fRwk5oCCnw6TGLvTWumWHzqazpKhxHr0ubLXxyGCzOdKv3XnrZ+eGEAMsvOcxSyfag1kTWUgT5h9Ozbn082XqE0dzFdTS1hQ24hutEg+EUatBzHXpuEtUrcVbhIk/4ZzaR3G2Idui6Wd/Qo77OkUnKTZ9C3uTcKUUThEUjbN6IZFRvL6Jj+vB7+PG6qejTt/jdmrc/gnp3xOeWoMIWRhpcDKkImHHH42bDmyASa+TWna+9uhAfUQekdQvcho/lweB9e9lGi9GlB1LwKvIhTJpw9LCR1QpipYaKmY9ylMkpcemounSyVgYjCO4zhCeeNuUNhMiMaWi1fVNSl6Vsz+flWZYTkjD9nz3Rcmt/JkGQr/Pqzzi5kOLBsGTFdPucPfM/kXg1R123O2x9PZ/aC5SRsT+f8/aqml1rOzOuIpyigDp9GptVoLRtrTyexNu2+MenR5nE+NYlls6fy5Yy5LP1hP+cfOosVFjJVH5RmMb2VGtGtLbOyHTCInodntrFk5jRmLU7kl2tyz6en4MxWFk2fwqyFa9n62y1Zpl51llxaqb/Oip6eiKKasL//WqaPUQHYd0mb3YfQltGsPPnQknG6tLGzSY/SmBCqRlS14O/Hqqo0zjao5rOSdCaGutNk9G6H33JVk3qNLdddjifSQ0TZaBjbHISMcsHW5x0nPupV2g5dQ1ZBFSxJc5UTJ2+UcYHmkxakTSTcXcnzA9bbvKM2P39m/7U32Dm2NcG9F5DhOKV4Zqw537iY9IktUKleJGaL4/cGDsEuPLWG6BbPETp4Hkk7k9mz/zAZF++5Xs+WXGDdRx+w1GnvuohTC3tQX/0SI3bee3Jew7lEnD7VXd3BpLciGfDVLsrkpE5XPvuHmrPz6eJdl1YTU8kvxzbtwC7iXOIoWtUz17Gmd7WGZokCj4Bwevz1U+Z9v4esG48dAFTE1dQljOjWiy/2uwCg/j4HJ7fHL+hdvi3n4/anKsaSe9zOcxSjnyoXld+s4CjTIvwJHbaBK07Yt4Ktu8aOT1/jBb+GBDdpzAs+7igtr/BkoJtblaKaeg1DadelB33efINe3SIIDfDCNzyGVZk2bwWcM6/P5/jifoSGx/DDBXmi43xZ7VOjBPQPjjKnVws6f57MdSdAS7OtYOvzOXv8DA8sC7Q8uvUH6bsSWDR1DAO6v0qQl8ruzZNRCUSFB4Htopi4+jA3qpRv6bh/bBkjevdj+j77nrorsGrIXDWG96Ojia7Ob3gch2r6+wJNJqvGvF89PqOjGR53kMtHFhHTZyAzdl1xKcRawXZJpvlcyTzI9sQ1LF28iH8uX0vijkOcdujSXSFoN0d7l+zfy0/q7GbLLnXkpCxlflwccdX5LdpMdnktXNlu1RrqckhZOr96fMbFsWjzKS5nn+RaJfitHNjVOmXt4mctgVqwnzUCT3H/WrCforCf9Va1YD9rBJ7i/v8P3Lo6R5zWc/0AAAAASUVORK5CYII=;" vertex="1" parent="1">
          <mxGeometry x="-1514.43" y="196.92000000000002" width="56.29" height="17.39" as="geometry" />
        </mxCell>
        <mxCell id="wW4yl2Ik6cUgS3KZOihZ-296" value="&lt;font style=&quot;font-size: 14px&quot;&gt;&lt;b&gt;Inner Attention&lt;/b&gt;&lt;/font&gt;" style="rounded=0;whiteSpace=wrap;html=1;gradientDirection=north;strokeColor=#EBC3C1;gradientColor=#ED6C67;fillColor=#ED6C67;" vertex="1" parent="1">
          <mxGeometry x="-1719.56" y="308.84" width="305.56" height="23" as="geometry" />
        </mxCell>
      </root>
    </mxGraphModel>
  </diagram>
</mxfile>
